<svg id="ac95dd97-42c5-4e40-9b19-ab8c74189b3d" data-name="Calque 1" xmlns="http://www.w3.org/2000/svg" viewBox="0 0 50 50"><defs><style>.e3572093-65a5-4dd4-ad91-a3f9a571f8a6{fill:#cc1808;}</style></defs><title>alerte</title><path class="e3572093-65a5-4dd4-ad91-a3f9a571f8a6" d="M42.67,7.33A24.08,24.08,0,0,0,25,0,24.08,24.08,0,0,0,7.33,7.33,24.08,24.08,0,0,0,0,25,24.08,24.08,0,0,0,7.33,42.67,24.08,24.08,0,0,0,25,50a24.08,24.08,0,0,0,17.67-7.33A24.08,24.08,0,0,0,50,25,24.08,24.08,0,0,0,42.67,7.33ZM27.11,39.58H22.89V33.84h4.22Zm0-11.59H22.89V10.42h4.22Z"/></svg>