<svg id="fe5fa9f0-8654-4c52-94a9-d6b5663b7daf" data-name="Calque 1" xmlns="http://www.w3.org/2000/svg" viewBox="0 0 83.02 100"><defs><style>.ac23c029-643c-4928-8a53-8bd9b9067209{fill:#fff;}</style></defs><title>pictogramme</title><path class="ac23c029-643c-4928-8a53-8bd9b9067209" d="M41.51,0C18.62,0,0,18.88,0,42.09V72.78H3.6V42.09C3.6,20.86,20.6,3.6,41.51,3.6S79.43,20.86,79.43,42.09V81.66L56,91.61H53.7v-4.8H29.3V100H53.7V95.2h3L83,84V42.09C83,18.88,64.4,0,41.51,0ZM50.1,96.4H32.9v-6H50.1Z"/><path class="ac23c029-643c-4928-8a53-8bd9b9067209" d="M5.67,76.38H18.73V51.68H5.67Zm3.6-21.1h5.86V72.79H9.27Z"/><path class="ac23c029-643c-4928-8a53-8bd9b9067209" d="M64.3,51.68v24.7h13V51.68Zm9.45,21.11H67.89V55.28h5.86Z"/></svg>