<svg id="fca627d4-ff01-4c21-a048-11fd512fa737" data-name="Calque 1" xmlns="http://www.w3.org/2000/svg" viewBox="0 0 74.19 98.2"><defs><style>.a656fd38-5b37-4f66-b50f-daf6c9ddfc26{fill:#fff;fill-rule:evenodd;}</style></defs><title>pictogramme</title><path class="a656fd38-5b37-4f66-b50f-daf6c9ddfc26" d="M61.2,41.55v-17A23.89,23.89,0,0,0,54.14,7.2,23,23,0,0,0,37.1,0a23,23,0,0,0-17,7.2A23.9,23.9,0,0,0,13,24.56v17H0V98.2H74.19V41.55Zm-44.51-17A20.28,20.28,0,0,1,22.6,9.8a19.53,19.53,0,0,1,14.5-6,19.53,19.53,0,0,1,14.49,6,20.27,20.27,0,0,1,5.9,14.76v17H16.69Zm-13,69.87H70.48V45.32H3.71Z"/><path class="a656fd38-5b37-4f66-b50f-daf6c9ddfc26" d="M35.25,71.53v7.79H39V71.53c3.7-1.11,5.56-3.54,5.56-7.32a7.42,7.42,0,0,0-2.08-5.43,7.15,7.15,0,0,0-5.33-2.12,7.16,7.16,0,0,0-5.34,2.12,7.42,7.42,0,0,0-2.08,5.43c0,3.78,1.86,6.21,5.57,7.32m1.85-11.1q3.7,0,3.71,3.78T37.1,68c-2.48,0-3.71-1.26-3.71-3.78s1.23-3.78,3.71-3.78"/></svg>