<svg id="fc4dff6c-d4f2-4c80-9285-d1816c18c8d0" data-name="Calque 1" xmlns="http://www.w3.org/2000/svg" viewBox="0 0 100 100"><defs><style>.f84a4734-a932-4ffb-b867-8a2c40d79389{fill:#fff;fill-rule:evenodd;}</style></defs><title>pictogramme</title><path class="f84a4734-a932-4ffb-b867-8a2c40d79389" d="M19.59,0a7.36,7.36,0,0,1,2.92.59,4.76,4.76,0,0,1,2.14,1.76L27,5.87q2,2.93,4.29,6.39l4.29,6.45q2,3,2.48,3.76a6.37,6.37,0,0,1,.78,3.6,11.13,11.13,0,0,1-1.27,4.5c-.46.78-1.23,2.15-2.33,4.1s-2,3.55-2.64,4.79c.71,1,2.1,2.8,4.14,5.27s5,5.63,8.82,9.47,7.08,6.89,9.55,8.94,4.22,3.43,5.26,4.15c1.17-.65,2.74-1.55,4.73-2.69s3.36-1.9,4.14-2.29a12,12,0,0,1,2.48-1,9.19,9.19,0,0,1,2.39-.34,5.6,5.6,0,0,1,1.66.24,7.68,7.68,0,0,1,1.46.64q.78.48,3.84,2.49c2,1.33,4.23,2.77,6.54,4.3s4.43,2.94,6.38,4.25S97.15,75,97.54,75.3a5.67,5.67,0,0,1,2.38,4.15,8.25,8.25,0,0,1-1.6,5.91q-3.51,4.59-6,7.32a50.26,50.26,0,0,1-5.4,5C85,99.24,83.24,100,81.76,100h-.1A36.35,36.35,0,0,1,68.4,96.88,82.34,82.34,0,0,1,55,89.51a126.22,126.22,0,0,1-12.82-9.87Q36,74.22,30.79,69.05T20.27,57.67a129.11,129.11,0,0,1-9.8-12.85A84.07,84.07,0,0,1,3.12,31.4,35.9,35.9,0,0,1,0,18.27q-.09-2.36,2.19-5.18a51.76,51.76,0,0,1,5-5.37C9,6,10.71,4.59,12.23,3.43s2.33-1.8,2.38-1.86A9.46,9.46,0,0,1,17.05.39,8.61,8.61,0,0,1,19.59,0m0,6.06a1.85,1.85,0,0,0-.74.15,3.46,3.46,0,0,0-.63.34,63.74,63.74,0,0,0-7.75,6.54C8,15.5,6.62,17.26,6.24,18.37A30.77,30.77,0,0,0,8.43,28a63,63,0,0,0,5.7,11.09,122.32,122.32,0,0,0,9,12.3q5.33,6.45,12,13.28t13.3,12.16a118,118,0,0,0,12.32,9,68.19,68.19,0,0,0,11.06,5.72,30.07,30.07,0,0,0,9.6,2.24c1.1-.45,2.86-1.9,5.26-4.34a64.76,64.76,0,0,0,6.53-7.77,1.88,1.88,0,0,0,.44-.87c0-.26,0-.46,0-.59q-1-.68-3.8-2.54c-1.89-1.24-3.9-2.57-6-4l-6-4-3.66-2.44h-.1a3.73,3.73,0,0,0-.68.1,4,4,0,0,0-1.27.59q-1,.48-3.6,2c-1.75,1-3.45,2-5.07,2.93L60,74.71l-3.21-2.34c-1.17-.85-3.08-2.34-5.7-4.49s-5.93-5.21-9.89-9.19-7-7.35-9.21-10S28.32,44.21,27.48,43l-2.24-3.22,2-3.42Q29,33,30.35,30.72c.88-1.54,1.45-2.56,1.71-3.08a5.45,5.45,0,0,0,.49-1.31,5.51,5.51,0,0,0,.09-.74q-.59-1-2.44-3.81t-3.94-6c-1.39-2.09-2.71-4.07-4-6s-2.08-3.13-2.53-3.71c0-.07-.06-.1-.19-.1"/></svg>