<svg id="a495099e-1b43-484a-ae5c-699aa47334ec" data-name="Calque 1" xmlns="http://www.w3.org/2000/svg" viewBox="0 0 83.02 96.24"><defs><style>.e38ed982-da35-4858-b6b4-2db6df410bd0{fill:#fff;}</style></defs><title>pictogramme</title><path class="e38ed982-da35-4858-b6b4-2db6df410bd0" d="M68.14,6.63V0H14.9V6.63H0V27.68C0,37.22,7.08,45,15.9,45.39A26.44,26.44,0,0,0,39.72,64.08V82.39H24.83V96.24H58.21V82.39H43.32V64.08A26.42,26.42,0,0,0,67.14,45.39C76,45,83,37.21,83,27.68v-21Zm-13.52,86H28.43V86H54.62Zm-51-65V10.22H14.9v28.3a25.59,25.59,0,0,0,.23,3.18C8.66,40.89,3.6,35,3.6,27.68ZM64.54,38.52c0,12.16-10.32,22-23,22s-23-9.89-23-22V3.6h46ZM79.42,27.68c0,7.23-5,13.15-11.5,14a25.43,25.43,0,0,0,.22-3.17V10.22H79.42Z"/></svg>