<?xml version="1.0" encoding="UTF-8"?>
<svg width="42px" height="42px" viewBox="0 0 42 42" version="1.1" xmlns="http://www.w3.org/2000/svg" xmlns:xlink="http://www.w3.org/1999/xlink">
    <!-- Generator: Sketch 59.1 (86144) - https://sketch.com -->
    <title>Group 5</title>
    <desc>Created with Sketch.</desc>
    <g id="mail-&amp;-newsletter-(desktop-&amp;-mobile)" stroke="none" stroke-width="1" fill="none" fill-rule="evenodd">
        <g id="mail-desktop" transform="translate(-279.000000, -1149.000000)">
            <g id="Group-5" transform="translate(280.000000, 1150.000000)">
                <circle id="Oval" stroke="#BCC0C4" cx="20" cy="20" r="20"></circle>
                <path d="M24.3072505,12.1162958 L24.3072505,14.6547021 L22.7982771,14.6547021 C22.2455133,14.6547021 21.8750897,14.7695621 21.6826992,15.0007179 C21.4903087,15.2304379 21.3941134,15.5764537 21.3941134,16.0373295 L21.3941134,17.8549892 L24.2110553,17.8549892 L23.8363245,20.7006461 L21.3941134,20.7006461 L21.3941134,28 L18.4522613,28 L18.4522613,20.7006461 L16,20.7006461 L16,17.8549892 L18.4522613,17.8549892 L18.4522613,15.7602297 C18.4522613,14.5671213 18.7853553,13.6424982 19.4515434,12.9849246 C20.1191673,12.3287868 21.0064609,12 22.11486,12 C23.0567121,12 23.787509,12.0387653 24.3072505,12.1162958" id="Fill-1" fill="#BCC0C4"></path>
            </g>
        </g>
    </g>
</svg>