<?xml version="1.0" encoding="UTF-8"?>
<svg width="42px" height="42px" viewBox="0 0 42 42" version="1.1" xmlns="http://www.w3.org/2000/svg" xmlns:xlink="http://www.w3.org/1999/xlink">
    <!-- Generator: Sketch 59.1 (86144) - https://sketch.com -->
    <title>Group 2</title>
    <desc>Created with Sketch.</desc>
    <g id="mail-&amp;-newsletter-(desktop-&amp;-mobile)" stroke="none" stroke-width="1" fill="none" fill-rule="evenodd">
        <g id="mail-desktop" transform="translate(-389.000000, -1149.000000)">
            <g id="Group-2" transform="translate(390.000000, 1150.000000)">
                <circle id="Oval-Copy" stroke="#BCC0C4" cx="20" cy="20" r="20"></circle>
                <path d="M23.9179687,16.2578125 C24.1419271,16.2786458 24.3294271,16.3645833 24.4830729,16.5169271 C24.6354167,16.6692708 24.7109375,16.8580729 24.7109375,17.0820312 C24.7109375,17.3059896 24.6354167,17.4934896 24.4830729,17.6458333 C24.3294271,17.7994792 24.1419271,17.875 23.9179687,17.875 C23.6940104,17.875 23.5065104,17.7994792 23.3528646,17.6458333 C23.2005208,17.4934896 23.125,17.3059896 23.125,17.0820312 C23.125,16.8580729 23.2005208,16.6692708 23.3528646,16.5169271 C23.5065104,16.3645833 23.6940104,16.2786458 23.9179687,16.2578125 L23.9179687,16.2578125 Z M20.5,18.546875 C19.9505208,18.5664062 19.4934896,18.7604167 19.1263021,19.1263021 C18.7604167,19.4921875 18.5768229,19.9505208 18.5768229,20.5 C18.5768229,21.0494792 18.7604167,21.5065104 19.1263021,21.8723958 C19.4934896,22.2395833 19.9505208,22.421875 20.5,22.421875 C21.0494792,22.421875 21.5065104,22.2395833 21.8736979,21.8723958 C22.2395833,21.5065104 22.4231771,21.0494792 22.4231771,20.5 C22.4231771,19.9505208 22.2395833,19.4921875 21.8736979,19.1263021 C21.5065104,18.7604167 21.0494792,18.5664062 20.5,18.546875 L20.5,18.546875 Z M20.5,17.234375 C21.4153646,17.2552083 22.1835937,17.5755208 22.8046875,18.1953125 C23.4244792,18.8164062 23.7447917,19.5846354 23.765625,20.5 C23.7447917,21.4153646 23.4244792,22.1835937 22.8046875,22.8033854 C22.1835937,23.4244792 21.4153646,23.7447917 20.5,23.765625 C19.5846354,23.7447917 18.8164062,23.4244792 18.1953125,22.8033854 C17.5755208,22.1835937 17.2552083,21.4153646 17.234375,20.5 C17.2552083,19.5846354 17.5755208,18.8164062 18.1953125,18.1953125 C18.8164062,17.5755208 19.5846354,17.2552083 20.5,17.234375 L20.5,17.234375 Z M17.6315104,15.28125 C16.9596354,15.3020833 16.4049479,15.5299479 15.96875,15.9674479 C15.53125,16.4049479 15.3020833,16.9596354 15.28125,17.6315104 L15.28125,23.3684896 C15.3020833,24.0403646 15.53125,24.59375 15.96875,25.03125 C16.4049479,25.46875 16.9596354,25.6979167 17.6315104,25.71875 L23.3684896,25.71875 C24.0403646,25.6979167 24.5950521,25.46875 25.03125,25.03125 C25.46875,24.59375 25.6979167,24.0403646 25.71875,23.3684896 L25.71875,17.6315104 C25.6979167,16.9596354 25.46875,16.4049479 25.03125,15.9674479 C24.5950521,15.5299479 24.0403646,15.3020833 23.3684896,15.28125 L17.6315104,15.28125 Z M17.7539062,14 L23.2460938,14 C24.3046875,14.0195312 25.1901042,14.3867188 25.9010417,15.0976562 C26.6132812,15.8098958 26.9804688,16.6953125 27,17.7526042 L27,23.2460938 C26.9804688,24.3046875 26.6132812,25.1888021 25.9010417,25.9010417 C25.1901042,26.6132812 24.3046875,26.9791667 23.2460938,27 L17.7539062,27 C16.6953125,26.9791667 15.8098958,26.6132812 15.0989583,25.9010417 C14.3867188,25.1888021 14.0195312,24.3046875 14,23.2460938 L14,17.7526042 C14.0195312,16.6953125 14.3867188,15.8098958 15.0989583,15.0976562 C15.8098958,14.3867188 16.6953125,14.0195312 17.7539062,14 L17.7539062,14 Z" id="Fill-1" fill="#BCC0C4"></path>
            </g>
        </g>
    </g>
</svg>