<?xml version="1.0" encoding="UTF-8"?>
<svg width="42px" height="42px" viewBox="0 0 42 42" version="1.1" xmlns="http://www.w3.org/2000/svg" xmlns:xlink="http://www.w3.org/1999/xlink">
    <!-- Generator: Sketch 59.1 (86144) - https://sketch.com -->
    <title>Group 3</title>
    <desc>Created with Sketch.</desc>
    <g id="mail-&amp;-newsletter-(desktop-&amp;-mobile)" stroke="none" stroke-width="1" fill="none" fill-rule="evenodd">
        <g id="mail-desktop" transform="translate(-444.000000, -1149.000000)">
            <g id="Group-3" transform="translate(445.000000, 1150.000000)">
                <circle id="Oval-Copy-3" stroke="#BCC0C4" cx="20" cy="20" r="20"></circle>
                <path d="M26.1561818,21.1216364 L26.1561818,25.6172727 L23.5526364,25.6172727 L23.5526364,21.423 C23.5526364,20.8687273 23.4462727,20.435 23.2323636,20.1206364 C23.0184545,19.8074545 22.684,19.6502727 22.2313636,19.6502727 C21.8980909,19.6502727 21.6203636,19.7412727 21.3958182,19.9232727 C21.1712727,20.1052727 21.0046364,20.331 20.8935455,20.5992727 C20.8356364,20.7576364 20.8060909,20.9715455 20.8060909,21.241 L20.8060909,25.6172727 L18.2025455,25.6172727 C18.2131818,23.5112727 18.2190909,21.8059091 18.2190909,20.4964545 C18.2190909,19.1881818 18.2155455,18.407 18.2108182,18.1540909 L18.2025455,17.7735455 L20.8060909,17.7735455 L20.8060909,18.914 L20.7907273,18.914 C20.8959091,18.745 21.0046364,18.5972727 21.1145455,18.4708182 C21.2256364,18.3443636 21.3745455,18.2072727 21.5624545,18.0595455 C21.7491818,17.9118182 21.9784545,17.7971818 22.2502727,17.7144545 C22.5220909,17.6329091 22.8246364,17.5927273 23.1567273,17.5927273 C24.0596364,17.5927273 24.7840909,17.8917273 25.3336364,18.4897273 C25.882,19.0889091 26.1561818,19.9658182 26.1561818,21.1216364 L26.1561818,21.1216364 Z M14.1512727,25.6172727 L16.7619091,25.6172727 L16.7619091,17.7747273 L14.1512727,17.7747273 L14.1512727,25.6172727 Z M16.9285455,15.3531818 C16.9332727,15.7372727 16.7997273,16.0599091 16.5290909,16.3187273 C16.2572727,16.5763636 15.8991818,16.7063636 15.456,16.7063636 L15.4406364,16.7063636 C15.0080909,16.7063636 14.6594545,16.5763636 14.3959091,16.3187273 C14.1323636,16.0599091 14,15.7372727 14,15.3531818 C14,14.962 14.1359091,14.6393636 14.4077273,14.3829091 C14.6795455,14.1276364 15.0340909,14 15.4725455,14 C15.911,14 16.2608182,14.1276364 16.5255455,14.3829091 C16.7890909,14.6393636 16.9238182,14.962 16.9285455,15.3531818 L16.9285455,15.3531818 Z" id="Fill-1" fill="#BCC0C4"></path>
            </g>
        </g>
    </g>
</svg>