<svg id="bcbb8f42-b717-4f2e-950f-747f2fede941" data-name="Calque 1" xmlns="http://www.w3.org/2000/svg" viewBox="0 0 369.31 200"><defs><style>.ff752ff9-8d2f-40c4-9800-93c7bdf75bea{fill:#222e3c;}</style></defs><title>pictogramme</title><path class="ff752ff9-8d2f-40c4-9800-93c7bdf75bea" d="M94.77,17.87c-1.82-2.55,1.56-5.46,3.79-7.39C104.5,5.35,120-.19,143.26,1.75A109.36,109.36,0,0,1,174.94,9.5c2.31.81,9.57,3.35,9,4.43s-5.07-.72-6.1-1.1a131.35,131.35,0,0,0-26.15-5.27c-16.13-1.35-28.13-.89-43.57,4.31-7,2.35-12.36,7.38-13.35,6"/><path class="ff752ff9-8d2f-40c4-9800-93c7bdf75bea" d="M86.92,27.63c-2.48,9.53-3.8,33.92-4.67,46.21-2,27.55-3.59,57.08-2.51,57.16,1.69.12,1.5-33.38,6-65C90.85,30,95,21.34,91,20.15c-2.31-.69-3.2,4.17-4.07,7.48"/><path class="ff752ff9-8d2f-40c4-9800-93c7bdf75bea" d="M289.16,24.82c2.73,9.83,4.68,35.11,5.87,47.86,2.67,28.58,5.06,59.34,4,59.46-1.69.18-2.37-34.77-7.68-67.53-6-37.21-10.39-46-6.44-47.37,2.29-.8,3.31,4.17,4.26,7.58"/><path class="ff752ff9-8d2f-40c4-9800-93c7bdf75bea" d="M283.09,13.23c1.29-1.42-1.59-4.1-3.16-5.09C275,5,264.21,0,242.89,0c-15.42,0-30.65,4.33-42.37,8.74-2.09.78-9.52,4.78-9.08,5.9s6.34-1.44,7.29-1.77c13.5-4.58,31.58-7.66,41.24-7.66,14.79,0,26.75,2.34,34.73,5.65,5.6,2.33,7.66,3.18,8.39,2.37"/><path class="ff752ff9-8d2f-40c4-9800-93c7bdf75bea" d="M298.39,140.51a27,27,0,0,0-5.74-4.69c-1.07-.62-2.13-1.28-3.24-1.81l-1.66-.84-1.69-.75a74,74,0,0,0-6.91-2.65c-2.33-.8-4.7-1.47-7.09-2.09s-4.78-1.19-7.2-1.64c-1.21-.24-2.42-.46-3.64-.66s-2.43-.41-3.65-.57c-2.44-.37-4.89-.63-7.34-.86l-3.69-.29-3.7-.2c-2.46-.11-4.93-.16-7.41-.1s-4.94.13-7.42.31l-3.7.33-3.7.46-3.69.6c-1.23.21-2.44.51-3.66.76-2.44.56-4.87,1.19-7.25,2-1.2.36-2.38.82-3.56,1.27s-2.34,1-3.49,1.48-2.28,1.12-3.4,1.72a38.24,38.24,0,0,0-3.29,2l-.8.52-.78.59-.77.58-.76-58.73-.86-63.16-.26-.4a.25.25,0,0,0-.14-.13l0,0h-.05a.27.27,0,0,0-.22.15.76.76,0,0,0-.22.43l-.91,63.15L185.69,136l-.76-.59-.78-.59-.8-.52a38.24,38.24,0,0,0-3.29-2c-1.12-.6-2.24-1.23-3.4-1.72s-2.31-1.06-3.5-1.48-2.35-.91-3.55-1.27c-2.39-.8-4.81-1.43-7.25-2-1.22-.25-2.43-.55-3.66-.76l-3.69-.6-3.7-.46-3.7-.33c-2.48-.18-5-.31-7.43-.31s-4.94,0-7.4.1l-3.7.2-3.69.29c-2.45.23-4.91.49-7.34.86-1.22.16-2.44.37-3.65.57s-2.43.42-3.64.66c-2.42.45-4.81,1-7.2,1.64s-4.76,1.29-7.09,2.09a74,74,0,0,0-6.91,2.65l-1.69.75-1.66.84c-1.12.53-2.17,1.19-3.24,1.81a27.33,27.33,0,0,0-5.75,4.69.27.27,0,0,0,0,.34.27.27,0,0,0,.37,0h0a29.77,29.77,0,0,1,6.1-3.73c1.1-.46,2.17-1,3.3-1.38l1.68-.63,1.71-.55a109,109,0,0,1,13.94-3.4c2.36-.43,4.73-.78,7.1-1.1,1.19-.17,2.38-.31,3.57-.44s2.38-.27,3.57-.35c2.39-.21,4.78-.36,7.16-.5l3.59-.15,3.58-.05c2.39,0,4.78,0,7.16.1,1.19,0,2.38.08,3.57.17s2.38.11,3.56.23l3.54.33,3.54.41c2.34.34,4.68.7,7,1.16s4.61,1,6.85,1.66c1.14.29,2.24.68,3.34,1.06s2.19.8,3.27,1.24,2.11.95,3.15,1.45,2,1.12,3,1.69l.74.44.69.5,1.39,1c.89.67,1.68,1.44,2.53,2.15a2,2,0,0,0,1.2.65l.08,0,.23,0H188l.14,0a2.12,2.12,0,0,0,1.33-.68c.84-.71,1.62-1.48,2.51-2.14l1.39-1,.69-.5.74-.44c1-.57,1.94-1.21,3-1.69s2.06-1,3.15-1.45,2.14-.9,3.26-1.24,2.21-.77,3.35-1.06c2.24-.66,4.54-1.19,6.85-1.66s4.65-.82,7-1.16l3.53-.41,3.55-.33c1.18-.12,2.38-.14,3.56-.23s2.38-.13,3.57-.17c2.38-.1,4.77-.09,7.16-.1l3.58.05,3.58.15c2.39.14,4.78.29,7.17.5,1.19.08,2.38.22,3.57.35s2.38.27,3.57.44c2.37.32,4.74.67,7.1,1.1a109,109,0,0,1,13.94,3.4l1.71.55,1.68.63c1.13.4,2.2.92,3.31,1.38a30,30,0,0,1,6.09,3.73h0a.27.27,0,0,0,.34,0,.26.26,0,0,0,0-.37"/><path class="ff752ff9-8d2f-40c4-9800-93c7bdf75bea" d="M188.31,25.22a.48.48,0,1,0-.95,0,.48.48,0,1,0,.95,0"/><path class="ff752ff9-8d2f-40c4-9800-93c7bdf75bea" d="M298.39,154.84a27,27,0,0,0-5.74-4.68c-1.07-.62-2.13-1.29-3.24-1.82l-1.66-.83-1.69-.76c-2.25-1-4.57-1.85-6.91-2.65s-4.7-1.47-7.09-2.09-4.78-1.18-7.2-1.63c-1.21-.25-2.42-.46-3.64-.66s-2.43-.42-3.65-.57c-2.44-.38-4.89-.63-7.34-.87l-3.69-.29-3.7-.2c-2.46-.1-4.93-.15-7.41-.1s-4.94.14-7.42.31l-3.7.33-3.7.47-3.69.6c-1.23.2-2.44.51-3.66.75a74.19,74.19,0,0,0-7.25,2c-1.2.35-2.38.82-3.56,1.27s-2.34,1-3.49,1.48-2.28,1.12-3.4,1.71-2.2,1.31-3.29,2l-.8.52-.78.59-1.53,1.17c-.47.37-.91.78-1.35,1.19-.44-.41-.88-.82-1.35-1.19l-1.53-1.17-.78-.59-.8-.52c-1.09-.67-2.15-1.41-3.29-2s-2.23-1.23-3.4-1.71-2.31-1.06-3.49-1.48-2.36-.92-3.56-1.27a74.19,74.19,0,0,0-7.25-2c-1.22-.24-2.43-.55-3.66-.75l-3.69-.6-3.7-.47-3.7-.33c-2.48-.17-5-.3-7.42-.31s-4.95,0-7.41.1l-3.7.2-3.69.29c-2.45.24-4.9.49-7.34.87-1.22.15-2.43.36-3.65.57s-2.43.41-3.64.66c-2.42.45-4.81,1-7.2,1.63s-4.76,1.3-7.09,2.09-4.66,1.64-6.91,2.65l-1.69.76-1.66.83c-1.11.53-2.17,1.2-3.24,1.82a27,27,0,0,0-5.74,4.68.26.26,0,0,0,0,.34.27.27,0,0,0,.37,0h0a29.29,29.29,0,0,1,6.1-3.72c1.1-.47,2.17-1,3.3-1.38l1.68-.64,1.71-.55a107.27,107.27,0,0,1,13.94-3.39c2.36-.43,4.73-.78,7.11-1.1,1.18-.18,2.37-.32,3.56-.44s2.38-.27,3.57-.36c2.39-.21,4.78-.36,7.16-.5l3.59-.14,3.58-.06c2.39,0,4.78,0,7.16.1,1.19.05,2.38.08,3.57.17s2.38.11,3.56.24l3.55.32,3.53.41c2.34.34,4.68.7,7,1.16s4.61,1,6.85,1.66c1.14.29,2.24.69,3.34,1.06s2.19.81,3.27,1.24,2.11,1,3.15,1.46a32.47,32.47,0,0,1,3,1.68l.74.45.69.49,1.39,1c.89.66,1.68,1.43,2.53,2.15a2.16,2.16,0,0,0,1.2.65h.08l.23,0H188l.14,0a2.12,2.12,0,0,0,1.33-.68c.84-.71,1.63-1.47,2.51-2.13l1.39-1,.69-.49.74-.45a32.47,32.47,0,0,1,3-1.68c1-.51,2.06-1,3.15-1.46s2.14-.89,3.27-1.24,2.2-.77,3.34-1.06c2.24-.66,4.54-1.18,6.85-1.66s4.65-.82,7-1.16l3.53-.41,3.55-.32c1.18-.13,2.38-.15,3.56-.24s2.38-.12,3.57-.17c2.38-.1,4.77-.08,7.16-.1l3.58.06,3.59.14c2.38.14,4.77.29,7.16.5,1.19.09,2.38.23,3.57.36s2.38.26,3.57.44c2.37.32,4.74.67,7.1,1.1a107.27,107.27,0,0,1,13.94,3.39l1.71.55,1.68.64c1.13.39,2.2.91,3.3,1.38a29.29,29.29,0,0,1,6.1,3.72h0a.26.26,0,0,0,.36-.38"/><path class="ff752ff9-8d2f-40c4-9800-93c7bdf75bea" d="M53.14,69.26q0,12.48-7.49,21.09T27.28,99A25.06,25.06,0,0,1,7.87,90.23Q0,81.49,0,68.68,0,55.63,7.58,47.3A25,25,0,0,1,27,39a23.72,23.72,0,0,1,18.66,8.7q7.53,8.71,7.53,21.59m-9.37.42q0-15.35-6.28-23.92a12.82,12.82,0,0,0-11-5.37q-6.71,0-10.38,4.12Q9.37,52.06,9.37,69.1q0,13.5,4.73,21t13.26,7.47a13,13,0,0,0,12-7q4.44-7.8,4.44-20.82"/><path class="ff752ff9-8d2f-40c4-9800-93c7bdf75bea" d="M148,97.25c0,.48-.34.72-1,.72h-.84c-.33-.17-4.13-.25-11.38-.25-1.39,0-2.79,0-4.18.16-.73.06-1.84.09-3.35.09-.72,0-1.09-.25-1.09-.76s.73-.7,2.18-.75c2.23-.06,3.54-.32,3.93-.8s.59-2.08.59-4.83V46.69c0-2.75-.14-4.28-.43-4.62-.33-.56-1.89-.89-4.66-1-1.07-.05-1.61-.24-1.61-.59s.34-.66,1-.66h11.38c.84,0,2.47,0,4.89.08l3.21-.08c.9,0,1.35.24,1.35.71s-1.25.69-3.73.79c-1.41.06-2.28.31-2.59.76s-.46,1.62-.46,3.51V90.27c0,3.18.14,4.91.41,5.19.62.61,2.43,1,5.45,1.08.61,0,.92.24.92.71"/><path class="ff752ff9-8d2f-40c4-9800-93c7bdf75bea" d="M261.25,81.65a16.06,16.06,0,0,1-5.48,12.26A18.74,18.74,0,0,1,242.59,99a27.67,27.67,0,0,1-10.79-2.76,7,7,0,0,0-2.51-.75q-1,0-1.26,2.31c-.05.8-.41,1.2-1.09,1.2s-.83-.34-.83-1a4.9,4.9,0,0,1,.08-1,72.3,72.3,0,0,0,.67-9.45c0-.56-.05-2.12-.17-4.69a9.3,9.3,0,0,1-.08-1.34c0-.84.33-1.25,1-1.25s.94.67,1.17,2q2.18,15,14.14,15c3.4,0,6-1,7.91-2.89s2.8-4.64,2.8-8.16a12.2,12.2,0,0,0-2.72-8c-1.81-2.2-4.93-4.39-9.33-6.57q-8-3.93-11.05-7.61A13.73,13.73,0,0,1,227.45,55a15.61,15.61,0,0,1,4.47-11.46A15.32,15.32,0,0,1,243.26,39a23.69,23.69,0,0,1,7.87,1.93,8.36,8.36,0,0,0,2.59.66,1.65,1.65,0,0,0,1.22-.33,4.51,4.51,0,0,0,.54-1.76.89.89,0,0,1,.92-.83c.56,0,.84.33.84,1a4.08,4.08,0,0,1-.09,1,41.6,41.6,0,0,0-.25,4.86,37.77,37.77,0,0,0,.42,6.36l.08,1.34c.06.61-.19.92-.75.92s-1-.64-1.25-1.93A15,15,0,0,0,251.05,44a10.87,10.87,0,0,0-7.7-3.31,8.65,8.65,0,0,0-6.66,2.68,10.37,10.37,0,0,0-2.46,7.28,11.1,11.1,0,0,0,3.59,8.62q2,1.85,8.71,5.19,7.86,3.93,11.29,8a13.92,13.92,0,0,1,3.43,9.25"/><path class="ff752ff9-8d2f-40c4-9800-93c7bdf75bea" d="M369.31,84.49c0,.23-.06,1.59-.17,4.1s-.16,4.91-.16,7.2v2.76q-8.21-.49-32.47-.5H326.05c-1.06,0-1.59-.22-1.59-.68,0-.29.17-.47.5-.52.17,0,1.23-.07,3.18-.22,1.45-.12,2.33-.42,2.64-.92a10,10,0,0,0,.46-3.95V44.59c0-1.62-.24-2.59-.71-2.9s-2-.46-4.57-.46c-.89,0-1.33-.24-1.33-.71s.61-.71,1.84-.71H362a28.45,28.45,0,0,0,4.6-.34q.17,3.6.75,10l.34,3.6a6.32,6.32,0,0,1,.08,1.09q0,.84-.75.84c-.62,0-1.06-.71-1.34-2.11q-1.59-7.58-5.19-9.6-2.69-1.52-14.06-1.52h-6.86v24.6h2q9.38,0,11.42-1.42c1.37-.95,2.3-3.71,2.81-8.28.1-1.18.41-1.76.91-1.76s.93.5.93,1.51-.06,2.48-.17,4.43-.17,3.43-.17,4.44q0,9,.27,12.3c0,.56.07,1,.07,1.42,0,.73-.31,1.09-.92,1.09-.39,0-.66-.24-.79-.71s-.38-2-.71-4.65c-.44-3.29-1.81-5.33-4.08-6.11q-1.5-.5-7.83-.5h-3.75v28q18.41,0,21.59-.75,5.52-1.25,6.28-10.58c.11-1.37.47-2.06,1.08-2.06s.84.58.84,1.75"/><path class="ff752ff9-8d2f-40c4-9800-93c7bdf75bea" d="M119.28,191a12.28,12.28,0,0,0-1.94-7.37,3.94,3.94,0,0,0-3.38-1.66,4.07,4.07,0,0,0-3.2,1.27q-2.08,2.32-2.08,7.58a12.12,12.12,0,0,0,1.45,6.47,4.6,4.6,0,0,0,4.09,2.3,4,4,0,0,0,3.69-2.17,13,13,0,0,0,1.37-6.42m2.89-.13a9.56,9.56,0,0,1-2.31,6.5A7.23,7.23,0,0,1,114.2,200a7.72,7.72,0,0,1-6-2.7,9.53,9.53,0,0,1-2.42-6.64,9.4,9.4,0,0,1,2.33-6.59,7.73,7.73,0,0,1,6-2.57,7.31,7.31,0,0,1,5.75,2.68,9.85,9.85,0,0,1,2.33,6.66"/><path class="ff752ff9-8d2f-40c4-9800-93c7bdf75bea" d="M152.76,199.46c0,.15-.24.23-.72.23h-7.33q-.75,0-.75-.24c0-.15.2-.22.6-.2h1.16a2.34,2.34,0,0,0,.75,0,.44.44,0,0,0,.38-.49,5.39,5.39,0,0,0-.64-1.7l-2.74-5.57L140.22,197a6.42,6.42,0,0,0-.87,1.73c0,.31.28.5.85.55h1.16c.31,0,.46.08.46.23s-.13.21-.38.21h-5.11c-.28,0-.41-.08-.41-.23s.22-.26.67-.31l.93-.1a1.78,1.78,0,0,0,.64-.34,41.53,41.53,0,0,0,3.17-5.05c.65-1.14,1.23-2.13,1.74-3l-2.92-5.54c-.61-1.13-1-1.86-1.26-2.2a1.78,1.78,0,0,0-.73-.66,11.41,11.41,0,0,0-1.63-.07c-.2,0-.31-.08-.31-.21s.14-.29.42-.29l2.34.06,1.22,0a30,30,0,0,0,3.33-.08h.36c.36,0,.54.08.54.21s-.31.29-.91.29c-1.13,0-1.7.12-1.7.41a44.87,44.87,0,0,0,2.92,6.06c.7-1,1.47-2.27,2.3-3.69a12.61,12.61,0,0,0,1.26-2.39c0-.26-.48-.39-1.42-.39-.46,0-.7-.08-.7-.24s.17-.26.49-.26l1,0c.43,0,.76,0,1,0l1.2,0,1.25,0h.24c.29,0,.44.08.44.22s-.12.22-.34.22l-.83,0a2,2,0,0,0-1.2.31,8.05,8.05,0,0,0-1.09,1.66q-1,1.82-2.94,4.78l-.29.45c.12.22,1.29,2.48,3.49,6.78a11.23,11.23,0,0,0,1.62,2.65,3,3,0,0,0,1.94.39c.42,0,.64.08.64.24"/><path class="ff752ff9-8d2f-40c4-9800-93c7bdf75bea" d="M179.18,186.07c0,.24-.09.36-.26.36s-.29-.22-.36-.65a4.6,4.6,0,0,0-1.27-2.75,3.41,3.41,0,0,0-1.91-.68c-.3,0-1,0-2.06,0-.79,0-1.74,0-2.84.08V190c2.21,0,3.56-.12,4.08-.42s.82-1.15.93-2.54c0-.4.14-.59.31-.59s.26.12.26.38a2.21,2.21,0,0,1,0,.39c-.05,1.19-.08,2.28-.08,3.3,0,1.31,0,2.34.09,3.1a2.05,2.05,0,0,1,0,.31c0,.2-.09.3-.26.3a.24.24,0,0,1-.26-.15c0-.1-.09-.5-.18-1.19-.13-1-.4-1.7-.81-2a5.08,5.08,0,0,0-2.4-.38c-.63,0-1.19,0-1.67.05v7.68a.91.91,0,0,0,.59,1,4.46,4.46,0,0,0,1.25.08c.27,0,.41.07.41.2s-.17.24-.52.24h-5.88c-.33,0-.49-.07-.49-.21s.3-.22.89-.26.94-.12,1-.25a2.44,2.44,0,0,0,.16-1.2V183c0-.31-.11-.5-.28-.58a4.27,4.27,0,0,0-1.34-.14c-.28,0-.42-.09-.42-.26s.16-.23.47-.23h7.07a51,51,0,0,0,5.33-.16c0,.22.07.87.16,1.94.05.72.12,1.36.2,1.93a3.89,3.89,0,0,1,.06.62"/><path class="ff752ff9-8d2f-40c4-9800-93c7bdf75bea" d="M206.68,191a12.28,12.28,0,0,0-1.94-7.37,3.94,3.94,0,0,0-3.38-1.66,4.07,4.07,0,0,0-3.2,1.27q-2.08,2.32-2.08,7.58a12.12,12.12,0,0,0,1.45,6.47,4.6,4.6,0,0,0,4.09,2.3,4,4,0,0,0,3.69-2.17,13,13,0,0,0,1.37-6.42m2.89-.13a9.56,9.56,0,0,1-2.31,6.5A7.23,7.23,0,0,1,201.6,200a7.72,7.72,0,0,1-6-2.7,9.53,9.53,0,0,1-2.42-6.64,9.4,9.4,0,0,1,2.33-6.59,7.73,7.73,0,0,1,6-2.57,7.31,7.31,0,0,1,5.75,2.68,9.85,9.85,0,0,1,2.33,6.66"/><path class="ff752ff9-8d2f-40c4-9800-93c7bdf75bea" d="M233.53,186q0-3.69-3.2-3.69a2,2,0,0,0-1.16.24,1,1,0,0,0-.31.82v6.55a5.39,5.39,0,0,0,3.57-.9,3.73,3.73,0,0,0,1.1-3m5.34,12.93c0,.72-.6,1.08-1.81,1.08a3.58,3.58,0,0,1-3.14-1.68,4,4,0,0,1-.64-1.39c-.09-.45-.23-1.59-.42-3.41a3.13,3.13,0,0,0-1.06-2.33,5.09,5.09,0,0,0-2.94-.73v8.12c0,.35.28.56.83.65l1.18.05c.22,0,.34.07.34.2s-.15.24-.44.24h-6.06q-.57,0-.57-.24c0-.12.25-.19.75-.2.81,0,1.24-.13,1.32-.31a2.76,2.76,0,0,0,.1-1V183.72a2.1,2.1,0,0,0-.22-1.24,2.67,2.67,0,0,0-1.33-.23c-.43,0-.64-.08-.64-.23s.13-.26.41-.26l.23,0,3.43.07,1.45,0c.68-.05,1.17-.07,1.44-.07a6.13,6.13,0,0,1,3.8,1.07,3.46,3.46,0,0,1,1.41,2.9,3.65,3.65,0,0,1-1.45,3,6.93,6.93,0,0,1-3.92,1.39c-.15,0-.24,0-.25.07s.08.1.25.1a5.48,5.48,0,0,1,3.73,1.91q1,1.42,1.36,5.18c.13,1.42.62,2.12,1.44,2.12q.39,0,.39-.15a.05.05,0,0,0,0-.05,1.15,1.15,0,0,1-.13-.47q0-.54.57-.54c.41,0,.62.22.62.65"/><path class="ff752ff9-8d2f-40c4-9800-93c7bdf75bea" d="M266.13,190.63c0-2.86-.55-5-1.67-6.3s-2.86-2-5.24-2c-1.15,0-1.85.12-2.08.36a2.56,2.56,0,0,0-.16,1.24V197.7a4.92,4.92,0,0,0,0,.88.42.42,0,0,0,.22.26,7.05,7.05,0,0,0,2.6.31,5.66,5.66,0,0,0,4.49-2q1.8-2.07,1.8-6.55m2.89.11a8.56,8.56,0,0,1-3.17,7.09,9.64,9.64,0,0,1-6.21,1.86h-7c-.32,0-.48-.09-.48-.26s.27-.23.82-.23c.71,0,1.14-.13,1.32-.39a2.87,2.87,0,0,0,.1-1v-13.9a3,3,0,0,0-.19-1.47c-.13-.14-.58-.21-1.33-.21-.4,0-.6-.09-.6-.28s.15-.21.44-.21h4.49a23.22,23.22,0,0,1,6.58.65,7,7,0,0,1,3.79,3.06,9.69,9.69,0,0,1,1.44,5.27"/></svg>