<?xml version="1.0" encoding="UTF-8"?>
<svg width="42px" height="42px" viewBox="0 0 42 42" version="1.1" xmlns="http://www.w3.org/2000/svg" xmlns:xlink="http://www.w3.org/1999/xlink">
    <!-- Generator: Sketch 59.1 (86144) - https://sketch.com -->
    <title>Group</title>
    <desc>Created with Sketch.</desc>
    <g id="mail-&amp;-newsletter-(desktop-&amp;-mobile)" stroke="none" stroke-width="1" fill="none" fill-rule="evenodd">
        <g id="mail-desktop" transform="translate(-334.000000, -1149.000000)">
            <g id="Group" transform="translate(335.000000, 1150.000000)">
                <circle id="Oval-Copy-2" stroke="#BCC0C4" cx="20" cy="20" r="20"></circle>
                <path d="M26.5,16.3021603 C26.1175384,16.8611427 25.6544912,17.3395395 25.1121376,17.7335134 C25.1172541,17.8128198 25.1210915,17.9330586 25.1210915,18.0929505 C25.1210915,18.8348493 25.012365,19.5767482 24.7949119,20.3148096 C24.5787379,21.0554292 24.2487209,21.7653496 23.8061399,22.4432916 C23.3635588,23.1237919 22.8365549,23.7249858 22.226407,24.2468732 C21.6149801,24.7700398 20.8781978,25.185759 20.0160603,25.4978681 C19.1539227,25.8086981 18.2316657,25.9647527 17.2492894,25.9647527 C15.701535,25.9647527 14.2855316,25.5503127 13,24.7227118 C13.2008243,24.7457362 13.423394,24.7559693 13.6689881,24.7559693 C14.9532405,24.7559693 16.0980671,24.3619955 17.1034679,23.5753269 C16.5048323,23.5638147 15.9675952,23.3796191 15.4930358,23.0214611 C15.0184764,22.6658613 14.6935759,22.2104889 14.5170551,21.6566231 C14.7050881,21.6847641 14.8790506,21.6988346 15.0389426,21.6988346 C15.2845367,21.6988346 15.5275725,21.6668562 15.7667709,21.6041785 C15.127203,21.4724275 14.5976407,21.1539227 14.1780841,20.648664 C13.7585276,20.1434053 13.5487493,19.5575611 13.5487493,18.8885731 L13.5487493,18.8553155 C13.9376066,19.0727686 14.3533258,19.18917 14.7997442,19.2057987 C14.4223991,18.9550881 14.1230813,18.6263502 13.8992325,18.2208641 C13.677942,17.8153781 13.5666572,17.3753553 13.5666572,16.902075 C13.5666572,16.3993746 13.6920125,15.9337692 13.9427231,15.5052587 C14.6334565,16.355884 15.4738488,17.0376634 16.4651791,17.5493178 C17.4565094,18.059693 18.516913,18.3436612 19.6476691,18.4012223 C19.6016202,18.1837692 19.5785958,17.9727118 19.5785958,17.7667709 C19.5785958,17.0018476 19.8484935,16.3494883 20.3882888,15.809693 C20.9280841,15.2698977 21.5804434,15 22.3453667,15 C23.1448266,15 23.8189312,15.291643 24.3676805,15.8749289 C24.9893405,15.7546902 25.5751848,15.5308414 26.1239341,15.2059409 C25.9115975,15.8621376 25.5061114,16.3712337 24.9061967,16.7306708 C25.4383172,16.6743889 25.9691586,16.5311256 26.5,16.3021603" id="Fill-1" fill="#BCC0C4"></path>
            </g>
        </g>
    </g>
</svg>