<?xml version="1.0" encoding="UTF-8"?>
<svg width="42px" height="42px" viewBox="0 0 42 42" version="1.1" xmlns="http://www.w3.org/2000/svg" xmlns:xlink="http://www.w3.org/1999/xlink">
    <!-- Generator: Sketch 59.1 (86144) - https://sketch.com -->
    <title>Group 4</title>
    <desc>Created with Sketch.</desc>
    <g id="mail-&amp;-newsletter-(desktop-&amp;-mobile)" stroke="none" stroke-width="1" fill="none" fill-rule="evenodd">
        <g id="mail-desktop" transform="translate(-499.000000, -1149.000000)">
            <g id="Group-4" transform="translate(500.000000, 1150.000000)">
                <circle id="Oval-Copy-2" stroke="#BCC0C4" cx="20" cy="20" r="20"></circle>
                <path d="M22.1550759,20.4409926 L22.6794564,20.1905512 L18.3709033,18.0434741 L18.3709033,22.3376283 L22.1550759,20.4409926 Z M27.8129496,17.2906228 C27.9376499,18.1259365 28,18.9490336 28,19.7614412 L28,20.9067526 L27.8129496,23.3760439 C27.7138289,24.067812 27.501199,24.5686948 27.1766587,24.8786924 C26.8265388,25.2131234 26.3021583,25.4284419 25.6019185,25.523121 C24.9272582,25.5704605 24.1215028,25.6071105 23.186251,25.6300167 C22.2494005,25.65445 21.4804157,25.6666667 20.8808953,25.6666667 L19.9824141,25.6666667 C17.2086331,25.6422334 15.3972822,25.5948938 14.5483613,25.523121 C14.1486811,25.4757814 13.8864908,25.4391315 13.7617906,25.4162252 C13.6370903,25.3917919 13.4804157,25.3322357 13.2933653,25.2375567 C13.1063149,25.1413505 12.9432454,25.0222381 12.8057554,24.8786924 C12.6682654,24.7366738 12.5435651,24.5396803 12.4316547,24.2892388 C12.3197442,24.0372703 12.2509992,23.8173706 12.2254197,23.6264853 L12.1502798,23.3760439 C12.0511591,22.5407301 12,21.717633 12,20.9067526 L12,19.7614412 L12.1502798,17.2906228 C12.2509992,16.5988547 12.4636291,16.0979718 12.7881695,15.7879742 C13.1366906,15.4306371 13.6738609,15.2153185 14.3980815,15.1435457 C15.0727418,15.0962062 15.8721023,15.0610833 16.7961631,15.03665 C17.7218225,15.0122167 18.4828137,15 19.0823341,15 L19.9824141,15 C22.2302158,15 24.1039169,15.0488666 25.6019185,15.1435457 C26.3021583,15.2153185 26.8265388,15.4306371 27.1766587,15.7879742 C27.2757794,15.8841804 27.363709,15.9971844 27.4388489,16.1285135 C27.5139888,16.2598425 27.5763389,16.3911716 27.6258993,16.5225006 C27.6754596,16.6538296 27.7138289,16.7790503 27.7378098,16.8981627 C27.7633893,17.0172751 27.7873701,17.1119542 27.8129496,17.183727 L27.8129496,17.2906228 Z" id="Fill-1" fill="#BCC0C4"></path>
            </g>
        </g>
    </g>
</svg>