<?xml version="1.0" standalone="no"?>
<!DOCTYPE svg PUBLIC "-//W3C//DTD SVG 1.1//EN" "http://www.w3.org/Graphics/SVG/1.1/DTD/svg11.dtd" >
<svg xmlns="http://www.w3.org/2000/svg" xmlns:xlink="http://www.w3.org/1999/xlink" version="1.1">
<metadata>
Created by FontForge 20170731 at Tue Sep  5 11:37:48 2017
 By Aleksey,,,
Copyright (c) 2017 by Timo Gaessner. All rights reserved.
</metadata>
<defs>
<font id="MaisonNeueExtended-Light" horiz-adv-x="720" >
  <font-face 
    font-family="Maison Neue Ext Light"
    font-weight="300"
    font-stretch="expanded"
    units-per-em="1000"
    panose-1="2 11 3 5 4 0 0 0 0 0"
    ascent="800"
    descent="-200"
    x-height="530"
    cap-height="700"
    bbox="-884 -300 2592 997"
    underline-thickness="50"
    underline-position="-220"
    unicode-range="U+000D-FEFF"
  />
<missing-glyph horiz-adv-x="691" 
d="M59 -5v423q-2 125 84.5 209.5t207.5 82.5q123 2 209.5 -82.5t84.5 -209.5v-423h-28l-65 65l-68 -65l-63 65l-71 -65l-69 65l-63 -65l-67 65l-66 -65h-26zM159 300l63 63l64 -63l14 14l-64 63l64 64l-14 14l-64 -64l-63 64l-14 -14l63 -64l-63 -63zM419 300l63 63l64 -63
l14 14l-64 63l64 64l-14 14l-64 -64l-63 64l-14 -14l63 -64l-63 -63z" />
    <glyph glyph-name="fi" unicode="fi" horiz-adv-x="561" 
d="M420 701h80v-76h-80v76zM177 530h317v-530h-61v479h-256v-479h-61v479h-94v51h94v58q0 52 30 80t86 28h104v-54h-100q-59 0 -59 -59v-53z" />
    <glyph glyph-name="fl" unicode="fl" horiz-adv-x="565" 
d="M433 730h61v-730h-61v479h-256v-479h-61v479h-94v51h94v58q0 52 30 80t86 28h104v-54h-100q-59 0 -59 -59v-53h256v200z" />
    <glyph glyph-name="_381" unicode="WWW" horiz-adv-x="2612" 
d="M184 0l-164 700h66l144 -610h2l237 610h61l238 -610h2l236 610h62l238 -610h2l236 610h62l237 -610h2l237 610h62l237 -610h2l143 610h66l-163 -700h-77l-238 608h-2l-239 -608h-59l-238 608h-2l-239 -608h-58l-239 608h-2l-239 -608h-58l-238 608h-2l-239 -608h-76z" />
    <glyph glyph-name="_384" unicode="www" horiz-adv-x="2130" 
d="M183 0l-156 530h61l128 -443h2l182 443h58l182 -443h2l182 443h58l182 -443h2l182 443h58l182 -443h2l182 443h58l182 -443h2l129 443h60l-156 -530h-54l-191 464h-2l-191 -464h-40l-191 464h-2l-190 -464h-41l-191 464h-2l-190 -464h-41l-191 464h-2l-190 -464h-55z" />
    <glyph glyph-name=".notdef" horiz-adv-x="691" 
d="M59 -5v423q-2 125 84.5 209.5t207.5 82.5q123 2 209.5 -82.5t84.5 -209.5v-423h-28l-65 65l-68 -65l-63 65l-71 -65l-69 65l-63 -65l-67 65l-66 -65h-26zM159 300l63 63l64 -63l14 14l-64 63l64 64l-14 14l-64 -64l-63 64l-14 -14l63 -64l-63 -63zM419 300l63 63l64 -63
l14 14l-64 63l64 64l-14 14l-64 -64l-63 64l-14 -14l63 -64l-63 -63z" />
    <glyph glyph-name=".null" horiz-adv-x="0" 
 />
    <glyph glyph-name="uni000D" unicode="&#xd;" horiz-adv-x="216" 
 />
    <glyph glyph-name="space" unicode=" " horiz-adv-x="274" 
 />
    <glyph glyph-name="exclam" unicode="!" horiz-adv-x="384" 
d="M159 193v507h66v-507h-66zM141 0v100h102v-100h-102z" />
    <glyph glyph-name="quotedbl" unicode="&#x22;" horiz-adv-x="378" 
d="M98 488v212h57v-212h-57zM223 488v212h57v-212h-57z" />
    <glyph glyph-name="numbersign" unicode="#" horiz-adv-x="851" 
d="M775 460h-164l-38 -215h164l-9 -51h-164l-34 -194h-56l34 194h-222l-34 -194h-56l34 194h-162l8 51h163l38 215h-163l8 50h164l34 190h56l-34 -190h222l34 190h56l-34 -190h163zM517 245l38 215h-222l-38 -215h222z" />
    <glyph glyph-name="dollar" unicode="$" horiz-adv-x="698" 
d="M651 181q0 -87 -75.5 -141.5t-200.5 -54.5h-9v-95h-40v97q-124 11 -197 77.5t-82 180.5l63 9q16 -188 216 -211v297q-94 19 -143.5 37t-82.5 52q-36 36 -36 96q0 84 72 137t185 53h5v86h40v-88q106 -11 174.5 -69.5t79.5 -146.5l-62 -12q-12 72 -62 116.5t-130 54.5v-264
q99 -20 154 -40.5t92 -59.5q39 -42 39 -111zM326 400v259h-6q-87 0 -140 -36t-53 -96q3 -54 48.5 -79.5t150.5 -47.5zM589 179q-3 67 -54.5 97.5t-168.5 55.5v-291h10q98 0 155.5 37.5t57.5 100.5z" />
    <glyph glyph-name="percent" unicode="%" horiz-adv-x="1104" 
d="M341 -67l-51 28l488 811l49 -30zM68 490q0 98 54.5 158.5t142.5 60.5q89 0 143.5 -60.5t54.5 -158.5t-54.5 -158.5t-143.5 -60.5q-88 0 -142.5 60.5t-54.5 158.5zM405 490q0 77 -38 122.5t-102 45.5t-102 -45.5t-38 -122.5t38 -122.5t102 -45.5t102 45.5t38 122.5z
M642 210q0 98 54.5 158.5t142.5 60.5q89 0 143.5 -60.5t54.5 -158.5t-54.5 -158.5t-143.5 -60.5q-88 0 -142.5 60.5t-54.5 158.5zM979 210q0 77 -38 122.5t-102 45.5t-102 -45.5t-38 -122.5t38 -122.5t102 -45.5t102 45.5t38 122.5z" />
    <glyph glyph-name="ampersand" unicode="&#x26;" horiz-adv-x="753" 
d="M721 83l-34 -45l-88 69q-28 -59 -97 -90.5t-169 -31.5q-122 0 -193.5 54t-71.5 146q0 133 160 215q-52 43 -73.5 79t-21.5 79q0 69 55.5 113t143.5 44t144 -43t68 -120l-59 -10q-10 58 -49.5 88.5t-103.5 30.5q-63 0 -101 -28t-38 -75q0 -34 22 -64.5t78 -74.5l266 -209
v180h56v-224zM554 143l-281 221q-145 -67 -145 -176q0 -67 56.5 -108t148.5 -41q87 0 145 27.5t76 76.5z" />
    <glyph glyph-name="quotesingle" unicode="'" horiz-adv-x="253" 
d="M98 488v212h57v-212h-57z" />
    <glyph glyph-name="parenleft" unicode="(" horiz-adv-x="364" 
d="M98 295q0 270 198 489l41 -33q-91 -106 -134 -216.5t-43 -239.5q0 -131 43 -240.5t134 -215.5l-41 -33q-198 216 -198 489z" />
    <glyph glyph-name="parenright" unicode=")" horiz-adv-x="364" 
d="M68 -194l-41 33q91 106 134 215.5t43 240.5q0 129 -43 239.5t-134 216.5l41 33q198 -219 198 -489q0 -273 -198 -489z" />
    <glyph glyph-name="asterisk" unicode="*" horiz-adv-x="477" 
d="M133 348l-36 31l97 119l-126 76l24 39l123 -71v150h47v-150l123 71l25 -39l-128 -76l99 -119l-37 -31l-105 131z" />
    <glyph glyph-name="plus" unicode="+" horiz-adv-x="590" 
d="M522 394v-52h-200v-211h-54v211h-200v52h200v206h54v-206h200z" />
    <glyph glyph-name="comma" unicode="," horiz-adv-x="297" 
d="M101 -88v37q40 7 40 51h-43v94h102v-82q0 -94 -99 -100z" />
    <glyph glyph-name="hyphen" unicode="-" horiz-adv-x="362" 
d="M58 268v58h247v-58h-247z" />
    <glyph glyph-name="period" unicode="." horiz-adv-x="297" 
d="M98 0v100h102v-100h-102z" />
    <glyph glyph-name="slash" unicode="/" horiz-adv-x="527" 
d="M64 -38l-41 23l441 754l40 -24z" />
    <glyph glyph-name="zero" unicode="0" horiz-adv-x="717" 
d="M47 336q0 157 86 253.5t226 96.5q139 0 225 -96.5t86 -253.5t-86 -253.5t-225 -96.5q-140 0 -226 96.5t-86 253.5zM610 336q0 134 -69 215t-182 81q-115 0 -183.5 -80.5t-68.5 -215.5t68.5 -215.5t183.5 -80.5q113 0 182 81t69 215z" />
    <glyph glyph-name="one" unicode="1" horiz-adv-x="414" 
d="M248 0v603l-213 -124v65l221 128h52v-672h-60z" />
    <glyph glyph-name="two" unicode="2" horiz-adv-x="671" 
d="M126 54h475v-54h-538v53q0 97 42 153q29 36 78 63q46 25 160 61q119 36 162 71.5t43 93.5q0 60 -52.5 98.5t-136.5 38.5q-103 0 -164.5 -50.5t-69.5 -142.5l-59 6q11 112 89 176.5t204 64.5q109 0 179.5 -54t70.5 -137q0 -77 -52 -124t-185 -89q-100 -32 -147 -54
q-47 -23 -70 -53q-17 -22 -23 -46t-6 -75z" />
    <glyph glyph-name="three" unicode="3" horiz-adv-x="651" 
d="M53 217l60 10q6 -91 61 -139.5t156 -48.5q93 0 145.5 40.5t52.5 112.5q0 144 -183 144h-90v51h90q78 0 121 32t43 89q0 56 -49.5 90t-130.5 34q-86 0 -139.5 -40t-65.5 -112l-59 10q13 88 86 142q71 54 178 54q105 0 171 -48.5t66 -127.5q0 -100 -105 -142v-2
q127 -43 127 -176q0 -93 -70 -148.5t-188 -55.5q-123 0 -196 60.5t-81 170.5z" />
    <glyph glyph-name="four" unicode="4" horiz-adv-x="654" 
d="M446 0v136h-434v52l398 484h97v-482h110v-54h-110v-136h-61zM81 190h365v438h-2z" />
    <glyph glyph-name="five" unicode="5" horiz-adv-x="665" 
d="M44 190l58 16q38 -167 236 -167q104 0 165.5 50t61.5 134q0 83 -62 133.5t-165 50.5q-131 0 -223 -91l-54 14l73 342h429v-54h-382l-48 -226h2q88 68 207 68q127 0 205.5 -65.5t78.5 -171.5t-79.5 -171.5t-208.5 -65.5q-119 0 -196.5 54t-97.5 150z" />
    <glyph glyph-name="six" unicode="6" horiz-adv-x="675" 
d="M638 217q0 -102 -77 -166.5t-199 -64.5q-149 0 -232 88.5t-83 250.5q0 158 87.5 259.5t224.5 101.5q97 0 166.5 -48t91.5 -131l-58 -16q-21 68 -72.5 105t-125.5 37q-113 0 -184.5 -89t-69.5 -227v-15h5q26 64 96 105q70 40 160 40q118 0 194 -64t76 -166zM578 217
q0 83 -58.5 132t-157.5 49q-95 0 -160 -53.5t-65 -130.5t64 -126t161 -49t156.5 49t59.5 129z" />
    <glyph glyph-name="seven" unicode="7" horiz-adv-x="582" 
d="M125 0l349 616v2h-455v54h525v-52l-349 -620h-70z" />
    <glyph glyph-name="eight" unicode="8" horiz-adv-x="645" 
d="M29 184q0 64 44.5 112t121.5 67v2q-56 19 -88 56.5t-32 87.5q0 78 70 127.5t178 49.5q107 0 177 -49.5t70 -127.5q0 -50 -32 -87.5t-88 -56.5v-2q77 -19 121.5 -67t44.5 -112q0 -90 -78.5 -144.5t-214.5 -54.5t-215 54.5t-79 144.5zM509 507q0 57 -51.5 91.5t-134.5 34.5
t-134.5 -34.5t-51.5 -91.5q0 -54 51 -87t135 -33t135 33.5t51 86.5zM554 186q0 65 -64 106.5t-167 41.5q-105 0 -168.5 -41.5t-63.5 -106.5q0 -69 61 -107.5t171 -38.5q108 0 169.5 39.5t61.5 106.5z" />
    <glyph glyph-name="nine" unicode="9" horiz-adv-x="652" 
d="M605 367q0 -187 -70.5 -284.5t-206.5 -97.5q-98 0 -164 47t-88 133l58 19q39 -143 194 -143q206 0 212 294v10h-2q-27 -54 -88.5 -84.5t-143.5 -30.5q-122 0 -195.5 62.5t-73.5 166.5q0 99 77.5 163t199.5 64q136 0 213.5 -83t77.5 -236zM524 458q0 74 -59.5 123
t-150.5 49q-96 0 -155.5 -47.5t-59.5 -124.5q0 -80 57 -126.5t156 -46.5q93 0 152.5 48t59.5 125z" />
    <glyph glyph-name="colon" unicode=":" horiz-adv-x="297" 
d="M98 353v100h102v-100h-102zM98 0v100h102v-100h-102z" />
    <glyph glyph-name="semicolon" unicode=";" horiz-adv-x="297" 
d="M101 -88v37q40 7 40 51h-43v94h102v-82q0 -94 -99 -100zM98 353v100h102v-100h-102z" />
    <glyph glyph-name="less" unicode="&#x3c;" horiz-adv-x="552" 
d="M454 92l-386 233v53l386 233l30 -47l-355 -213l355 -212z" />
    <glyph glyph-name="equal" unicode="=" horiz-adv-x="557" 
d="M68 420v54h422v-54h-422zM68 236v53h422v-53h-422z" />
    <glyph glyph-name="greater" unicode="&#x3e;" horiz-adv-x="552" 
d="M98 92l-30 47l355 212l-355 213l30 47l386 -233v-53z" />
    <glyph glyph-name="question" unicode="?" horiz-adv-x="653" 
d="M250 181v64q0 54 27 89t93 67q74 35 102 64.5t28 69.5q0 54 -46 88t-118 34q-87 0 -139 -45.5t-57 -126.5l-62 6q3 102 73 163t184 61q99 0 164.5 -51t65.5 -130q0 -55 -37 -97t-123 -81q-54 -26 -73 -50.5t-19 -65.5v-59h-63zM233 0v100h102v-100h-102z" />
    <glyph glyph-name="at" unicode="@" horiz-adv-x="850" 
d="M68 291q-2 154 101 261t256 104q163 0 260.5 -97t97.5 -255q0 -104 -36 -159t-102 -55q-34 0 -58.5 15.5t-32.5 42.5h-2q-17 -29 -57 -45.5t-91 -16.5q-69 0 -108.5 29.5t-39.5 81.5q0 45 29.5 72.5t92.5 42.5q103 25 128 37t28 38q0 27 -27 43.5t-72 16.5
q-105 0 -122 -85l-52 8q8 57 56 91t118 34q71 0 112 -33.5t41 -90.5v-149q0 -51 12 -68.5t46 -17.5q41 0 63.5 43.5t22.5 124.5q0 138 -82.5 222t-224.5 84q-132 2 -220 -91.5t-86 -227.5q0 -153 82.5 -235.5t230.5 -82.5q118 0 225 52l20 -43q-116 -56 -245 -56
q-168 0 -266 96.5t-98 268.5zM535 220v106h-1q-10 -14 -37.5 -25t-99.5 -29q-48 -12 -67.5 -28t-19.5 -44q0 -66 98 -66q58 0 92.5 23.5t34.5 62.5z" />
    <glyph glyph-name="A" unicode="A" horiz-adv-x="711" 
d="M638 0l-70 157h-424l-70 -157h-69l317 700h67l317 -700h-68zM168 212h376l-187 420h-2z" />
    <glyph glyph-name="B" unicode="B" horiz-adv-x="714" 
d="M91 0v700h337q96 0 151 -47t55 -129q0 -54 -26.5 -94t-70.5 -55v-2q57 -15 90 -60t33 -110q0 -100 -61.5 -151.5t-180.5 -51.5h-327zM154 396h258q158 0 158 126q0 120 -154 120h-262v-246zM154 58h254q96 0 142 35t46 109q0 72 -44 105.5t-139 33.5h-259v-283z" />
    <glyph glyph-name="C" unicode="C" horiz-adv-x="771" 
d="M47 350q-2 156 102 262t255 103q122 0 213 -64t116 -172l-62 -15q-24 92 -95.5 142.5t-171.5 50.5q-127 0 -209.5 -85.5t-82.5 -221.5t82.5 -221.5t209.5 -85.5q101 0 172.5 54.5t95.5 155.5l62 -16q-25 -116 -115.5 -184t-214.5 -68q-151 -3 -255 103t-102 262z" />
    <glyph glyph-name="D" unicode="D" horiz-adv-x="751" 
d="M91 0v700h271q163 0 252.5 -91.5t89.5 -258.5q0 -170 -88.5 -260t-254.5 -90h-270zM155 58h206q136 0 206.5 74t70.5 218q0 143 -70.5 217.5t-205.5 74.5h-207v-584z" />
    <glyph glyph-name="E" unicode="E" horiz-adv-x="642" 
d="M91 0v700h494v-58h-430v-253h399v-55h-399v-276h430v-58h-494z" />
    <glyph glyph-name="F" unicode="F" horiz-adv-x="633" 
d="M91 0v700h495v-58h-431v-279h400v-56h-400v-307h-64z" />
    <glyph glyph-name="G" unicode="G" horiz-adv-x="774" 
d="M47 350q-2 155 100.5 261t252.5 104q120 0 208.5 -66.5t114.5 -172.5l-63 -15q-25 92 -94 144t-166 52q-126 0 -207 -86t-81 -221q0 -134 81.5 -220.5t206.5 -86.5q117 0 189.5 67t74.5 168h-254v55h317v-48q0 -131 -91 -215.5t-236 -84.5q-150 -2 -252.5 104t-100.5 261
z" />
    <glyph glyph-name="H" unicode="H" horiz-adv-x="755" 
d="M91 0v700h64v-312h445v312h64v-700h-64v332h-445v-332h-64z" />
    <glyph glyph-name="I" unicode="I" horiz-adv-x="245" 
d="M91 0v700h64v-700h-64z" />
    <glyph glyph-name="J" unicode="J" horiz-adv-x="586" 
d="M30 218l62 8q10 -96 52 -139.5t126 -43.5q167 0 167 214v443h64v-450q0 -128 -59 -196.5t-172 -68.5q-217 0 -240 233z" />
    <glyph glyph-name="K" unicode="K" horiz-adv-x="651" 
d="M91 0v700h64v-393h2l386 393h91l-302 -303l311 -397h-81l-273 354h-2l-132 -136v-218h-64z" />
    <glyph glyph-name="L" unicode="L" horiz-adv-x="587" 
d="M91 0v700h64v-642h397v-58h-461z" />
    <glyph glyph-name="M" unicode="M" horiz-adv-x="967" 
d="M91 0v700h86l306 -601h2l305 601h86v-700h-64v612h-2l-313 -612h-27l-313 612h-2v-612h-64z" />
    <glyph glyph-name="N" unicode="N" horiz-adv-x="764" 
d="M91 0v700h69l448 -609h2v609h64v-700h-70l-447 609h-2v-609h-64z" />
    <glyph glyph-name="O" unicode="O" horiz-adv-x="808" 
d="M47 350q-1 158 101 262.5t256 102.5q153 2 255.5 -102.5t101.5 -262.5q1 -158 -101.5 -262.5t-255.5 -102.5q-154 -2 -256 102.5t-101 262.5zM696 350q0 136 -82 221.5t-210 85.5t-210 -85.5t-82 -221.5t82 -221.5t210 -85.5t210 85.5t82 221.5z" />
    <glyph glyph-name="P" unicode="P" horiz-adv-x="697" 
d="M91 0v700h342q110 0 173.5 -56.5t63.5 -155.5q0 -100 -62.5 -155.5t-174.5 -55.5h-278v-277h-64zM155 335h276q175 0 175 153q0 154 -175 154h-276v-307z" />
    <glyph glyph-name="Q" unicode="Q" horiz-adv-x="808" 
d="M673 101l76 -75l-39 -40l-77 76q-96 -77 -229 -77q-154 -2 -256 102.5t-101 262.5q-1 158 101 262.5t256 102.5q153 2 255.5 -102.5t101.5 -262.5q0 -150 -88 -249zM589 105l-170 166l40 40l170 -167q67 83 67 206q0 136 -82 221.5t-210 85.5t-210 -85.5t-82 -221.5
t82 -221.5t210 -85.5q108 0 185 62z" />
    <glyph glyph-name="R" unicode="R" horiz-adv-x="692" 
d="M442 293v-1l186 -292h-74l-183 293h-216v-293h-64v700h332q110 0 171 -53.5t61 -150.5q0 -93 -56.5 -146t-156.5 -57zM155 351h265q171 0 171 145q0 146 -174 146h-262v-291z" />
    <glyph glyph-name="S" unicode="S" horiz-adv-x="666" 
d="M37 245l63 9q20 -212 260 -212q94 0 149.5 37t55.5 100q0 64 -53 98.5t-190 61.5q-148 30 -206.5 70.5t-58.5 115.5q0 84 70 137t182 53q113 0 192.5 -60.5t92.5 -157.5l-63 -12q-12 80 -71.5 126.5t-150.5 46.5q-85 0 -137 -36t-52 -95q0 -50 46 -77.5t172 -53.5
q160 -33 225.5 -81t65.5 -134q0 -89 -74 -142.5t-196 -53.5q-143 0 -228 68.5t-94 191.5z" />
    <glyph glyph-name="T" unicode="T" horiz-adv-x="670" 
d="M303 0v642h-268v58h600v-58h-268v-642h-64z" />
    <glyph glyph-name="U" unicode="U" horiz-adv-x="754" 
d="M86 265v435h64v-433q0 -117 55 -170.5t172 -53.5t172 54t55 170v433h64v-435q0 -280 -291 -280t-291 280z" />
    <glyph glyph-name="V" unicode="V" horiz-adv-x="721" 
d="M326 0l-321 700h71l283 -625h2l284 625h71l-321 -700h-69z" />
    <glyph glyph-name="W" unicode="W" horiz-adv-x="999" 
d="M184 0l-164 700h66l144 -610h2l237 610h61l238 -610h2l143 610h66l-164 -700h-76l-238 608h-2l-239 -608h-76z" />
    <glyph glyph-name="X" unicode="X" horiz-adv-x="666" 
d="M10 0l276 355l-268 345h80l233 -303h2l231 303h85l-269 -345l276 -355h-84l-239 313h-2l-240 -313h-81z" />
    <glyph glyph-name="Y" unicode="Y" horiz-adv-x="671" 
d="M303 0v286l-303 414h76l258 -357h2l258 357h77l-304 -414v-286h-64z" />
    <glyph glyph-name="Z" unicode="Z" horiz-adv-x="735" 
d="M47 0v52l556 588v2h-523v58h608v-52l-556 -588v-2h534v-58h-619z" />
    <glyph glyph-name="bracketleft" unicode="[" horiz-adv-x="323" 
d="M91 -181v912h202v-56h-143v-800h143v-56h-202z" />
    <glyph glyph-name="backslash" unicode="\" horiz-adv-x="527" 
d="M463 -38l-440 753l40 24l441 -754z" />
    <glyph glyph-name="bracketright" unicode="]" horiz-adv-x="323" 
d="M232 -181h-202v56h143v800h-143v56h202v-912z" />
    <glyph glyph-name="asciicircum" unicode="^" horiz-adv-x="549" 
d="M471 328h-61l-135 299l-135 -299h-62l173 372h47z" />
    <glyph glyph-name="underscore" unicode="_" horiz-adv-x="610" 
d="M58 -135v51h494v-51h-494z" />
    <glyph glyph-name="grave" unicode="`" horiz-adv-x="302" 
d="M179 590l-111 110h87l80 -110h-56z" />
    <glyph glyph-name="a" unicode="a" horiz-adv-x="576" 
d="M51 138q0 70 53 107.5t181 58.5q90 14 125.5 33.5t35.5 54.5q0 45 -40.5 72t-107.5 27q-76 0 -124 -36.5t-59 -102.5l-59 13q14 83 79.5 131.5t162.5 48.5q96 0 154 -45t58 -119v-381h-59v77h-1q-26 -42 -81.5 -67t-123.5 -25q-91 0 -142.5 40.5t-51.5 112.5zM450 181
v134h-2q-13 -22 -47 -35.5t-104 -24.5q-101 -17 -143 -44t-42 -73q0 -99 144 -99q80 0 137 41.5t57 100.5z" />
    <glyph glyph-name="b" unicode="b" horiz-adv-x="673" 
d="M131 79h-2v-79h-58v730h60v-279h2q34 44 89.5 69t122.5 25q117 0 197 -80t80 -200q0 -124 -80 -202t-202 -78q-65 0 -120 25.5t-89 68.5zM562 265q0 100 -62.5 163t-157.5 63q-88 0 -149.5 -50t-61.5 -118v-116q0 -67 61 -117.5t145 -50.5q100 0 162.5 61.5t62.5 164.5z
" />
    <glyph glyph-name="c" unicode="c" horiz-adv-x="639" 
d="M51 265q0 120 80.5 200t198.5 80q96 0 169 -51q72 -50 95 -138l-59 -15q-20 73 -73.5 111.5t-131.5 38.5q-94 0 -156.5 -63t-62.5 -163t62.5 -163t156.5 -63q78 0 131.5 38.5t73.5 111.5l59 -15q-23 -88 -95 -138q-73 -51 -169 -51q-118 0 -198.5 80t-80.5 200z" />
    <glyph glyph-name="d" unicode="d" horiz-adv-x="673" 
d="M51 265q0 120 80 200t197 80q67 0 122.5 -25t89.5 -69h2v279h60v-730h-58v79h-2q-34 -43 -89 -68.5t-120 -25.5q-122 0 -202 78t-80 202zM542 207v116q0 68 -61.5 118t-149.5 50q-95 0 -157.5 -63t-62.5 -163q0 -103 62.5 -164.5t162.5 -61.5q84 0 145 50.5t61 117.5z
" />
    <glyph glyph-name="e" unicode="e" horiz-adv-x="652" 
d="M51 260q0 126 77.5 205.5t199.5 79.5q120 0 196.5 -79t76.5 -204v-22h-489q0 -89 63 -146t154 -57q143 0 211 126l48 -31q-78 -147 -259 -147q-124 0 -201 76t-77 199zM113 290h426q-3 88 -63 145.5t-148 57.5q-91 0 -150.5 -58t-64.5 -145z" />
    <glyph glyph-name="f" unicode="f" horiz-adv-x="400" 
d="M136 0v479h-114v51h114v58q0 52 30 80t86 28h114v-54h-110q-59 0 -59 -59v-53h190v-51h-190v-479h-61z" />
    <glyph glyph-name="g" unicode="g" horiz-adv-x="668" 
d="M91 -82l52 25q54 -129 201 -129q88 0 144 52t56 132v83h-2q-32 -45 -87.5 -70.5t-122.5 -25.5q-124 0 -202.5 78t-78.5 202q-2 118 79.5 200t197.5 80q67 0 122.5 -25t89.5 -69h2v79h60v-536q0 -102 -73 -168t-185 -66q-190 0 -253 158zM542 207v116q0 70 -62 119
t-149 49q-97 0 -158.5 -63t-61.5 -163q0 -104 60.5 -165t164.5 -61q84 0 145 50t61 118z" />
    <glyph glyph-name="h" unicode="h" horiz-adv-x="648" 
d="M71 0v730h60v-287h2q32 48 85.5 75t117.5 27q111 0 178.5 -61.5t67.5 -163.5v-320h-61v310q0 85 -49.5 133t-138.5 48q-88 0 -145 -54.5t-57 -137.5v-299h-60z" />
    <glyph glyph-name="i" unicode="i" horiz-adv-x="202" 
d="M71 0v530h60v-530h-60zM61 625v76h80v-76h-80z" />
    <glyph glyph-name="j" unicode="j" horiz-adv-x="211" 
d="M-53 -162v54h69q63 0 63 61v577h61v-580q0 -54 -31.5 -83t-88.5 -29h-73zM70 625v76h80v-76h-80z" />
    <glyph glyph-name="k" unicode="k" horiz-adv-x="581" 
d="M71 0v730h60v-470h2l319 270h93l-254 -214l268 -316h-80l-233 278h-2l-113 -96v-182h-60z" />
    <glyph glyph-name="l" unicode="l" horiz-adv-x="202" 
d="M71 0v730h60v-730h-60z" />
    <glyph glyph-name="m" unicode="m" horiz-adv-x="972" 
d="M71 0v530h59v-70h2q27 40 73.5 62.5t102.5 22.5q60 0 111 -28.5t74 -76.5h2q28 51 78 78t113 27q95 0 157.5 -56.5t62.5 -145.5v-343h-60v326q0 76 -44.5 120.5t-118.5 44.5q-73 0 -119 -45t-46 -119v-327h-59v327q0 74 -45.5 119t-118.5 45t-118.5 -45t-45.5 -120v-326
h-60z" />
    <glyph glyph-name="n" unicode="n" horiz-adv-x="648" 
d="M71 0v530h59v-87h2q30 47 85 74.5t119 27.5q110 0 178 -62t68 -162v-321h-61v310q0 84 -50 132.5t-135 48.5q-90 0 -147.5 -54.5t-57.5 -137.5v-299h-60z" />
    <glyph glyph-name="o" unicode="o" horiz-adv-x="671" 
d="M51 265q0 121 80.5 200.5t204.5 79.5q123 0 203.5 -79.5t80.5 -200.5t-80.5 -200.5t-203.5 -79.5q-124 0 -204.5 79.5t-80.5 200.5zM560 265q0 101 -62.5 163.5t-161.5 62.5q-98 0 -161.5 -63t-63.5 -163t63.5 -163t161.5 -63q99 0 161.5 62.5t62.5 163.5z" />
    <glyph glyph-name="p" unicode="p" horiz-adv-x="663" 
d="M71 -225v755h60v-79h2q32 43 86 68.5t121 25.5q113 2 193.5 -80t78.5 -200q0 -121 -79.5 -200.5t-197.5 -79.5q-64 0 -117.5 25.5t-84.5 68.5h-2v-304h-60zM552 265q0 101 -60.5 163.5t-154.5 62.5q-86 0 -146 -50t-60 -118v-116q0 -67 59.5 -117.5t141.5 -50.5
q95 0 157.5 63t62.5 163z" />
    <glyph glyph-name="q" unicode="q" horiz-adv-x="663" 
d="M592 -225h-60v304h-2q-31 -43 -84.5 -68.5t-117.5 -25.5q-118 0 -197.5 79.5t-79.5 200.5q-2 118 78.5 200t193.5 80q67 0 121 -25.5t86 -68.5h2v79h60v-755zM532 207v116q0 68 -60 118t-146 50q-94 0 -154.5 -62.5t-60.5 -163.5q0 -100 62.5 -163t157.5 -63
q82 0 141.5 50.5t59.5 117.5z" />
    <glyph glyph-name="r" unicode="r" horiz-adv-x="362" 
d="M71 0v530h58v-57h2q21 30 56.5 48t76.5 18q32 0 76 -12l-14 -57q-46 10 -67 10q-58 0 -93 -39t-35 -107v-334h-60z" />
    <glyph glyph-name="s" unicode="s" horiz-adv-x="594" 
d="M41 183l57 11q10 -76 66.5 -116.5t151.5 -40.5q82 0 130 27t48 73q0 45 -42.5 69t-148.5 39q-135 19 -189 52.5t-54 96.5q0 67 61 109t158 42t167 -48.5t82 -122.5l-57 -11q-12 59 -64 94.5t-128 35.5q-71 0 -115.5 -27t-44.5 -70q0 -41 39.5 -62t146.5 -37
q137 -21 192.5 -56.5t55.5 -103.5q0 -69 -64.5 -110.5t-172.5 -41.5q-117 0 -190 54q-74 52 -85 144z" />
    <glyph glyph-name="t" unicode="t" horiz-adv-x="392" 
d="M364 479h-169v-374q0 -28 13 -39.5t44 -11.5h83v-54h-83q-62 0 -90 25t-28 80v374h-112v51h112v115h61v-115h169v-51z" />
    <glyph glyph-name="u" unicode="u" horiz-adv-x="629" 
d="M61 216v314h60v-304q0 -90 48 -138.5t136 -48.5q85 0 139 54.5t54 137.5v299h61v-530h-60v86h-2q-63 -101 -204 -101q-109 0 -170.5 61.5t-61.5 169.5z" />
    <glyph glyph-name="v" unicode="v" horiz-adv-x="601" 
d="M273 0l-263 530h66l224 -460h2l223 460h66l-263 -530h-55z" />
    <glyph glyph-name="w" unicode="w" horiz-adv-x="859" 
d="M183 0l-156 530h61l128 -443h2l182 443h58l182 -443h2l129 443h61l-156 -530h-55l-191 464h-2l-190 -464h-55z" />
    <glyph glyph-name="x" unicode="x" horiz-adv-x="543" 
d="M7 0l226 270l-218 260h74l182 -219h2l182 219h73l-218 -260l226 -270h-73l-190 229h-2l-190 -229h-74z" />
    <glyph glyph-name="y" unicode="y" horiz-adv-x="574" 
d="M117 -225l136 271l-243 484h69l207 -420h2l207 420h69l-379 -755h-68z" />
    <glyph glyph-name="z" unicode="z" horiz-adv-x="583" 
d="M28 0v48l438 428v2h-416v52h503v-48l-439 -428v-2h437v-52h-523z" />
    <glyph glyph-name="braceleft" unicode="{" horiz-adv-x="391" 
d="M159 -50v240q0 35 -11.5 48.5t-41.5 13.5h-28v66h28q30 0 41.5 13.5t11.5 49.5v219q0 68 27.5 99.5t88.5 31.5h86v-59h-78q-35 0 -50 -19.5t-15 -64.5v-219q0 -38 -17.5 -59.5t-45.5 -23.5v-2q28 -2 45.5 -24t17.5 -60v-238q0 -45 15.5 -65t49.5 -20h78v-58h-86
q-61 0 -88.5 31.5t-27.5 99.5z" />
    <glyph glyph-name="bar" unicode="|" horiz-adv-x="260" 
d="M108 -300v1075h45v-1075h-45z" />
    <glyph glyph-name="braceright" unicode="}" horiz-adv-x="391" 
d="M116 -181h-86v58h78q34 0 49.5 20t15.5 65v238q0 38 17.5 60t45.5 24v2q-28 2 -45.5 23.5t-17.5 59.5v219q0 45 -15 64.5t-50 19.5h-78v59h86q61 0 88.5 -31.5t27.5 -99.5v-219q0 -36 11.5 -49.5t41.5 -13.5h28v-66h-28q-30 0 -41.5 -13.5t-11.5 -48.5v-240
q0 -68 -27.5 -99.5t-88.5 -31.5z" />
    <glyph glyph-name="asciitilde" unicode="~" horiz-adv-x="630" 
d="M120 283l-52 15q11 62 46.5 96t87.5 34q33 0 61 -11.5t69 -38.5q61 -40 94 -40q32 0 52 21.5t32 69.5l53 -16q-12 -61 -47.5 -95.5t-87.5 -34.5q-33 0 -61 11.5t-69 38.5q-61 40 -94 40q-63 0 -84 -90z" />
    <glyph glyph-name="uni00A0" unicode="&#xa0;" horiz-adv-x="274" 
 />
    <glyph glyph-name="exclamdown" unicode="&#xa1;" horiz-adv-x="304" 
d="M101 530h102v-100h-102v100zM119 337h66v-507h-66v507z" />
    <glyph glyph-name="cent" unicode="&#xa2;" horiz-adv-x="685" 
d="M572 188l57 -14q-23 -83 -92 -132q-71 -52 -165 -56v-96h-40v96q-119 6 -195 84.5t-76 194.5t76 194.5t195 84.5v87h40v-87q93 -4 165 -55q69 -50 92 -133l-57 -14q-21 69 -73 107.5t-127 42.5v-454q75 4 127 42.5t73 107.5zM332 38v454q-94 -6 -153 -69t-59 -158
t59 -158t153 -69z" />
    <glyph glyph-name="sterling" unicode="&#xa3;" horiz-adv-x="662" 
d="M259 60v-2h351v-58h-536v58h50q64 0 104 36.5t40 95.5q0 56 -61 125h-133v55h84q-66 76 -66 151q0 90 68 142t183 52q117 0 193.5 -58t86.5 -156l-64 -10q-11 80 -67 123t-149 43q-87 0 -135.5 -36t-48.5 -100q0 -39 18 -72t59 -79h264v-55h-222q50 -67 50 -125
q0 -87 -69 -130z" />
    <glyph glyph-name="currency" unicode="&#xa4;" horiz-adv-x="601" 
d="M551 109l-31 -30l-65 65q-64 -58 -155 -58q-92 0 -154 56l-64 -63l-31 30l65 65q-50 67 -50 156q0 91 49 155l-64 65l30 30l64 -63q63 58 155 58q91 0 156 -59l64 64l30 -30l-65 -65q49 -65 49 -155q0 -88 -50 -155zM472 329q0 86 -47.5 139t-123.5 53q-77 0 -125 -53
t-48 -139q0 -84 47.5 -136t125.5 -52q77 0 124 52t47 136z" />
    <glyph glyph-name="yen" unicode="&#xa5;" horiz-adv-x="691" 
d="M681 700l-272 -371h211v-54h-243v-86h243v-55h-243v-134h-64v134h-247v55h247v86h-247v54h216l-272 371h76l258 -357h2l258 357h77z" />
    <glyph glyph-name="brokenbar" unicode="&#xa6;" horiz-adv-x="260" 
d="M108 350v425h45v-425h-45zM108 -300v425h45v-425h-45z" />
    <glyph glyph-name="section" unicode="&#xa7;" horiz-adv-x="695" 
d="M580 -17q0 -71 -60.5 -117.5t-152.5 -46.5q-98 0 -167.5 52t-78.5 134l63 9q8 -63 58 -100.5t125 -37.5q66 0 107.5 29.5t41.5 77.5q0 37 -29.5 64t-94.5 49l-160 54q-75 25 -109.5 59t-34.5 84q0 76 92 140q-65 47 -65 118t60.5 117.5t152.5 46.5q99 0 168 -52t79 -135
l-63 -8q-8 63 -58.5 100.5t-125.5 37.5q-66 0 -107.5 -29.5t-41.5 -77.5q0 -37 29 -63.5t95 -49.5l161 -54q75 -25 109.5 -59.5t34.5 -84.5q0 -74 -93 -139q65 -47 65 -118zM261 201l155 -53q22 -7 46 -18q82 52 82 108q0 59 -110 95l-155 52q-26 9 -46 18q-81 -51 -81 -107
q0 -32 26 -54.5t83 -40.5z" />
    <glyph glyph-name="dieresis" unicode="&#xa8;" horiz-adv-x="400" 
d="M68 580v82h84v-82h-84zM249 580v82h84v-82h-84z" />
    <glyph glyph-name="copyright" unicode="&#xa9;" horiz-adv-x="725" 
d="M58 324q-2 130 87.5 219t217.5 87q129 0 217 -87t88 -219q2 -130 -88 -220t-217 -88q-127 -2 -217 87.5t-88 220.5zM624 324q0 116 -74.5 191.5t-186.5 75.5t-187 -75.5t-75 -191.5q0 -118 74.5 -193.5t187.5 -75.5q112 0 186.5 75.5t74.5 193.5zM214 323q0 83 42.5 134
t111.5 51q55 0 93.5 -34t46.5 -91l-48 -9q-7 42 -31 64.5t-61 22.5q-48 0 -76 -37.5t-28 -100.5t28 -100.5t76 -37.5q37 0 61 22.5t31 64.5l48 -9q-8 -57 -46.5 -91t-93.5 -34q-69 0 -111.5 51t-42.5 134z" />
    <glyph glyph-name="ordfeminine" unicode="&#xaa;" horiz-adv-x="300" 
d="M17 495q0 38 28 58.5t96 31.5q43 7 59.5 15t16.5 23q0 43 -67 43q-35 0 -58 -17t-27 -46l-47 9q8 44 43.5 69.5t88.5 25.5q54 0 86 -25t32 -68v-190h-46v36h-1q-27 -43 -101 -43q-47 0 -75 21t-28 57zM220 520v57h-1q-10 -17 -69 -27q-49 -9 -67.5 -20.5t-18.5 -32.5
q0 -39 63 -39q38 0 65.5 18.5t27.5 43.5z" />
    <glyph glyph-name="guillemotleft" unicode="&#xab;" horiz-adv-x="461" 
d="M334 97l-109 185l109 185h60l-112 -185l112 -185h-60zM187 97l-109 185l109 185h60l-112 -185l112 -185h-60z" />
    <glyph glyph-name="logicalnot" unicode="&#xac;" horiz-adv-x="618" 
d="M485 183v186h-417v58h482v-244h-65z" />
    <glyph glyph-name="uni00AD" unicode="&#xad;" horiz-adv-x="362" 
d="M58 268v58h247v-58h-247z" />
    <glyph glyph-name="registered" unicode="&#xae;" horiz-adv-x="725" 
d="M668 324q2 -130 -88 -220t-217 -88q-127 -2 -217 87.5t-88 220.5q-2 130 87.5 219t217.5 87q129 0 217 -87t88 -219zM624 324q0 116 -74.5 191.5t-186.5 75.5t-187 -75.5t-75 -191.5q0 -118 74.5 -193.5t187.5 -75.5q112 0 186.5 75.5t74.5 193.5zM427 290l76 -144h-55
l-71 140h-73v-140h-50v353h139q55 0 86 -28t31 -77q0 -86 -83 -104zM460 394q0 61 -73 61h-81v-126h81q35 0 54 17t19 48z" />
    <glyph glyph-name="macron" unicode="&#xaf;" horiz-adv-x="421" 
d="M68 590v47h286v-47h-286z" />
    <glyph glyph-name="degree" unicode="&#xb0;" horiz-adv-x="430" 
d="M48 541q0 71 47 118q46 46 120 46t120 -46q47 -47 47 -118q0 -72 -47 -117q-46 -46 -120 -46t-120 46q-47 45 -47 117zM329 541q0 51 -31.5 82.5t-82.5 31.5t-82.5 -31t-31.5 -83q0 -51 31.5 -82.5t82.5 -31.5q50 0 82 31.5t32 82.5z" />
    <glyph glyph-name="plusminus" unicode="&#xb1;" horiz-adv-x="592" 
d="M324 442h200v-51h-200v-199h-54v199h-200v51h200v194h54v-194zM68 80v51h455v-51h-455z" />
    <glyph glyph-name="acute" unicode="&#xb4;" horiz-adv-x="302" 
d="M68 590l80 110h87l-112 -110h-55z" />
    <glyph glyph-name="paragraph" unicode="&#xb6;" horiz-adv-x="544" 
d="M180 -136v540q-61 2 -101.5 43.5t-40.5 104.5q0 68 41.5 108t105.5 40h265v-836h-64v778h-142v-778h-64z" />
    <glyph glyph-name="periodcentered" unicode="&#xb7;" horiz-adv-x="237" 
d="M69 335v100h102v-100h-102z" />
    <glyph glyph-name="cedilla" unicode="&#xb8;" horiz-adv-x="346" 
d="M279 -124q0 -39 -29.5 -63.5t-75.5 -24.5q-60 0 -106 40l28 34q34 -33 78 -33q26 0 43 13t17 35q0 21 -16 33t-42 12q-37 0 -67 -27l-35 16l68 112l34 -15l-37 -59q18 9 44 9q43 0 69.5 -23t26.5 -59z" />
    <glyph glyph-name="ordmasculine" unicode="&#xba;" horiz-adv-x="339" 
d="M17 562q0 63 43 104t110 41q66 0 109 -41t43 -104t-43 -104t-109 -41q-67 0 -110 41t-43 104zM272 562q0 45 -28 73t-74 28t-74.5 -28t-28.5 -73t28.5 -73t74.5 -28t74 28t28 73z" />
    <glyph glyph-name="guillemotright" unicode="&#xbb;" horiz-adv-x="461" 
d="M127 97h-60l112 185l-112 185h60l109 -185zM274 97h-60l112 185l-112 185h60l109 -185z" />
    <glyph glyph-name="onequarter" unicode="&#xbc;" horiz-adv-x="882" 
d="M163 280v362l-136 -74v56l140 76h50v-420h-54zM176 -65l-47 25l487 812l46 -28zM745 0v81h-266v48l233 291h87v-290h66v-49h-66v-81h-54zM539 130h206v254h-1z" />
    <glyph glyph-name="onehalf" unicode="&#xbd;" horiz-adv-x="910" 
d="M163 280v362l-136 -74v56l140 76h50v-420h-54zM176 -65l-47 25l487 812l46 -28zM588 48h286v-48h-342v40q0 65 29 97q33 39 143 74q72 22 96 40.5t24 51.5q0 35 -29.5 57t-78.5 22q-57 0 -91.5 -29.5t-38.5 -79.5l-53 2q4 70 54.5 112t128.5 42q71 0 117 -35t46 -90
q0 -50 -31 -78t-117 -55q-105 -33 -126 -61q-16 -20 -17 -62z" />
    <glyph glyph-name="threequarters" unicode="&#xbe;" horiz-adv-x="995" 
d="M27 417l53 7q3 -52 35 -79t90 -27q53 0 83 22.5t30 61.5q0 79 -109 79h-49v42h48q99 0 99 69q0 32 -27.5 51t-74.5 19q-100 0 -123 -89l-51 13q13 57 59 90t115 33t112 -32t43 -83q0 -60 -61 -88v-1q34 -13 53.5 -41t19.5 -64q0 -59 -45.5 -94t-121.5 -35
q-80 0 -127 38.5t-51 107.5zM289 -65l-47 25l487 812l46 -28zM858 0v81h-266v48l233 291h87v-290h66v-49h-66v-81h-54zM652 130h206v254h-1z" />
    <glyph glyph-name="questiondown" unicode="&#xbf;" horiz-adv-x="653" 
d="M420 530v-100h-102v100h102zM403 349v-64q0 -54 -27 -89t-93 -67q-74 -35 -102 -64.5t-28 -69.5q0 -54 46 -88t118 -34q87 0 139 45.5t57 126.5l62 -6q-3 -102 -73 -163t-184 -61q-99 0 -164.5 51t-65.5 130q0 55 37 97t123 81q54 26 73 50.5t19 65.5v59h63z" />
    <glyph glyph-name="Agrave" unicode="&#xc0;" horiz-adv-x="711" 
d="M638 0l-70 157h-424l-70 -157h-69l317 700h67l317 -700h-68zM168 212h376l-187 420h-2zM340 760l-111 110h87l80 -110h-56z" />
    <glyph glyph-name="Aacute" unicode="&#xc1;" horiz-adv-x="711" 
d="M638 0l-70 157h-424l-70 -157h-69l317 700h67l317 -700h-68zM168 212h376l-187 420h-2zM316 760l80 110h87l-112 -110h-55z" />
    <glyph glyph-name="Acircumflex" unicode="&#xc2;" horiz-adv-x="711" 
d="M638 0l-70 157h-424l-70 -157h-69l317 700h67l317 -700h-68zM168 212h376l-187 420h-2zM475 772l-34 -32l-84 90l-85 -90l-34 32l79 82h79z" />
    <glyph glyph-name="Atilde" unicode="&#xc3;" horiz-adv-x="711" 
d="M638 0l-70 157h-424l-70 -157h-69l317 700h67l317 -700h-68zM168 212h376l-187 420h-2zM346 778q-43 18 -62 18q-39 0 -45 -36h-37q3 38 25 60t59 22q32 0 82 -23q43 -19 63 -19q37 0 45 37h35q-2 -38 -24 -60t-59 -22q-31 0 -82 23z" />
    <glyph glyph-name="Adieresis" unicode="&#xc4;" horiz-adv-x="711" 
d="M638 0l-70 157h-424l-70 -157h-69l317 700h67l317 -700h-68zM168 212h376l-187 420h-2zM224 750v82h84v-82h-84zM405 750v82h84v-82h-84z" />
    <glyph glyph-name="Aring" unicode="&#xc5;" horiz-adv-x="711" 
d="M638 0l-70 157h-424l-70 -157h-69l317 700h67l317 -700h-68zM168 212h376l-187 420h-2zM243 770q0 46 32 76.5t81 30.5q50 0 82 -30.5t32 -76.5t-32 -76.5t-82 -30.5q-49 0 -81 30.5t-32 76.5zM426 770q0 31 -19.5 50.5t-50.5 19.5q-30 0 -50 -19.5t-20 -50.5t20 -50.5
t50 -19.5q31 0 50.5 19.5t19.5 50.5z" />
    <glyph glyph-name="AE" unicode="&#xc6;" horiz-adv-x="970" 
d="M913 642h-350v-253h319v-55h-319v-276h350v-58h-414v161h-343l-79 -161h-72l347 700h561v-58zM183 216h316v426h-108z" />
    <glyph glyph-name="Ccedilla" unicode="&#xc7;" horiz-adv-x="771" 
d="M47 350q-2 156 102 262t255 103q122 0 213 -64t116 -172l-62 -15q-24 92 -95.5 142.5t-171.5 50.5q-127 0 -209.5 -85.5t-82.5 -221.5t82.5 -221.5t209.5 -85.5q101 0 172.5 54.5t95.5 155.5l62 -16q-25 -116 -115.5 -184t-214.5 -68q-151 -3 -255 103t-102 262z
M533 -138q0 -39 -29.5 -63.5t-75.5 -24.5q-60 0 -106 40l28 34q34 -33 78 -33q26 0 43 13t17 35q0 21 -16 33t-42 12q-37 0 -67 -27l-35 16l68 112l34 -15l-37 -59q18 9 44 9q43 0 69.5 -23t26.5 -59z" />
    <glyph glyph-name="Egrave" unicode="&#xc8;" horiz-adv-x="642" 
d="M91 0v700h494v-58h-430v-253h399v-55h-399v-276h430v-58h-494zM330 760l-111 110h87l80 -110h-56z" />
    <glyph glyph-name="Eacute" unicode="&#xc9;" horiz-adv-x="642" 
d="M91 0v700h494v-58h-430v-253h399v-55h-399v-276h430v-58h-494zM306 760l80 110h87l-112 -110h-55z" />
    <glyph glyph-name="Ecircumflex" unicode="&#xca;" horiz-adv-x="642" 
d="M91 0v700h494v-58h-430v-253h399v-55h-399v-276h430v-58h-494zM465 772l-34 -32l-84 90l-85 -90l-34 32l79 82h79z" />
    <glyph glyph-name="Edieresis" unicode="&#xcb;" horiz-adv-x="642" 
d="M91 0v700h494v-58h-430v-253h399v-55h-399v-276h430v-58h-494zM214 750v82h84v-82h-84zM395 750v82h84v-82h-84z" />
    <glyph glyph-name="Igrave" unicode="&#xcc;" horiz-adv-x="245" 
d="M91 0v700h64v-700h-64zM107 760l-111 110h87l80 -110h-56z" />
    <glyph glyph-name="Iacute" unicode="&#xcd;" horiz-adv-x="245" 
d="M91 0v700h64v-700h-64zM83 760l80 110h87l-112 -110h-55z" />
    <glyph glyph-name="Icircumflex" unicode="&#xce;" horiz-adv-x="245" 
d="M91 0v700h64v-700h-64zM242 772l-34 -32l-84 90l-85 -90l-34 32l79 82h79z" />
    <glyph glyph-name="Idieresis" unicode="&#xcf;" horiz-adv-x="245" 
d="M91 0v700h64v-700h-64zM-10 750v82h84v-82h-84zM171 750v82h84v-82h-84z" />
    <glyph glyph-name="Eth" unicode="&#xd0;" horiz-adv-x="751" 
d="M91 0v700h271q163 0 252.5 -91.5t89.5 -258.5q0 -170 -88.5 -260t-254.5 -90h-270zM155 58h206q136 0 206.5 74t70.5 218q0 143 -70.5 217.5t-205.5 74.5h-207v-584zM-11 324v52h396v-52h-396z" />
    <glyph glyph-name="Ntilde" unicode="&#xd1;" horiz-adv-x="764" 
d="M91 0v700h69l448 -609h2v609h64v-700h-70l-447 609h-2v-609h-64zM372 778q-44 18 -62 18q-39 0 -45 -36h-37q3 38 25 60t59 22q32 0 82 -23q43 -19 63 -19q37 0 45 37h35q-2 -38 -24 -60t-59 -22q-31 0 -82 23z" />
    <glyph glyph-name="Ograve" unicode="&#xd2;" horiz-adv-x="808" 
d="M47 350q-1 158 101 262.5t256 102.5q153 2 255.5 -102.5t101.5 -262.5q1 -158 -101.5 -262.5t-255.5 -102.5q-154 -2 -256 102.5t-101 262.5zM696 350q0 136 -82 221.5t-210 85.5t-210 -85.5t-82 -221.5t82 -221.5t210 -85.5t210 85.5t82 221.5zM388 775l-111 110h87
l80 -110h-56z" />
    <glyph glyph-name="Oacute" unicode="&#xd3;" horiz-adv-x="808" 
d="M47 350q-1 158 101 262.5t256 102.5q153 2 255.5 -102.5t101.5 -262.5q1 -158 -101.5 -262.5t-255.5 -102.5q-154 -2 -256 102.5t-101 262.5zM696 350q0 136 -82 221.5t-210 85.5t-210 -85.5t-82 -221.5t82 -221.5t210 -85.5t210 85.5t82 221.5zM364 775l80 110h87
l-112 -110h-55z" />
    <glyph glyph-name="Ocircumflex" unicode="&#xd4;" horiz-adv-x="808" 
d="M47 350q-1 158 101 262.5t256 102.5q153 2 255.5 -102.5t101.5 -262.5q1 -158 -101.5 -262.5t-255.5 -102.5q-154 -2 -256 102.5t-101 262.5zM696 350q0 136 -82 221.5t-210 85.5t-210 -85.5t-82 -221.5t82 -221.5t210 -85.5t210 85.5t82 221.5zM523 787l-34 -32l-84 90
l-85 -90l-34 32l79 82h79z" />
    <glyph glyph-name="Otilde" unicode="&#xd5;" horiz-adv-x="808" 
d="M47 350q-1 158 101 262.5t256 102.5q153 2 255.5 -102.5t101.5 -262.5q1 -158 -101.5 -262.5t-255.5 -102.5q-154 -2 -256 102.5t-101 262.5zM696 350q0 136 -82 221.5t-210 85.5t-210 -85.5t-82 -221.5t82 -221.5t210 -85.5t210 85.5t82 221.5zM394 793q-44 18 -62 18
q-39 0 -45 -36h-37q3 38 25 60t59 22q32 0 82 -23q43 -19 63 -19q37 0 45 37h35q-2 -38 -24 -60t-59 -22q-31 0 -82 23z" />
    <glyph glyph-name="Odieresis" unicode="&#xd6;" horiz-adv-x="808" 
d="M47 350q-1 158 101 262.5t256 102.5q153 2 255.5 -102.5t101.5 -262.5q1 -158 -101.5 -262.5t-255.5 -102.5q-154 -2 -256 102.5t-101 262.5zM696 350q0 136 -82 221.5t-210 85.5t-210 -85.5t-82 -221.5t82 -221.5t210 -85.5t210 85.5t82 221.5zM272 765v82h84v-82h-84z
M453 765v82h84v-82h-84z" />
    <glyph glyph-name="multiply" unicode="&#xd7;" horiz-adv-x="534" 
d="M105 153l-37 38l162 162l-162 161l37 38l162 -163l162 163l37 -38l-162 -161l162 -162l-37 -38l-162 163z" />
    <glyph glyph-name="Oslash" unicode="&#xd8;" horiz-adv-x="808" 
d="M761 350q1 -158 -101.5 -262.5t-255.5 -102.5q-126 0 -221 71l-47 -55l-34 28l48 56q-103 103 -103 265q-1 158 101 262.5t256 102.5q126 0 221 -71l46 55l34 -29l-47 -55q103 -103 103 -265zM188 131l399 469q-77 59 -183 59q-129 0 -211.5 -85.5t-82.5 -223.5
q0 -131 78 -219zM698 350q0 132 -78 220l-399 -469q75 -60 183 -60q129 0 211.5 85.5t82.5 223.5z" />
    <glyph glyph-name="Ugrave" unicode="&#xd9;" horiz-adv-x="754" 
d="M86 265v435h64v-433q0 -117 55 -170.5t172 -53.5t172 54t55 170v433h64v-435q0 -280 -291 -280t-291 280zM361 760l-111 110h87l80 -110h-56z" />
    <glyph glyph-name="Uacute" unicode="&#xda;" horiz-adv-x="754" 
d="M86 265v435h64v-433q0 -117 55 -170.5t172 -53.5t172 54t55 170v433h64v-435q0 -280 -291 -280t-291 280zM337 760l80 110h87l-112 -110h-55z" />
    <glyph glyph-name="Ucircumflex" unicode="&#xdb;" horiz-adv-x="754" 
d="M86 265v435h64v-433q0 -117 55 -170.5t172 -53.5t172 54t55 170v433h64v-435q0 -280 -291 -280t-291 280zM496 772l-34 -32l-84 90l-85 -90l-34 32l79 82h79z" />
    <glyph glyph-name="Udieresis" unicode="&#xdc;" horiz-adv-x="754" 
d="M86 265v435h64v-433q0 -117 55 -170.5t172 -53.5t172 54t55 170v433h64v-435q0 -280 -291 -280t-291 280zM245 750v82h84v-82h-84zM426 750v82h84v-82h-84z" />
    <glyph glyph-name="Yacute" unicode="&#xdd;" horiz-adv-x="671" 
d="M303 0v286l-303 414h76l258 -357h2l258 357h77l-304 -414v-286h-64zM296 760l80 110h87l-112 -110h-55z" />
    <glyph glyph-name="Thorn" unicode="&#xde;" horiz-adv-x="697" 
d="M670 353q0 -99 -63.5 -155t-173.5 -56h-278v-142h-64v700h64v-135h278q109 0 173 -57t64 -155zM606 353q0 154 -175 154h-276v-307h276q175 0 175 153z" />
    <glyph glyph-name="germandbls" unicode="&#xdf;" horiz-adv-x="625" 
d="M71 0v492q0 105 64 164t175 59q102 0 163.5 -51t61.5 -132q0 -48 -29.5 -85.5t-79.5 -55.5v-2q69 -15 108.5 -64t39.5 -119q0 -99 -70.5 -152.5t-199.5 -53.5h-70v54h73q100 0 153 38.5t53 113.5q0 72 -48 111t-137 39h-94v53h72q78 0 123.5 33t45.5 90q0 59 -43.5 94
t-120.5 35q-85 0 -132.5 -45t-47.5 -131v-485h-60z" />
    <glyph glyph-name="agrave" unicode="&#xe0;" horiz-adv-x="576" 
d="M51 138q0 70 53 107.5t181 58.5q90 14 125.5 33.5t35.5 54.5q0 45 -40.5 72t-107.5 27q-76 0 -124 -36.5t-59 -102.5l-59 13q14 83 79.5 131.5t162.5 48.5q96 0 154 -45t58 -119v-381h-59v77h-1q-26 -42 -81.5 -67t-123.5 -25q-91 0 -142.5 40.5t-51.5 112.5zM450 181
v134h-2q-13 -22 -47 -35.5t-104 -24.5q-101 -17 -143 -44t-42 -73q0 -99 144 -99q80 0 137 41.5t57 100.5zM282 605l-111 110h87l80 -110h-56z" />
    <glyph glyph-name="aacute" unicode="&#xe1;" horiz-adv-x="576" 
d="M51 138q0 70 53 107.5t181 58.5q90 14 125.5 33.5t35.5 54.5q0 45 -40.5 72t-107.5 27q-76 0 -124 -36.5t-59 -102.5l-59 13q14 83 79.5 131.5t162.5 48.5q96 0 154 -45t58 -119v-381h-59v77h-1q-26 -42 -81.5 -67t-123.5 -25q-91 0 -142.5 40.5t-51.5 112.5zM450 181
v134h-2q-13 -22 -47 -35.5t-104 -24.5q-101 -17 -143 -44t-42 -73q0 -99 144 -99q80 0 137 41.5t57 100.5zM258 605l80 110h87l-112 -110h-55z" />
    <glyph glyph-name="acircumflex" unicode="&#xe2;" horiz-adv-x="576" 
d="M51 138q0 70 53 107.5t181 58.5q90 14 125.5 33.5t35.5 54.5q0 45 -40.5 72t-107.5 27q-76 0 -124 -36.5t-59 -102.5l-59 13q14 83 79.5 131.5t162.5 48.5q96 0 154 -45t58 -119v-381h-59v77h-1q-26 -42 -81.5 -67t-123.5 -25q-91 0 -142.5 40.5t-51.5 112.5zM450 181
v134h-2q-13 -22 -47 -35.5t-104 -24.5q-101 -17 -143 -44t-42 -73q0 -99 144 -99q80 0 137 41.5t57 100.5zM417 617l-34 -32l-84 90l-85 -90l-34 32l79 82h79z" />
    <glyph glyph-name="atilde" unicode="&#xe3;" horiz-adv-x="576" 
d="M51 138q0 70 53 107.5t181 58.5q90 14 125.5 33.5t35.5 54.5q0 45 -40.5 72t-107.5 27q-76 0 -124 -36.5t-59 -102.5l-59 13q14 83 79.5 131.5t162.5 48.5q96 0 154 -45t58 -119v-381h-59v77h-1q-26 -42 -81.5 -67t-123.5 -25q-91 0 -142.5 40.5t-51.5 112.5zM450 181
v134h-2q-13 -22 -47 -35.5t-104 -24.5q-101 -17 -143 -44t-42 -73q0 -99 144 -99q80 0 137 41.5t57 100.5zM288 623q-43 18 -62 18q-39 0 -45 -36h-37q3 38 25 60t59 22q32 0 82 -23q43 -19 63 -19q37 0 45 37h35q-2 -38 -24 -60t-59 -22q-31 0 -82 23z" />
    <glyph glyph-name="adieresis" unicode="&#xe4;" horiz-adv-x="576" 
d="M51 138q0 70 53 107.5t181 58.5q90 14 125.5 33.5t35.5 54.5q0 45 -40.5 72t-107.5 27q-76 0 -124 -36.5t-59 -102.5l-59 13q14 83 79.5 131.5t162.5 48.5q96 0 154 -45t58 -119v-381h-59v77h-1q-26 -42 -81.5 -67t-123.5 -25q-91 0 -142.5 40.5t-51.5 112.5zM450 181
v134h-2q-13 -22 -47 -35.5t-104 -24.5q-101 -17 -143 -44t-42 -73q0 -99 144 -99q80 0 137 41.5t57 100.5zM166 595v82h84v-82h-84zM347 595v82h84v-82h-84z" />
    <glyph glyph-name="aring" unicode="&#xe5;" horiz-adv-x="576" 
d="M181 671q0 43 29.5 71t74.5 28q46 0 75.5 -28t29.5 -71q0 -42 -29.5 -70t-75.5 -28q-45 0 -74.5 28t-29.5 70zM349 671q0 29 -18 47t-46 18t-46 -18.5t-18 -46.5t18 -46t46 -18t46 18t18 46zM51 138q0 70 53 107.5t181 58.5q90 14 125.5 33.5t35.5 54.5q0 45 -40.5 72
t-107.5 27q-76 0 -124 -36.5t-59 -102.5l-59 13q14 83 79.5 131.5t162.5 48.5q96 0 154 -45t58 -119v-381h-59v77h-1q-26 -42 -81.5 -67t-123.5 -25q-91 0 -142.5 40.5t-51.5 112.5zM450 181v134h-2q-13 -22 -47 -35.5t-104 -24.5q-101 -17 -143 -44t-42 -73q0 -99 144 -99
q80 0 137 41.5t57 100.5z" />
    <glyph glyph-name="ae" unicode="&#xe6;" horiz-adv-x="1027" 
d="M976 262v-22h-476q1 -90 61.5 -147.5t150.5 -57.5q132 0 198 128l49 -30q-38 -71 -102 -109.5t-145 -38.5q-78 0 -140 34.5t-95 96.5q-22 -60 -86.5 -95.5t-149.5 -35.5q-88 0 -138 40.5t-50 112.5q0 100 110 137q53 16 119 28q109 22 138 45q21 16 21 44q0 47 -40 75
t-109 28q-77 0 -125.5 -37.5t-55.5 -103.5l-57 7q8 85 73 134q65 50 165 50q76 0 128.5 -29.5t69.5 -83.5q34 54 91 83.5t127 29.5q117 0 192.5 -79t75.5 -204zM500 289h416q-3 91 -62 148.5t-147 57.5t-146 -57.5t-61 -148.5zM444 181v137h-2q-13 -23 -45.5 -35.5
t-102.5 -25.5q-66 -12 -99.5 -23.5t-57.5 -33.5q-26 -23 -26 -62q0 -102 143 -102q79 0 134.5 42.5t55.5 102.5z" />
    <glyph glyph-name="ccedilla" unicode="&#xe7;" horiz-adv-x="639" 
d="M51 265q0 120 80.5 200t198.5 80q96 0 169 -51q72 -50 95 -138l-59 -15q-20 73 -73.5 111.5t-131.5 38.5q-94 0 -156.5 -63t-62.5 -163t62.5 -163t156.5 -63q78 0 131.5 38.5t73.5 111.5l59 -15q-23 -88 -95 -138q-73 -51 -169 -51q-118 0 -198.5 80t-80.5 200zM459 -138
q0 -39 -29.5 -63.5t-75.5 -24.5q-60 0 -106 40l28 34q34 -33 78 -33q26 0 43 13t17 35q0 21 -16 33t-42 12q-37 0 -67 -27l-35 16l68 112l34 -15l-37 -59q18 9 44 9q43 0 69.5 -23t26.5 -59z" />
    <glyph glyph-name="egrave" unicode="&#xe8;" horiz-adv-x="652" 
d="M51 260q0 126 77.5 205.5t199.5 79.5q120 0 196.5 -79t76.5 -204v-22h-489q0 -89 63 -146t154 -57q143 0 211 126l48 -31q-78 -147 -259 -147q-124 0 -201 76t-77 199zM113 290h426q-3 88 -63 145.5t-148 57.5q-91 0 -150.5 -58t-64.5 -145zM312 605l-111 110h87l80 -110
h-56z" />
    <glyph glyph-name="eacute" unicode="&#xe9;" horiz-adv-x="652" 
d="M51 260q0 126 77.5 205.5t199.5 79.5q120 0 196.5 -79t76.5 -204v-22h-489q0 -89 63 -146t154 -57q143 0 211 126l48 -31q-78 -147 -259 -147q-124 0 -201 76t-77 199zM113 290h426q-3 88 -63 145.5t-148 57.5q-91 0 -150.5 -58t-64.5 -145zM288 605l80 110h87l-112 -110
h-55z" />
    <glyph glyph-name="ecircumflex" unicode="&#xea;" horiz-adv-x="652" 
d="M51 260q0 126 77.5 205.5t199.5 79.5q120 0 196.5 -79t76.5 -204v-22h-489q0 -89 63 -146t154 -57q143 0 211 126l48 -31q-78 -147 -259 -147q-124 0 -201 76t-77 199zM113 290h426q-3 88 -63 145.5t-148 57.5q-91 0 -150.5 -58t-64.5 -145zM447 617l-34 -32l-84 90
l-85 -90l-34 32l79 82h79z" />
    <glyph glyph-name="edieresis" unicode="&#xeb;" horiz-adv-x="652" 
d="M51 260q0 126 77.5 205.5t199.5 79.5q120 0 196.5 -79t76.5 -204v-22h-489q0 -89 63 -146t154 -57q143 0 211 126l48 -31q-78 -147 -259 -147q-124 0 -201 76t-77 199zM113 290h426q-3 88 -63 145.5t-148 57.5q-91 0 -150.5 -58t-64.5 -145zM196 595v82h84v-82h-84z
M377 595v82h84v-82h-84z" />
    <glyph glyph-name="igrave" unicode="&#xec;" horiz-adv-x="202" 
d="M71 0v530h60v-530h-60zM85 590l-111 110h87l80 -110h-56z" />
    <glyph glyph-name="iacute" unicode="&#xed;" horiz-adv-x="202" 
d="M71 0v530h60v-530h-60zM61 590l80 110h87l-112 -110h-55z" />
    <glyph glyph-name="icircumflex" unicode="&#xee;" horiz-adv-x="202" 
d="M71 0v530h60v-530h-60zM219 602l-34 -32l-84 90l-85 -90l-34 32l79 82h79z" />
    <glyph glyph-name="idieresis" unicode="&#xef;" horiz-adv-x="196" 
d="M-22 580v82h83v-82h-83zM135 580v82h83v-82h-83zM71 0v530h60v-530h-60z" />
    <glyph glyph-name="eth" unicode="&#xf0;" horiz-adv-x="671" 
d="M620 271q0 -126 -80 -206t-204 -80t-204.5 79.5t-80.5 200.5q-2 119 79.5 200.5t201.5 79.5q117 0 184 -76h2q-41 92 -123 179l-142 -48l-12 35l126 43q-34 33 -104 95v2h75q44 -39 83 -80l141 47l12 -34l-127 -43q173 -194 173 -394zM560 265q0 101 -62.5 163.5
t-161.5 62.5t-162 -62.5t-63 -163.5t63 -163.5t162 -62.5t161.5 62.5t62.5 163.5z" />
    <glyph glyph-name="ntilde" unicode="&#xf1;" horiz-adv-x="648" 
d="M71 0v530h59v-87h2q30 47 85 74.5t119 27.5q110 0 178 -62t68 -162v-321h-61v310q0 84 -50 132.5t-135 48.5q-90 0 -147.5 -54.5t-57.5 -137.5v-299h-60zM322 623q-43 18 -62 18q-39 0 -45 -36h-37q3 38 25 60t59 22q32 0 82 -23q43 -19 63 -19q37 0 45 37h35
q-2 -38 -24 -60t-59 -22q-31 0 -82 23z" />
    <glyph glyph-name="ograve" unicode="&#xf2;" horiz-adv-x="671" 
d="M51 265q0 121 80.5 200.5t204.5 79.5q123 0 203.5 -79.5t80.5 -200.5t-80.5 -200.5t-203.5 -79.5q-124 0 -204.5 79.5t-80.5 200.5zM560 265q0 101 -62.5 163.5t-161.5 62.5q-98 0 -161.5 -63t-63.5 -163t63.5 -163t161.5 -63q99 0 161.5 62.5t62.5 163.5zM320 605
l-111 110h87l80 -110h-56z" />
    <glyph glyph-name="oacute" unicode="&#xf3;" horiz-adv-x="671" 
d="M51 265q0 121 80.5 200.5t204.5 79.5q123 0 203.5 -79.5t80.5 -200.5t-80.5 -200.5t-203.5 -79.5q-124 0 -204.5 79.5t-80.5 200.5zM560 265q0 101 -62.5 163.5t-161.5 62.5q-98 0 -161.5 -63t-63.5 -163t63.5 -163t161.5 -63q99 0 161.5 62.5t62.5 163.5zM296 605
l80 110h87l-112 -110h-55z" />
    <glyph glyph-name="ocircumflex" unicode="&#xf4;" horiz-adv-x="671" 
d="M51 265q0 121 80.5 200.5t204.5 79.5q123 0 203.5 -79.5t80.5 -200.5t-80.5 -200.5t-203.5 -79.5q-124 0 -204.5 79.5t-80.5 200.5zM560 265q0 101 -62.5 163.5t-161.5 62.5q-98 0 -161.5 -63t-63.5 -163t63.5 -163t161.5 -63q99 0 161.5 62.5t62.5 163.5zM455 617
l-34 -32l-84 90l-85 -90l-34 32l79 82h79z" />
    <glyph glyph-name="otilde" unicode="&#xf5;" horiz-adv-x="671" 
d="M51 265q0 121 80.5 200.5t204.5 79.5q123 0 203.5 -79.5t80.5 -200.5t-80.5 -200.5t-203.5 -79.5q-124 0 -204.5 79.5t-80.5 200.5zM560 265q0 101 -62.5 163.5t-161.5 62.5q-98 0 -161.5 -63t-63.5 -163t63.5 -163t161.5 -63q99 0 161.5 62.5t62.5 163.5zM326 623
q-44 18 -62 18q-39 0 -45 -36h-37q3 38 25 60t59 22q32 0 82 -23q43 -19 63 -19q37 0 45 37h35q-2 -38 -24 -60t-59 -22q-31 0 -82 23z" />
    <glyph glyph-name="odieresis" unicode="&#xf6;" horiz-adv-x="671" 
d="M51 265q0 121 80.5 200.5t204.5 79.5q123 0 203.5 -79.5t80.5 -200.5t-80.5 -200.5t-203.5 -79.5q-124 0 -204.5 79.5t-80.5 200.5zM560 265q0 101 -62.5 163.5t-161.5 62.5q-98 0 -161.5 -63t-63.5 -163t63.5 -163t161.5 -63q99 0 161.5 62.5t62.5 163.5zM204 595v82h84
v-82h-84zM385 595v82h84v-82h-84z" />
    <glyph glyph-name="divide" unicode="&#xf7;" horiz-adv-x="541" 
d="M211 559q0 26 17 43.5t42 17.5q26 0 43 -17.5t17 -43.5q0 -25 -17.5 -42t-42.5 -17t-42 17t-17 42zM68 342v52h405v-52h-405zM211 172q0 25 17 42.5t42 17.5q26 0 43 -17t17 -43t-17 -43t-43 -17q-25 0 -42 17t-17 43z" />
    <glyph glyph-name="oslash" unicode="&#xf8;" horiz-adv-x="671" 
d="M620 265q0 -121 -80.5 -200.5t-203.5 -79.5q-112 0 -191 66l-47 -46l-26 26l47 46q-68 76 -68 188q0 121 80.5 200.5t204.5 79.5q114 0 190 -67l48 47l26 -26l-47 -47q67 -76 67 -187zM158 116l330 325q-59 53 -152 53q-100 0 -163.5 -63.5t-63.5 -165.5q0 -90 49 -149z
M562 265q0 87 -48 149l-331 -325q62 -53 153 -53q99 0 162.5 63.5t63.5 165.5z" />
    <glyph glyph-name="ugrave" unicode="&#xf9;" horiz-adv-x="629" 
d="M61 216v314h60v-304q0 -90 48 -138.5t136 -48.5q85 0 139 54.5t54 137.5v299h61v-530h-60v86h-2q-63 -101 -204 -101q-109 0 -170.5 61.5t-61.5 169.5zM294 590l-111 110h87l80 -110h-56z" />
    <glyph glyph-name="uacute" unicode="&#xfa;" horiz-adv-x="629" 
d="M61 216v314h60v-304q0 -90 48 -138.5t136 -48.5q85 0 139 54.5t54 137.5v299h61v-530h-60v86h-2q-63 -101 -204 -101q-109 0 -170.5 61.5t-61.5 169.5zM270 590l80 110h87l-112 -110h-55z" />
    <glyph glyph-name="ucircumflex" unicode="&#xfb;" horiz-adv-x="629" 
d="M61 216v314h60v-304q0 -90 48 -138.5t136 -48.5q85 0 139 54.5t54 137.5v299h61v-530h-60v86h-2q-63 -101 -204 -101q-109 0 -170.5 61.5t-61.5 169.5zM429 602l-34 -32l-84 90l-85 -90l-34 32l79 82h79z" />
    <glyph glyph-name="udieresis" unicode="&#xfc;" horiz-adv-x="629" 
d="M61 216v314h60v-304q0 -90 48 -138.5t136 -48.5q85 0 139 54.5t54 137.5v299h61v-530h-60v86h-2q-63 -101 -204 -101q-109 0 -170.5 61.5t-61.5 169.5zM178 580v82h84v-82h-84zM359 580v82h84v-82h-84z" />
    <glyph glyph-name="yacute" unicode="&#xfd;" horiz-adv-x="574" 
d="M117 -225l136 271l-243 484h69l207 -420h2l207 420h69l-379 -755h-68zM247 590l80 110h87l-112 -110h-55z" />
    <glyph glyph-name="thorn" unicode="&#xfe;" horiz-adv-x="663" 
d="M612 265q0 -121 -79.5 -200.5t-197.5 -79.5q-64 0 -117.5 25.5t-84.5 68.5h-2v-304h-60v955h60v-279h2q32 43 86 68.5t121 25.5q113 2 193.5 -80t78.5 -200zM552 265q0 101 -60.5 163.5t-154.5 62.5q-86 0 -146 -50t-60 -118v-116q0 -67 59.5 -117.5t141.5 -50.5
q95 0 157.5 63t62.5 163z" />
    <glyph glyph-name="ydieresis" unicode="&#xff;" horiz-adv-x="574" 
d="M117 -225l136 271l-243 484h69l207 -420h2l207 420h69l-379 -755h-68zM155 580v82h84v-82h-84zM336 580v82h84v-82h-84z" />
    <glyph glyph-name="Amacron" unicode="&#x100;" horiz-adv-x="711" 
d="M638 0l-70 157h-424l-70 -157h-69l317 700h67l317 -700h-68zM168 212h376l-187 420h-2zM213 760v47h286v-47h-286z" />
    <glyph glyph-name="amacron" unicode="&#x101;" horiz-adv-x="576" 
d="M51 138q0 70 53 107.5t181 58.5q90 14 125.5 33.5t35.5 54.5q0 45 -40.5 72t-107.5 27q-76 0 -124 -36.5t-59 -102.5l-59 13q14 83 79.5 131.5t162.5 48.5q96 0 154 -45t58 -119v-381h-59v77h-1q-26 -42 -81.5 -67t-123.5 -25q-91 0 -142.5 40.5t-51.5 112.5zM450 181
v134h-2q-13 -22 -47 -35.5t-104 -24.5q-101 -17 -143 -44t-42 -73q0 -99 144 -99q80 0 137 41.5t57 100.5zM155 605v47h286v-47h-286z" />
    <glyph glyph-name="Abreve" unicode="&#x102;" horiz-adv-x="711" 
d="M638 0l-70 157h-424l-70 -157h-69l317 700h67l317 -700h-68zM168 212h376l-187 420h-2zM226 861h38q14 -60 92 -60q79 0 91 60h39q-4 -52 -38.5 -81.5t-91.5 -29.5q-56 0 -91 29.5t-39 81.5z" />
    <glyph glyph-name="abreve" unicode="&#x103;" horiz-adv-x="576" 
d="M51 138q0 70 53 107.5t181 58.5q90 14 125.5 33.5t35.5 54.5q0 45 -40.5 72t-107.5 27q-76 0 -124 -36.5t-59 -102.5l-59 13q14 83 79.5 131.5t162.5 48.5q96 0 154 -45t58 -119v-381h-59v77h-1q-26 -42 -81.5 -67t-123.5 -25q-91 0 -142.5 40.5t-51.5 112.5zM450 181
v134h-2q-13 -22 -47 -35.5t-104 -24.5q-101 -17 -143 -44t-42 -73q0 -99 144 -99q80 0 137 41.5t57 100.5zM168 706h38q14 -60 92 -60q79 0 91 60h39q-4 -52 -38.5 -81.5t-91.5 -29.5q-56 0 -91 29.5t-39 81.5z" />
    <glyph glyph-name="Aogonek" unicode="&#x104;" horiz-adv-x="711" 
d="M638 0l-70 157h-424l-70 -157h-69l317 700h67l317 -700h-68zM168 212h376l-187 420h-2zM565 -115q0 69 101 127l31 -12q-82 -46 -82 -103q0 -37 39 -37q25 0 59 20l20 -46q-41 -23 -86 -23q-39 0 -60.5 19t-21.5 55z" />
    <glyph glyph-name="aogonek" unicode="&#x105;" horiz-adv-x="576" 
d="M51 138q0 70 53 107.5t181 58.5q90 14 125.5 33.5t35.5 54.5q0 45 -40.5 72t-107.5 27q-76 0 -124 -36.5t-59 -102.5l-59 13q14 83 79.5 131.5t162.5 48.5q96 0 154 -45t58 -119v-381h-59v77h-1q-26 -42 -81.5 -67t-123.5 -25q-91 0 -142.5 40.5t-51.5 112.5zM450 181
v134h-2q-13 -22 -47 -35.5t-104 -24.5q-101 -17 -143 -44t-42 -73q0 -99 144 -99q80 0 137 41.5t57 100.5zM369 -115q0 69 101 127l31 -12q-82 -46 -82 -103q0 -37 39 -37q25 0 59 20l20 -46q-41 -23 -86 -23q-39 0 -60.5 19t-21.5 55z" />
    <glyph glyph-name="Cacute" unicode="&#x106;" horiz-adv-x="771" 
d="M47 350q-2 156 102 262t255 103q122 0 213 -64t116 -172l-62 -15q-24 92 -95.5 142.5t-171.5 50.5q-127 0 -209.5 -85.5t-82.5 -221.5t82.5 -221.5t209.5 -85.5q101 0 172.5 54.5t95.5 155.5l62 -16q-25 -116 -115.5 -184t-214.5 -68q-151 -3 -255 103t-102 262zM364 775
l80 110h87l-112 -110h-55z" />
    <glyph glyph-name="cacute" unicode="&#x107;" horiz-adv-x="639" 
d="M51 265q0 120 80.5 200t198.5 80q96 0 169 -51q72 -50 95 -138l-59 -15q-20 73 -73.5 111.5t-131.5 38.5q-94 0 -156.5 -63t-62.5 -163t62.5 -163t156.5 -63q78 0 131.5 38.5t73.5 111.5l59 -15q-23 -88 -95 -138q-73 -51 -169 -51q-118 0 -198.5 80t-80.5 200zM290 605
l80 110h87l-112 -110h-55z" />
    <glyph glyph-name="Ccircumflex" unicode="&#x108;" horiz-adv-x="771" 
d="M47 350q-2 156 102 262t255 103q122 0 213 -64t116 -172l-62 -15q-24 92 -95.5 142.5t-171.5 50.5q-127 0 -209.5 -85.5t-82.5 -221.5t82.5 -221.5t209.5 -85.5q101 0 172.5 54.5t95.5 155.5l62 -16q-25 -116 -115.5 -184t-214.5 -68q-151 -3 -255 103t-102 262zM523 787
l-34 -32l-84 90l-85 -90l-34 32l79 82h79z" />
    <glyph glyph-name="ccircumflex" unicode="&#x109;" horiz-adv-x="639" 
d="M51 265q0 120 80.5 200t198.5 80q96 0 169 -51q72 -50 95 -138l-59 -15q-20 73 -73.5 111.5t-131.5 38.5q-94 0 -156.5 -63t-62.5 -163t62.5 -163t156.5 -63q78 0 131.5 38.5t73.5 111.5l59 -15q-23 -88 -95 -138q-73 -51 -169 -51q-118 0 -198.5 80t-80.5 200zM449 617
l-34 -32l-84 90l-85 -90l-34 32l79 82h79z" />
    <glyph glyph-name="Cdotaccent" unicode="&#x10a;" horiz-adv-x="771" 
d="M47 350q-2 156 102 262t255 103q122 0 213 -64t116 -172l-62 -15q-24 92 -95.5 142.5t-171.5 50.5q-127 0 -209.5 -85.5t-82.5 -221.5t82.5 -221.5t209.5 -85.5q101 0 172.5 54.5t95.5 155.5l62 -16q-25 -116 -115.5 -184t-214.5 -68q-151 -3 -255 103t-102 262zM363 775
v81h83v-81h-83z" />
    <glyph glyph-name="cdotaccent" unicode="&#x10b;" horiz-adv-x="639" 
d="M51 265q0 120 80.5 200t198.5 80q96 0 169 -51q72 -50 95 -138l-59 -15q-20 73 -73.5 111.5t-131.5 38.5q-94 0 -156.5 -63t-62.5 -163t62.5 -163t156.5 -63q78 0 131.5 38.5t73.5 111.5l59 -15q-23 -88 -95 -138q-73 -51 -169 -51q-118 0 -198.5 80t-80.5 200zM289 605
v81h83v-81h-83z" />
    <glyph glyph-name="Ccaron" unicode="&#x10c;" horiz-adv-x="771" 
d="M47 350q-2 156 102 262t255 103q122 0 213 -64t116 -172l-62 -15q-24 92 -95.5 142.5t-171.5 50.5q-127 0 -209.5 -85.5t-82.5 -221.5t82.5 -221.5t209.5 -85.5q101 0 172.5 54.5t95.5 155.5l62 -16q-25 -116 -115.5 -184t-214.5 -68q-151 -3 -255 103t-102 262zM489 879
l34 -32l-79 -82h-79l-79 82l34 32l85 -89z" />
    <glyph glyph-name="ccaron" unicode="&#x10d;" horiz-adv-x="639" 
d="M51 265q0 120 80.5 200t198.5 80q96 0 169 -51q72 -50 95 -138l-59 -15q-20 73 -73.5 111.5t-131.5 38.5q-94 0 -156.5 -63t-62.5 -163t62.5 -163t156.5 -63q78 0 131.5 38.5t73.5 111.5l59 -15q-23 -88 -95 -138q-73 -51 -169 -51q-118 0 -198.5 80t-80.5 200zM415 709
l34 -32l-79 -82h-79l-79 82l34 32l85 -89z" />
    <glyph glyph-name="Dcaron" unicode="&#x10e;" horiz-adv-x="751" 
d="M91 0v700h271q163 0 252.5 -91.5t89.5 -258.5q0 -170 -88.5 -260t-254.5 -90h-270zM155 58h206q136 0 206.5 74t70.5 218q0 143 -70.5 217.5t-205.5 74.5h-207v-584zM429 864l34 -32l-79 -82h-79l-79 82l34 32l85 -89z" />
    <glyph glyph-name="dcaron" unicode="&#x10f;" horiz-adv-x="724" 
d="M51 265q0 120 80 200t197 80q67 0 122.5 -25t89.5 -69h2v279h60v-730h-58v79h-2q-34 -43 -89 -68.5t-120 -25.5q-122 0 -202 78t-80 202zM542 207v116q0 68 -61.5 118t-149.5 50q-95 0 -157.5 -63t-62.5 -163q0 -103 62.5 -164.5t162.5 -61.5q84 0 145 50.5t61 117.5z
M652 571v33q35 6 35 44h-38v82h89v-72q0 -81 -86 -87z" />
    <glyph glyph-name="Dcroat" unicode="&#x110;" horiz-adv-x="751" 
d="M91 0v700h271q163 0 252.5 -91.5t89.5 -258.5q0 -170 -88.5 -260t-254.5 -90h-270zM155 58h206q136 0 206.5 74t70.5 218q0 143 -70.5 217.5t-205.5 74.5h-207v-584zM-11 324v52h396v-52h-396z" />
    <glyph glyph-name="dcroat" unicode="&#x111;" horiz-adv-x="673" 
d="M51 265q0 120 80 200t197 80q67 0 122.5 -25t89.5 -69h2v279h60v-730h-58v79h-2q-34 -43 -89 -68.5t-120 -25.5q-122 0 -202 78t-80 202zM542 207v116q0 68 -61.5 118t-149.5 50q-95 0 -157.5 -63t-62.5 -163q0 -103 62.5 -164.5t162.5 -61.5q84 0 145 50.5t61 117.5z
M343 616v48h312v-48h-312z" />
    <glyph glyph-name="Emacron" unicode="&#x112;" horiz-adv-x="642" 
d="M91 0v700h494v-58h-430v-253h399v-55h-399v-276h430v-58h-494zM203 760v47h286v-47h-286z" />
    <glyph glyph-name="emacron" unicode="&#x113;" horiz-adv-x="652" 
d="M51 260q0 126 77.5 205.5t199.5 79.5q120 0 196.5 -79t76.5 -204v-22h-489q0 -89 63 -146t154 -57q143 0 211 126l48 -31q-78 -147 -259 -147q-124 0 -201 76t-77 199zM113 290h426q-3 88 -63 145.5t-148 57.5q-91 0 -150.5 -58t-64.5 -145zM185 605v47h286v-47h-286z
" />
    <glyph glyph-name="Ebreve" unicode="&#x114;" horiz-adv-x="642" 
d="M91 0v700h494v-58h-430v-253h399v-55h-399v-276h430v-58h-494zM216 861h38q14 -60 92 -60q79 0 91 60h39q-4 -52 -38.5 -81.5t-91.5 -29.5q-56 0 -91 29.5t-39 81.5z" />
    <glyph glyph-name="ebreve" unicode="&#x115;" horiz-adv-x="652" 
d="M51 260q0 126 77.5 205.5t199.5 79.5q120 0 196.5 -79t76.5 -204v-22h-489q0 -89 63 -146t154 -57q143 0 211 126l48 -31q-78 -147 -259 -147q-124 0 -201 76t-77 199zM113 290h426q-3 88 -63 145.5t-148 57.5q-91 0 -150.5 -58t-64.5 -145zM198 706h38q14 -60 92 -60
q79 0 91 60h39q-4 -52 -38.5 -81.5t-91.5 -29.5q-56 0 -91 29.5t-39 81.5z" />
    <glyph glyph-name="Edotaccent" unicode="&#x116;" horiz-adv-x="642" 
d="M91 0v700h494v-58h-430v-253h399v-55h-399v-276h430v-58h-494zM305 760v81h83v-81h-83z" />
    <glyph glyph-name="edotaccent" unicode="&#x117;" horiz-adv-x="652" 
d="M51 260q0 126 77.5 205.5t199.5 79.5q120 0 196.5 -79t76.5 -204v-22h-489q0 -89 63 -146t154 -57q143 0 211 126l48 -31q-78 -147 -259 -147q-124 0 -201 76t-77 199zM113 290h426q-3 88 -63 145.5t-148 57.5q-91 0 -150.5 -58t-64.5 -145zM287 605v81h83v-81h-83z" />
    <glyph glyph-name="Eogonek" unicode="&#x118;" horiz-adv-x="642" 
d="M91 0v700h494v-58h-430v-253h399v-55h-399v-276h430v-58h-494zM409 -115q0 69 101 127l31 -12q-82 -46 -82 -103q0 -37 39 -37q25 0 59 20l20 -46q-41 -23 -86 -23q-39 0 -60.5 19t-21.5 55z" />
    <glyph glyph-name="eogonek" unicode="&#x119;" horiz-adv-x="652" 
d="M51 260q0 126 77.5 205.5t199.5 79.5q120 0 196.5 -79t76.5 -204v-22h-489q0 -89 63 -146t154 -57q143 0 211 126l48 -31q-78 -147 -259 -147q-124 0 -201 76t-77 199zM113 290h426q-3 88 -63 145.5t-148 57.5q-91 0 -150.5 -58t-64.5 -145zM301 -115q0 69 101 127
l31 -12q-82 -46 -82 -103q0 -37 39 -37q25 0 59 20l20 -46q-41 -23 -86 -23q-39 0 -60.5 19t-21.5 55z" />
    <glyph glyph-name="Ecaron" unicode="&#x11a;" horiz-adv-x="642" 
d="M91 0v700h494v-58h-430v-253h399v-55h-399v-276h430v-58h-494zM431 864l34 -32l-79 -82h-79l-79 82l34 32l85 -89z" />
    <glyph glyph-name="ecaron" unicode="&#x11b;" horiz-adv-x="652" 
d="M51 260q0 126 77.5 205.5t199.5 79.5q120 0 196.5 -79t76.5 -204v-22h-489q0 -89 63 -146t154 -57q143 0 211 126l48 -31q-78 -147 -259 -147q-124 0 -201 76t-77 199zM113 290h426q-3 88 -63 145.5t-148 57.5q-91 0 -150.5 -58t-64.5 -145zM413 709l34 -32l-79 -82h-79
l-79 82l34 32l85 -89z" />
    <glyph glyph-name="Gcircumflex" unicode="&#x11c;" horiz-adv-x="774" 
d="M47 350q-2 155 100.5 261t252.5 104q120 0 208.5 -66.5t114.5 -172.5l-63 -15q-25 92 -94 144t-166 52q-126 0 -207 -86t-81 -221q0 -134 81.5 -220.5t206.5 -86.5q117 0 189.5 67t74.5 168h-254v55h317v-48q0 -131 -91 -215.5t-236 -84.5q-150 -2 -252.5 104t-100.5 261
zM519 787l-34 -32l-84 90l-85 -90l-34 32l79 82h79z" />
    <glyph glyph-name="gcircumflex" unicode="&#x11d;" horiz-adv-x="668" 
d="M91 -82l52 25q54 -129 201 -129q88 0 144 52t56 132v83h-2q-32 -45 -87.5 -70.5t-122.5 -25.5q-124 0 -202.5 78t-78.5 202q-2 118 79.5 200t197.5 80q67 0 122.5 -25t89.5 -69h2v79h60v-536q0 -102 -73 -168t-185 -66q-190 0 -253 158zM542 207v116q0 70 -62 119
t-149 49q-97 0 -158.5 -63t-61.5 -163q0 -104 60.5 -165t164.5 -61q84 0 145 50t61 118zM447 617l-34 -32l-84 90l-85 -90l-34 32l79 82h79z" />
    <glyph glyph-name="Gbreve" unicode="&#x11e;" horiz-adv-x="774" 
d="M47 350q-2 155 100.5 261t252.5 104q120 0 208.5 -66.5t114.5 -172.5l-63 -15q-25 92 -94 144t-166 52q-126 0 -207 -86t-81 -221q0 -134 81.5 -220.5t206.5 -86.5q117 0 189.5 67t74.5 168h-254v55h317v-48q0 -131 -91 -215.5t-236 -84.5q-150 -2 -252.5 104t-100.5 261
zM270 876h38q14 -60 92 -60q79 0 91 60h39q-4 -52 -38.5 -81.5t-91.5 -29.5q-56 0 -91 29.5t-39 81.5z" />
    <glyph glyph-name="gbreve" unicode="&#x11f;" horiz-adv-x="668" 
d="M91 -82l52 25q54 -129 201 -129q88 0 144 52t56 132v83h-2q-32 -45 -87.5 -70.5t-122.5 -25.5q-124 0 -202.5 78t-78.5 202q-2 118 79.5 200t197.5 80q67 0 122.5 -25t89.5 -69h2v79h60v-536q0 -102 -73 -168t-185 -66q-190 0 -253 158zM542 207v116q0 70 -62 119
t-149 49q-97 0 -158.5 -63t-61.5 -163q0 -104 60.5 -165t164.5 -61q84 0 145 50t61 118zM198 706h38q14 -60 92 -60q79 0 91 60h39q-4 -52 -38.5 -81.5t-91.5 -29.5q-56 0 -91 29.5t-39 81.5z" />
    <glyph glyph-name="Gdotaccent" unicode="&#x120;" horiz-adv-x="774" 
d="M47 350q-2 155 100.5 261t252.5 104q120 0 208.5 -66.5t114.5 -172.5l-63 -15q-25 92 -94 144t-166 52q-126 0 -207 -86t-81 -221q0 -134 81.5 -220.5t206.5 -86.5q117 0 189.5 67t74.5 168h-254v55h317v-48q0 -131 -91 -215.5t-236 -84.5q-150 -2 -252.5 104t-100.5 261
zM359 775v81h83v-81h-83z" />
    <glyph glyph-name="gdotaccent" unicode="&#x121;" horiz-adv-x="668" 
d="M91 -82l52 25q54 -129 201 -129q88 0 144 52t56 132v83h-2q-32 -45 -87.5 -70.5t-122.5 -25.5q-124 0 -202.5 78t-78.5 202q-2 118 79.5 200t197.5 80q67 0 122.5 -25t89.5 -69h2v79h60v-536q0 -102 -73 -168t-185 -66q-190 0 -253 158zM542 207v116q0 70 -62 119
t-149 49q-97 0 -158.5 -63t-61.5 -163q0 -104 60.5 -165t164.5 -61q84 0 145 50t61 118zM287 605v81h83v-81h-83z" />
    <glyph glyph-name="uni0122" unicode="&#x122;" horiz-adv-x="774" 
d="M47 350q-2 155 100.5 261t252.5 104q120 0 208.5 -66.5t114.5 -172.5l-63 -15q-25 92 -94 144t-166 52q-126 0 -207 -86t-81 -221q0 -134 81.5 -220.5t206.5 -86.5q117 0 189.5 67t74.5 168h-254v55h317v-48q0 -131 -91 -215.5t-236 -84.5q-150 -2 -252.5 104t-100.5 261
zM359 -223v33q35 6 35 44h-38v82h89v-72q0 -81 -86 -87z" />
    <glyph glyph-name="uni0123" unicode="&#x123;" horiz-adv-x="668" 
d="M91 -82l52 25q54 -129 201 -129q88 0 144 52t56 132v83h-2q-32 -45 -87.5 -70.5t-122.5 -25.5q-124 0 -202.5 78t-78.5 202q-2 118 79.5 200t197.5 80q67 0 122.5 -25t89.5 -69h2v79h60v-536q0 -102 -73 -168t-185 -66q-190 0 -253 158zM542 207v116q0 70 -62 119
t-149 49q-97 0 -158.5 -63t-61.5 -163q0 -104 60.5 -165t164.5 -61q84 0 145 50t61 118zM371 760v-32q-36 -6 -36 -43h39v-80h-92v70q0 79 89 85z" />
    <glyph glyph-name="Hcircumflex" unicode="&#x124;" horiz-adv-x="755" 
d="M91 0v700h64v-312h445v312h64v-700h-64v332h-445v-332h-64zM496 772l-34 -32l-84 90l-85 -90l-34 32l79 82h79z" />
    <glyph glyph-name="hcircumflex" unicode="&#x125;" horiz-adv-x="648" 
d="M71 0v730h60v-287h2q32 48 85.5 75t117.5 27q111 0 178.5 -61.5t67.5 -163.5v-320h-61v310q0 85 -49.5 133t-138.5 48q-88 0 -145 -54.5t-57 -137.5v-299h-60zM438 772l-34 -32l-84 90l-85 -90l-34 32l79 82h79z" />
    <glyph glyph-name="Hbar" unicode="&#x126;" horiz-adv-x="749" 
d="M749 572v-52h-87v-520h-64v332h-446v-332h-64v520h-88v52h88v128h64v-128h446v128h64v-128h87zM598 388v132h-446v-132h446z" />
    <glyph glyph-name="hbar" unicode="&#x127;" horiz-adv-x="648" 
d="M71 0v730h60v-287h2q32 48 85.5 75t117.5 27q111 0 178.5 -61.5t67.5 -163.5v-320h-61v310q0 85 -49.5 133t-138.5 48q-88 0 -145 -54.5t-57 -137.5v-299h-60zM5 616v48h312v-48h-312z" />
    <glyph glyph-name="Itilde" unicode="&#x128;" horiz-adv-x="245" 
d="M91 0v700h64v-700h-64zM113 778q-44 18 -62 18q-39 0 -45 -36h-37q3 38 25 60t59 22q32 0 82 -23q43 -19 63 -19q37 0 45 37h35q-2 -38 -24 -60t-59 -22q-31 0 -82 23z" />
    <glyph glyph-name="itilde" unicode="&#x129;" horiz-adv-x="202" 
d="M71 0v530h60v-530h-60zM91 608q-43 18 -62 18q-39 0 -45 -36h-37q3 38 25 60t59 22q32 0 82 -23q43 -19 63 -19q37 0 45 37h35q-2 -38 -24 -60t-59 -22q-31 0 -82 23z" />
    <glyph glyph-name="Imacron" unicode="&#x12a;" horiz-adv-x="245" 
d="M91 0v700h64v-700h-64zM-20 760v47h286v-47h-286z" />
    <glyph glyph-name="imacron" unicode="&#x12b;" horiz-adv-x="202" 
d="M71 0v530h60v-530h-60zM-42 590v47h286v-47h-286z" />
    <glyph glyph-name="Ibreve" unicode="&#x12c;" horiz-adv-x="245" 
d="M91 0v700h64v-700h-64zM-7 861h38q14 -60 92 -60q79 0 91 60h39q-4 -52 -38.5 -81.5t-91.5 -29.5q-56 0 -91 29.5t-39 81.5z" />
    <glyph glyph-name="ibreve" unicode="&#x12d;" horiz-adv-x="202" 
d="M71 0v530h60v-530h-60zM-29 691h38q14 -60 92 -60q79 0 91 60h39q-4 -52 -38.5 -81.5t-91.5 -29.5q-56 0 -91 29.5t-39 81.5z" />
    <glyph glyph-name="Iogonek" unicode="&#x12e;" horiz-adv-x="245" 
d="M91 0v700h64v-700h-64zM17 -115q0 69 101 127l31 -12q-82 -46 -82 -103q0 -37 39 -37q25 0 59 20l20 -46q-41 -23 -86 -23q-39 0 -60.5 19t-21.5 55z" />
    <glyph glyph-name="iogonek" unicode="&#x12f;" horiz-adv-x="202" 
d="M71 0v530h60v-530h-60zM-7 -115q0 69 101 127l31 -12q-82 -46 -82 -103q0 -37 39 -37q25 0 59 20l20 -46q-41 -23 -86 -23q-39 0 -60.5 19t-21.5 55zM61 625v76h80v-76h-80z" />
    <glyph glyph-name="Idotaccent" unicode="&#x130;" horiz-adv-x="245" 
d="M91 0v700h64v-700h-64zM82 760v81h83v-81h-83z" />
    <glyph glyph-name="dotlessi" unicode="&#x131;" horiz-adv-x="202" 
d="M71 0v530h60v-530h-60z" />
    <glyph glyph-name="Jcircumflex" unicode="&#x134;" horiz-adv-x="586" 
d="M30 218l62 8q10 -96 52 -139.5t126 -43.5q167 0 167 214v443h64v-450q0 -128 -59 -196.5t-172 -68.5q-217 0 -240 233zM588 772l-34 -32l-84 90l-85 -90l-34 32l79 82h79z" />
    <glyph glyph-name="jcircumflex" unicode="&#x135;" horiz-adv-x="211" 
d="M-53 -162v54h69q63 0 63 61v577h61v-580q0 -54 -31.5 -83t-88.5 -29h-73zM228 602l-34 -32l-84 90l-85 -90l-34 32l79 82h79z" />
    <glyph glyph-name="uni0136" unicode="&#x136;" horiz-adv-x="651" 
d="M91 0v700h64v-393h2l386 393h91l-302 -303l311 -397h-81l-273 354h-2l-132 -136v-218h-64zM318 -208v33q35 6 35 44h-38v82h89v-72q0 -81 -86 -87z" />
    <glyph glyph-name="uni0137" unicode="&#x137;" horiz-adv-x="581" 
d="M71 0v730h60v-470h2l319 270h93l-254 -214l268 -316h-80l-233 278h-2l-113 -96v-182h-60zM263 -208v33q35 6 35 44h-38v82h89v-72q0 -81 -86 -87z" />
    <glyph glyph-name="kgreenlandic" unicode="&#x138;" horiz-adv-x="560" 
d="M71 0v530h60v-270h2l303 270h89l-241 -214l254 -316h-78l-219 278h-2l-108 -96v-182h-60z" />
    <glyph glyph-name="Lacute" unicode="&#x139;" horiz-adv-x="587" 
d="M91 0v700h64v-642h397v-58h-461zM83 760l80 110h87l-112 -110h-55z" />
    <glyph glyph-name="lacute" unicode="&#x13a;" horiz-adv-x="202" 
d="M71 0v730h60v-730h-60zM61 790l80 110h87l-112 -110h-55z" />
    <glyph glyph-name="uni013B" unicode="&#x13b;" horiz-adv-x="587" 
d="M91 0v700h64v-642h397v-58h-461zM281 -208v33q35 6 35 44h-38v82h89v-72q0 -81 -86 -87z" />
    <glyph glyph-name="uni013C" unicode="&#x13c;" horiz-adv-x="202" 
d="M71 0v730h60v-730h-60zM61 -208v33q35 6 35 44h-38v82h89v-72q0 -81 -86 -87z" />
    <glyph glyph-name="Lcaron" unicode="&#x13d;" horiz-adv-x="561" 
d="M91 0v700h64v-642h397v-58h-461zM459 541v33q35 6 35 44h-38v82h89v-72q0 -81 -86 -87z" />
    <glyph glyph-name="lcaron" unicode="&#x13e;" horiz-adv-x="257" 
d="M71 0v730h60v-730h-60zM185 571v33q35 6 35 44h-38v82h89v-72q0 -81 -86 -87z" />
    <glyph glyph-name="Ldot" unicode="&#x13f;" horiz-adv-x="587" 
d="M91 0v700h64v-642h397v-58h-461zM347 341v100h102v-100h-102z" />
    <glyph glyph-name="ldot" unicode="&#x140;" horiz-adv-x="279" 
d="M71 0v730h60v-730h-60zM185 335v100h102v-100h-102z" />
    <glyph glyph-name="Lslash" unicode="&#x141;" horiz-adv-x="610" 
d="M144 0v700h64v-642h397v-58h-461zM442 524l-263 -239v3l-153 -144l-26 27l198 186v-2l218 198z" />
    <glyph glyph-name="lslash" unicode="&#x142;" horiz-adv-x="287" 
d="M114 0v730h60v-730h-60zM297 505l-160 -149v11l-119 -111l-27 27l147 138v-11l132 124z" />
    <glyph glyph-name="Nacute" unicode="&#x143;" horiz-adv-x="764" 
d="M91 0v700h69l448 -609h2v609h64v-700h-70l-447 609h-2v-609h-64zM342 760l80 110h87l-112 -110h-55z" />
    <glyph glyph-name="nacute" unicode="&#x144;" horiz-adv-x="648" 
d="M71 0v530h59v-87h2q30 47 85 74.5t119 27.5q110 0 178 -62t68 -162v-321h-61v310q0 84 -50 132.5t-135 48.5q-90 0 -147.5 -54.5t-57.5 -137.5v-299h-60zM292 605l80 110h87l-112 -110h-55z" />
    <glyph glyph-name="uni0145" unicode="&#x145;" horiz-adv-x="764" 
d="M91 0v700h69l448 -609h2v609h64v-700h-70l-447 609h-2v-609h-64zM352 -208v33q35 6 35 44h-38v82h89v-72q0 -81 -86 -87z" />
    <glyph glyph-name="uni0146" unicode="&#x146;" horiz-adv-x="648" 
d="M71 0v530h59v-87h2q30 47 85 74.5t119 27.5q110 0 178 -62t68 -162v-321h-61v310q0 84 -50 132.5t-135 48.5q-90 0 -147.5 -54.5t-57.5 -137.5v-299h-60zM286 -208v33q35 6 35 44h-38v82h89v-72q0 -81 -86 -87z" />
    <glyph glyph-name="Ncaron" unicode="&#x147;" horiz-adv-x="764" 
d="M91 0v700h69l448 -609h2v609h64v-700h-70l-447 609h-2v-609h-64zM467 864l34 -32l-79 -82h-79l-79 82l34 32l85 -89z" />
    <glyph glyph-name="ncaron" unicode="&#x148;" horiz-adv-x="648" 
d="M71 0v530h59v-87h2q30 47 85 74.5t119 27.5q110 0 178 -62t68 -162v-321h-61v310q0 84 -50 132.5t-135 48.5q-90 0 -147.5 -54.5t-57.5 -137.5v-299h-60zM417 709l34 -32l-79 -82h-79l-79 82l34 32l85 -89z" />
    <glyph glyph-name="Eng" unicode="&#x14a;" horiz-adv-x="766" 
d="M611 700h64v-750q0 -55 -32.5 -83.5t-92.5 -28.5h-60v55h65q62 0 62 62v45l-460 603h-2v-603h-64v700h65l453 -593h2v593z" />
    <glyph glyph-name="eng" unicode="&#x14b;" horiz-adv-x="648" 
d="M582 321v-371q0 -55 -32 -83.5t-91 -28.5h-60v54h61q32 0 46.5 14.5t14.5 46.5v357q0 84 -50 132.5t-135 48.5q-90 0 -147.5 -54.5t-57.5 -137.5v-299h-60v530h59v-87h2q30 47 85 74.5t119 27.5q110 0 178 -62t68 -162z" />
    <glyph glyph-name="Omacron" unicode="&#x14c;" horiz-adv-x="808" 
d="M47 350q-1 158 101 262.5t256 102.5q153 2 255.5 -102.5t101.5 -262.5q1 -158 -101.5 -262.5t-255.5 -102.5q-154 -2 -256 102.5t-101 262.5zM696 350q0 136 -82 221.5t-210 85.5t-210 -85.5t-82 -221.5t82 -221.5t210 -85.5t210 85.5t82 221.5zM261 775v47h286v-47h-286
z" />
    <glyph glyph-name="omacron" unicode="&#x14d;" horiz-adv-x="671" 
d="M51 265q0 121 80.5 200.5t204.5 79.5q123 0 203.5 -79.5t80.5 -200.5t-80.5 -200.5t-203.5 -79.5q-124 0 -204.5 79.5t-80.5 200.5zM560 265q0 101 -62.5 163.5t-161.5 62.5q-98 0 -161.5 -63t-63.5 -163t63.5 -163t161.5 -63q99 0 161.5 62.5t62.5 163.5zM193 605v47
h286v-47h-286z" />
    <glyph glyph-name="Obreve" unicode="&#x14e;" horiz-adv-x="808" 
d="M47 350q-1 158 101 262.5t256 102.5q153 2 255.5 -102.5t101.5 -262.5q1 -158 -101.5 -262.5t-255.5 -102.5q-154 -2 -256 102.5t-101 262.5zM696 350q0 136 -82 221.5t-210 85.5t-210 -85.5t-82 -221.5t82 -221.5t210 -85.5t210 85.5t82 221.5zM274 876h38
q14 -60 92 -60q79 0 91 60h39q-4 -52 -38.5 -81.5t-91.5 -29.5q-56 0 -91 29.5t-39 81.5z" />
    <glyph glyph-name="obreve" unicode="&#x14f;" horiz-adv-x="671" 
d="M51 265q0 121 80.5 200.5t204.5 79.5q123 0 203.5 -79.5t80.5 -200.5t-80.5 -200.5t-203.5 -79.5q-124 0 -204.5 79.5t-80.5 200.5zM560 265q0 101 -62.5 163.5t-161.5 62.5q-98 0 -161.5 -63t-63.5 -163t63.5 -163t161.5 -63q99 0 161.5 62.5t62.5 163.5zM206 706h38
q14 -60 92 -60q79 0 91 60h39q-4 -52 -38.5 -81.5t-91.5 -29.5q-56 0 -91 29.5t-39 81.5z" />
    <glyph glyph-name="Ohungarumlaut" unicode="&#x150;" horiz-adv-x="808" 
d="M47 350q-1 158 101 262.5t256 102.5q153 2 255.5 -102.5t101.5 -262.5q1 -158 -101.5 -262.5t-255.5 -102.5q-154 -2 -256 102.5t-101 262.5zM696 350q0 136 -82 221.5t-210 85.5t-210 -85.5t-82 -221.5t82 -221.5t210 -85.5t210 85.5t82 221.5zM282 775l75 110h84
l-105 -110h-54zM425 775l76 110h84l-105 -110h-55z" />
    <glyph glyph-name="ohungarumlaut" unicode="&#x151;" horiz-adv-x="671" 
d="M51 265q0 121 80.5 200.5t204.5 79.5q123 0 203.5 -79.5t80.5 -200.5t-80.5 -200.5t-203.5 -79.5q-124 0 -204.5 79.5t-80.5 200.5zM560 265q0 101 -62.5 163.5t-161.5 62.5q-98 0 -161.5 -63t-63.5 -163t63.5 -163t161.5 -63q99 0 161.5 62.5t62.5 163.5zM214 605
l75 110h84l-105 -110h-54zM357 605l76 110h84l-105 -110h-55z" />
    <glyph glyph-name="OE" unicode="&#x152;" horiz-adv-x="1081" 
d="M47 350q-2 157 100 262.5t251 102.5q102 0 181 -49h2v34h444v-58h-380v-253h348v-55h-348v-276h380v-58h-444v34h-2q-80 -49 -181 -49q-155 0 -253 102.5t-98 262.5zM581 105v494q-77 58 -181 58q-125 0 -207 -85.5t-82 -221.5q0 -138 80 -222.5t209 -84.5q105 0 181 62z
" />
    <glyph glyph-name="oe" unicode="&#x153;" horiz-adv-x="1161" 
d="M1111 262v-22h-489q0 -89 63 -146t154 -57q143 0 211 126l48 -31q-78 -147 -259 -147q-87 0 -152 39.5t-98 109.5q-34 -70 -100.5 -109.5t-152.5 -39.5q-124 0 -204.5 79.5t-80.5 200.5t80.5 200.5t204.5 79.5q85 0 152.5 -41t101.5 -111q33 72 97.5 112t150.5 40
q120 0 196.5 -79t76.5 -204zM560 265q0 101 -62.5 164.5t-161.5 63.5t-162 -63t-63 -165t63 -165t162 -63t161.5 63.5t62.5 164.5zM623 290h427q-5 89 -64.5 146t-148.5 57q-91 0 -151 -58.5t-63 -144.5z" />
    <glyph glyph-name="Racute" unicode="&#x154;" horiz-adv-x="692" 
d="M442 293v-1l186 -292h-74l-183 293h-216v-293h-64v700h332q110 0 171 -53.5t61 -150.5q0 -93 -56.5 -146t-156.5 -57zM155 351h265q171 0 171 145q0 146 -174 146h-262v-291zM308 760l80 110h87l-112 -110h-55z" />
    <glyph glyph-name="racute" unicode="&#x155;" horiz-adv-x="362" 
d="M71 0v530h58v-57h2q21 30 56.5 48t76.5 18q32 0 76 -12l-14 -57q-46 10 -67 10q-58 0 -93 -39t-35 -107v-334h-60zM127 590l80 110h87l-112 -110h-55z" />
    <glyph glyph-name="uni0156" unicode="&#x156;" horiz-adv-x="692" 
d="M442 293v-1l186 -292h-74l-183 293h-216v-293h-64v700h332q110 0 171 -53.5t61 -150.5q0 -93 -56.5 -146t-156.5 -57zM155 351h265q171 0 171 145q0 146 -174 146h-262v-291zM317 -208v33q35 6 35 44h-38v82h89v-72q0 -81 -86 -87z" />
    <glyph glyph-name="uni0157" unicode="&#x157;" horiz-adv-x="362" 
d="M71 0v530h58v-57h2q21 30 56.5 48t76.5 18q32 0 76 -12l-14 -57q-46 10 -67 10q-58 0 -93 -39t-35 -107v-334h-60zM61 -208v33q35 6 35 44h-38v82h89v-72q0 -81 -86 -87z" />
    <glyph glyph-name="Rcaron" unicode="&#x158;" horiz-adv-x="692" 
d="M442 293v-1l186 -292h-74l-183 293h-216v-293h-64v700h332q110 0 171 -53.5t61 -150.5q0 -93 -56.5 -146t-156.5 -57zM155 351h265q171 0 171 145q0 146 -174 146h-262v-291zM433 864l34 -32l-79 -82h-79l-79 82l34 32l85 -89z" />
    <glyph glyph-name="rcaron" unicode="&#x159;" horiz-adv-x="362" 
d="M71 0v530h58v-57h2q21 30 56.5 48t76.5 18q32 0 76 -12l-14 -57q-46 10 -67 10q-58 0 -93 -39t-35 -107v-334h-60zM252 694l34 -32l-79 -82h-79l-79 82l34 32l85 -89z" />
    <glyph glyph-name="Sacute" unicode="&#x15a;" horiz-adv-x="666" 
d="M37 245l63 9q20 -212 260 -212q94 0 149.5 37t55.5 100q0 64 -53 98.5t-190 61.5q-148 30 -206.5 70.5t-58.5 115.5q0 84 70 137t182 53q113 0 192.5 -60.5t92.5 -157.5l-63 -12q-12 80 -71.5 126.5t-150.5 46.5q-85 0 -137 -36t-52 -95q0 -50 46 -77.5t172 -53.5
q160 -33 225.5 -81t65.5 -134q0 -89 -74 -142.5t-196 -53.5q-143 0 -228 68.5t-94 191.5zM269 775l80 110h87l-112 -110h-55z" />
    <glyph glyph-name="sacute" unicode="&#x15b;" horiz-adv-x="594" 
d="M41 183l57 11q10 -76 66.5 -116.5t151.5 -40.5q82 0 130 27t48 73q0 45 -42.5 69t-148.5 39q-135 19 -189 52.5t-54 96.5q0 67 61 109t158 42t167 -48.5t82 -122.5l-57 -11q-12 59 -64 94.5t-128 35.5q-71 0 -115.5 -27t-44.5 -70q0 -41 39.5 -62t146.5 -37
q137 -21 192.5 -56.5t55.5 -103.5q0 -69 -64.5 -110.5t-172.5 -41.5q-117 0 -190 54q-74 52 -85 144zM239 605l80 110h87l-112 -110h-55z" />
    <glyph glyph-name="Scircumflex" unicode="&#x15c;" horiz-adv-x="666" 
d="M37 245l63 9q20 -212 260 -212q94 0 149.5 37t55.5 100q0 64 -53 98.5t-190 61.5q-148 30 -206.5 70.5t-58.5 115.5q0 84 70 137t182 53q113 0 192.5 -60.5t92.5 -157.5l-63 -12q-12 80 -71.5 126.5t-150.5 46.5q-85 0 -137 -36t-52 -95q0 -50 46 -77.5t172 -53.5
q160 -33 225.5 -81t65.5 -134q0 -89 -74 -142.5t-196 -53.5q-143 0 -228 68.5t-94 191.5zM428 787l-34 -32l-84 90l-85 -90l-34 32l79 82h79z" />
    <glyph glyph-name="scircumflex" unicode="&#x15d;" horiz-adv-x="594" 
d="M41 183l57 11q10 -76 66.5 -116.5t151.5 -40.5q82 0 130 27t48 73q0 45 -42.5 69t-148.5 39q-135 19 -189 52.5t-54 96.5q0 67 61 109t158 42t167 -48.5t82 -122.5l-57 -11q-12 59 -64 94.5t-128 35.5q-71 0 -115.5 -27t-44.5 -70q0 -41 39.5 -62t146.5 -37
q137 -21 192.5 -56.5t55.5 -103.5q0 -69 -64.5 -110.5t-172.5 -41.5q-117 0 -190 54q-74 52 -85 144zM398 617l-34 -32l-84 90l-85 -90l-34 32l79 82h79z" />
    <glyph glyph-name="Scedilla" unicode="&#x15e;" horiz-adv-x="666" 
d="M37 245l63 9q20 -212 260 -212q94 0 149.5 37t55.5 100q0 64 -53 98.5t-190 61.5q-148 30 -206.5 70.5t-58.5 115.5q0 84 70 137t182 53q113 0 192.5 -60.5t92.5 -157.5l-63 -12q-12 80 -71.5 126.5t-150.5 46.5q-85 0 -137 -36t-52 -95q0 -50 46 -77.5t172 -53.5
q160 -33 225.5 -81t65.5 -134q0 -89 -74 -142.5t-196 -53.5q-143 0 -228 68.5t-94 191.5zM488 -138q0 -39 -29.5 -63.5t-75.5 -24.5q-60 0 -106 40l28 34q35 -33 78 -33q26 0 43 13t17 35q0 21 -16 33t-42 12q-37 0 -67 -27l-35 16l68 112l34 -15l-37 -59q18 9 44 9
q43 0 69.5 -23t26.5 -59z" />
    <glyph glyph-name="scedilla" unicode="&#x15f;" horiz-adv-x="594" 
d="M41 183l57 11q10 -76 66.5 -116.5t151.5 -40.5q82 0 130 27t48 73q0 45 -42.5 69t-148.5 39q-135 19 -189 52.5t-54 96.5q0 67 61 109t158 42t167 -48.5t82 -122.5l-57 -11q-12 59 -64 94.5t-128 35.5q-71 0 -115.5 -27t-44.5 -70q0 -41 39.5 -62t146.5 -37
q137 -21 192.5 -56.5t55.5 -103.5q0 -69 -64.5 -110.5t-172.5 -41.5q-117 0 -190 54q-74 52 -85 144zM445 -138q0 -39 -29.5 -63.5t-75.5 -24.5q-60 0 -106 40l28 34q34 -33 78 -33q26 0 43 13t17 35q0 21 -16 33t-42 12q-37 0 -67 -27l-35 16l68 112l34 -15l-37 -59
q18 9 44 9q43 0 69.5 -23t26.5 -59z" />
    <glyph glyph-name="Scaron" unicode="&#x160;" horiz-adv-x="666" 
d="M37 245l63 9q20 -212 260 -212q94 0 149.5 37t55.5 100q0 64 -53 98.5t-190 61.5q-148 30 -206.5 70.5t-58.5 115.5q0 84 70 137t182 53q113 0 192.5 -60.5t92.5 -157.5l-63 -12q-12 80 -71.5 126.5t-150.5 46.5q-85 0 -137 -36t-52 -95q0 -50 46 -77.5t172 -53.5
q160 -33 225.5 -81t65.5 -134q0 -89 -74 -142.5t-196 -53.5q-143 0 -228 68.5t-94 191.5zM394 879l34 -32l-79 -82h-79l-79 82l34 32l85 -89z" />
    <glyph glyph-name="scaron" unicode="&#x161;" horiz-adv-x="594" 
d="M41 183l57 11q10 -76 66.5 -116.5t151.5 -40.5q82 0 130 27t48 73q0 45 -42.5 69t-148.5 39q-135 19 -189 52.5t-54 96.5q0 67 61 109t158 42t167 -48.5t82 -122.5l-57 -11q-12 59 -64 94.5t-128 35.5q-71 0 -115.5 -27t-44.5 -70q0 -41 39.5 -62t146.5 -37
q137 -21 192.5 -56.5t55.5 -103.5q0 -69 -64.5 -110.5t-172.5 -41.5q-117 0 -190 54q-74 52 -85 144zM364 709l34 -32l-79 -82h-79l-79 82l34 32l85 -89z" />
    <glyph glyph-name="uni0162" unicode="&#x162;" horiz-adv-x="670" 
d="M303 0v642h-268v58h600v-58h-268v-642h-64zM464 -124q0 -39 -29.5 -63.5t-75.5 -24.5q-60 0 -106 40l28 34q35 -33 78 -33q26 0 43 13t17 35q0 21 -16 33t-42 12q-37 0 -67 -27l-35 16l68 112l34 -15l-37 -59q18 9 44 9q43 0 69.5 -23t26.5 -59z" />
    <glyph glyph-name="uni0163" unicode="&#x163;" horiz-adv-x="392" 
d="M364 479h-169v-374q0 -28 13 -39.5t44 -11.5h83v-54h-83q-62 0 -90 25t-28 80v374h-112v51h112v115h61v-115h169v-51zM348 -124q0 -39 -29.5 -63.5t-75.5 -24.5q-60 0 -106 40l28 34q35 -33 78 -33q26 0 43 13t17 35q0 21 -16 33t-42 12q-37 0 -67 -27l-35 16l68 112
l34 -15l-37 -59q18 9 44 9q43 0 69.5 -23t26.5 -59z" />
    <glyph glyph-name="Tcaron" unicode="&#x164;" horiz-adv-x="670" 
d="M303 0v642h-268v58h600v-58h-268v-642h-64zM421 864l34 -32l-79 -82h-79l-79 82l34 32l85 -89z" />
    <glyph glyph-name="tcaron" unicode="&#x165;" horiz-adv-x="392" 
d="M364 479h-169v-374q0 -28 13 -39.5t44 -11.5h83v-54h-83q-62 0 -90 25t-28 80v374h-112v51h112v115h61v-115h169v-51zM273 580v33q35 6 35 44h-38v82h89v-72q0 -81 -86 -87z" />
    <glyph glyph-name="Tbar" unicode="&#x166;" horiz-adv-x="670" 
d="M303 0v642h-268v58h600v-58h-268v-642h-64zM144 324v52h396v-52h-396z" />
    <glyph glyph-name="tbar" unicode="&#x167;" horiz-adv-x="392" 
d="M364 479h-169v-374q0 -28 13 -39.5t44 -11.5h83v-54h-83q-62 0 -90 25t-28 80v374h-112v51h112v115h61v-115h169v-51zM42 255v48h312v-48h-312z" />
    <glyph glyph-name="Utilde" unicode="&#x168;" horiz-adv-x="754" 
d="M86 265v435h64v-433q0 -117 55 -170.5t172 -53.5t172 54t55 170v433h64v-435q0 -280 -291 -280t-291 280zM367 778q-44 18 -62 18q-39 0 -45 -36h-37q3 38 25 60t59 22q32 0 82 -23q43 -19 63 -19q37 0 45 37h35q-2 -38 -24 -60t-59 -22q-31 0 -82 23z" />
    <glyph glyph-name="utilde" unicode="&#x169;" horiz-adv-x="629" 
d="M61 216v314h60v-304q0 -90 48 -138.5t136 -48.5q85 0 139 54.5t54 137.5v299h61v-530h-60v86h-2q-63 -101 -204 -101q-109 0 -170.5 61.5t-61.5 169.5zM300 608q-43 18 -62 18q-39 0 -45 -36h-37q3 38 25 60t59 22q32 0 82 -23q43 -19 63 -19q37 0 45 37h35
q-2 -38 -24 -60t-59 -22q-31 0 -82 23z" />
    <glyph glyph-name="Umacron" unicode="&#x16a;" horiz-adv-x="754" 
d="M86 265v435h64v-433q0 -117 55 -170.5t172 -53.5t172 54t55 170v433h64v-435q0 -280 -291 -280t-291 280zM234 760v47h286v-47h-286z" />
    <glyph glyph-name="umacron" unicode="&#x16b;" horiz-adv-x="629" 
d="M61 216v314h60v-304q0 -90 48 -138.5t136 -48.5q85 0 139 54.5t54 137.5v299h61v-530h-60v86h-2q-63 -101 -204 -101q-109 0 -170.5 61.5t-61.5 169.5zM167 590v47h286v-47h-286z" />
    <glyph glyph-name="Ubreve" unicode="&#x16c;" horiz-adv-x="754" 
d="M86 265v435h64v-433q0 -117 55 -170.5t172 -53.5t172 54t55 170v433h64v-435q0 -280 -291 -280t-291 280zM247 861h38q14 -60 92 -60q79 0 91 60h39q-4 -52 -38.5 -81.5t-91.5 -29.5q-56 0 -91 29.5t-39 81.5z" />
    <glyph glyph-name="ubreve" unicode="&#x16d;" horiz-adv-x="629" 
d="M61 216v314h60v-304q0 -90 48 -138.5t136 -48.5q85 0 139 54.5t54 137.5v299h61v-530h-60v86h-2q-63 -101 -204 -101q-109 0 -170.5 61.5t-61.5 169.5zM180 691h38q14 -60 92 -60q79 0 91 60h39q-4 -52 -38.5 -81.5t-91.5 -29.5q-56 0 -91 29.5t-39 81.5z" />
    <glyph glyph-name="Uring" unicode="&#x16e;" horiz-adv-x="754" 
d="M86 265v435h64v-433q0 -117 55 -170.5t172 -53.5t172 54t55 170v433h64v-435q0 -280 -291 -280t-291 280zM264 770q0 46 32 76.5t81 30.5q50 0 82 -30.5t32 -76.5t-32 -76.5t-82 -30.5q-49 0 -81 30.5t-32 76.5zM447 770q0 31 -19.5 50.5t-50.5 19.5q-30 0 -50 -19.5
t-20 -50.5t20 -50.5t50 -19.5q31 0 50.5 19.5t19.5 50.5z" />
    <glyph glyph-name="uring" unicode="&#x16f;" horiz-adv-x="629" 
d="M61 216v314h60v-304q0 -90 48 -138.5t136 -48.5q85 0 139 54.5t54 137.5v299h61v-530h-60v86h-2q-63 -101 -204 -101q-109 0 -170.5 61.5t-61.5 169.5zM197 600q0 46 32 76.5t81 30.5q50 0 82 -30.5t32 -76.5t-32 -76.5t-82 -30.5q-49 0 -81 30.5t-32 76.5zM380 600
q0 31 -19.5 50.5t-50.5 19.5q-30 0 -50 -19.5t-20 -50.5t20 -50.5t50 -19.5q31 0 50.5 19.5t19.5 50.5z" />
    <glyph glyph-name="Uhungarumlaut" unicode="&#x170;" horiz-adv-x="754" 
d="M86 265v435h64v-433q0 -117 55 -170.5t172 -53.5t172 54t55 170v433h64v-435q0 -280 -291 -280t-291 280zM255 760l75 110h84l-105 -110h-54zM398 760l76 110h84l-105 -110h-55z" />
    <glyph glyph-name="uhungarumlaut" unicode="&#x171;" horiz-adv-x="629" 
d="M61 216v314h60v-304q0 -90 48 -138.5t136 -48.5q85 0 139 54.5t54 137.5v299h61v-530h-60v86h-2q-63 -101 -204 -101q-109 0 -170.5 61.5t-61.5 169.5zM188 590l75 110h84l-105 -110h-54zM331 590l76 110h84l-105 -110h-55z" />
    <glyph glyph-name="Uogonek" unicode="&#x172;" horiz-adv-x="754" 
d="M86 265v435h64v-433q0 -117 55 -170.5t172 -53.5t172 54t55 170v433h64v-435q0 -280 -291 -280t-291 280zM365 -115q0 69 101 127l31 -12q-82 -46 -82 -103q0 -37 39 -37q25 0 59 20l20 -46q-41 -23 -86 -23q-39 0 -60.5 19t-21.5 55z" />
    <glyph glyph-name="uogonek" unicode="&#x173;" horiz-adv-x="629" 
d="M61 216v314h60v-304q0 -90 48 -138.5t136 -48.5q85 0 139 54.5t54 137.5v299h61v-530h-60v86h-2q-63 -101 -204 -101q-109 0 -170.5 61.5t-61.5 169.5zM422 -115q0 69 101 127l31 -12q-82 -46 -82 -103q0 -37 39 -37q25 0 59 20l20 -46q-41 -23 -86 -23q-39 0 -60.5 19
t-21.5 55z" />
    <glyph glyph-name="Wcircumflex" unicode="&#x174;" horiz-adv-x="999" 
d="M184 0l-164 700h66l144 -610h2l237 610h61l238 -610h2l143 610h66l-164 -700h-76l-238 608h-2l-239 -608h-76zM619 772l-34 -32l-84 90l-85 -90l-34 32l79 82h79z" />
    <glyph glyph-name="wcircumflex" unicode="&#x175;" horiz-adv-x="859" 
d="M183 0l-156 530h61l128 -443h2l182 443h58l182 -443h2l129 443h61l-156 -530h-55l-191 464h-2l-190 -464h-55zM548 602l-34 -32l-84 90l-85 -90l-34 32l79 82h79z" />
    <glyph glyph-name="Ycircumflex" unicode="&#x176;" horiz-adv-x="671" 
d="M303 0v286l-303 414h76l258 -357h2l258 357h77l-304 -414v-286h-64zM455 772l-34 -32l-84 90l-85 -90l-34 32l79 82h79z" />
    <glyph glyph-name="ycircumflex" unicode="&#x177;" horiz-adv-x="574" 
d="M117 -225l136 271l-243 484h69l207 -420h2l207 420h69l-379 -755h-68zM406 602l-34 -32l-84 90l-85 -90l-34 32l79 82h79z" />
    <glyph glyph-name="Ydieresis" unicode="&#x178;" horiz-adv-x="671" 
d="M303 0v286l-303 414h76l258 -357h2l258 357h77l-304 -414v-286h-64zM204 750v82h84v-82h-84zM385 750v82h84v-82h-84z" />
    <glyph glyph-name="Zacute" unicode="&#x179;" horiz-adv-x="735" 
d="M47 0v52l556 588v2h-523v58h608v-52l-556 -588v-2h534v-58h-619zM344 760l80 110h87l-112 -110h-55z" />
    <glyph glyph-name="zacute" unicode="&#x17a;" horiz-adv-x="583" 
d="M28 0v48l438 428v2h-416v52h503v-48l-439 -428v-2h437v-52h-523zM251 590l80 110h87l-112 -110h-55z" />
    <glyph glyph-name="Zdotaccent" unicode="&#x17b;" horiz-adv-x="735" 
d="M47 0v52l556 588v2h-523v58h608v-52l-556 -588v-2h534v-58h-619zM343 760v81h83v-81h-83z" />
    <glyph glyph-name="zdotaccent" unicode="&#x17c;" horiz-adv-x="583" 
d="M28 0v48l438 428v2h-416v52h503v-48l-439 -428v-2h437v-52h-523zM251 625v76h80v-76h-80z" />
    <glyph glyph-name="Zcaron" unicode="&#x17d;" horiz-adv-x="735" 
d="M47 0v52l556 588v2h-523v58h608v-52l-556 -588v-2h534v-58h-619zM469 864l34 -32l-79 -82h-79l-79 82l34 32l85 -89z" />
    <glyph glyph-name="zcaron" unicode="&#x17e;" horiz-adv-x="583" 
d="M28 0v48l438 428v2h-416v52h503v-48l-439 -428v-2h437v-52h-523zM376 694l34 -32l-79 -82h-79l-79 82l34 32l85 -89z" />
    <glyph glyph-name="longs" unicode="&#x17f;" horiz-adv-x="309" 
d="M116 0v478h-94v52h94v67q0 52 30 80t86 28h104v-53h-100q-59 0 -59 -59v-593h-61z" />
    <glyph glyph-name="uni018E" unicode="&#x18e;" horiz-adv-x="642" 
d="M551 0h-494v58h430v276h-399v55h399v253h-430v58h494v-700z" />
    <glyph glyph-name="uni018F" unicode="&#x18f;" horiz-adv-x="782" 
d="M47 349v29h622q-3 122 -82 200.5t-198 78.5q-91 0 -160.5 -47t-103.5 -130l-59 26q41 98 127 153.5t196 55.5q152 2 250 -102t96 -264q0 -160 -96.5 -262t-247.5 -102q-155 0 -249.5 100t-94.5 264zM669 322h-558q3 -123 80.5 -201t199.5 -78q118 0 196.5 79t81.5 200z
" />
    <glyph glyph-name="florin" unicode="&#x192;" horiz-adv-x="480" 
d="M271 590l-11 -60h175v-54h-184l-82 -462l-13 -73q-16 -103 -132 -103h-82v53h83q34 0 50.5 14.5t21.5 46.5l11 62l82 462h-153v54h162l13 72q18 103 132 103h103v-53h-105q-33 0 -49.5 -14.5t-21.5 -47.5z" />
    <glyph glyph-name="uni01CD" unicode="&#x1cd;" horiz-adv-x="711" 
d="M638 0l-70 157h-424l-70 -157h-69l317 700h67l317 -700h-68zM168 212h376l-187 420h-2zM441 864l34 -32l-79 -82h-79l-79 82l34 32l85 -89z" />
    <glyph glyph-name="uni01CE" unicode="&#x1ce;" horiz-adv-x="576" 
d="M51 138q0 70 53 107.5t181 58.5q90 14 125.5 33.5t35.5 54.5q0 45 -40.5 72t-107.5 27q-76 0 -124 -36.5t-59 -102.5l-59 13q14 83 79.5 131.5t162.5 48.5q96 0 154 -45t58 -119v-381h-59v77h-1q-26 -42 -81.5 -67t-123.5 -25q-91 0 -142.5 40.5t-51.5 112.5zM450 181
v134h-2q-13 -22 -47 -35.5t-104 -24.5q-101 -17 -143 -44t-42 -73q0 -99 144 -99q80 0 137 41.5t57 100.5zM383 709l34 -32l-79 -82h-79l-79 82l34 32l85 -89z" />
    <glyph glyph-name="uni01CF" unicode="&#x1cf;" horiz-adv-x="245" 
d="M91 0v700h64v-700h-64zM208 864l34 -32l-79 -82h-79l-79 82l34 32l85 -89z" />
    <glyph glyph-name="uni01D0" unicode="&#x1d0;" horiz-adv-x="202" 
d="M71 0v530h60v-530h-60zM185 694l34 -32l-79 -82h-79l-79 82l34 32l85 -89z" />
    <glyph glyph-name="uni01D1" unicode="&#x1d1;" horiz-adv-x="808" 
d="M47 350q-1 158 101 262.5t256 102.5q153 2 255.5 -102.5t101.5 -262.5q1 -158 -101.5 -262.5t-255.5 -102.5q-154 -2 -256 102.5t-101 262.5zM696 350q0 136 -82 221.5t-210 85.5t-210 -85.5t-82 -221.5t82 -221.5t210 -85.5t210 85.5t82 221.5zM489 879l34 -32l-79 -82
h-79l-79 82l34 32l85 -89z" />
    <glyph glyph-name="uni01D2" unicode="&#x1d2;" horiz-adv-x="671" 
d="M51 265q0 121 80.5 200.5t204.5 79.5q123 0 203.5 -79.5t80.5 -200.5t-80.5 -200.5t-203.5 -79.5q-124 0 -204.5 79.5t-80.5 200.5zM560 265q0 101 -62.5 163.5t-161.5 62.5q-98 0 -161.5 -63t-63.5 -163t63.5 -163t161.5 -63q99 0 161.5 62.5t62.5 163.5zM421 709
l34 -32l-79 -82h-79l-79 82l34 32l85 -89z" />
    <glyph glyph-name="uni01D3" unicode="&#x1d3;" horiz-adv-x="754" 
d="M86 265v435h64v-433q0 -117 55 -170.5t172 -53.5t172 54t55 170v433h64v-435q0 -280 -291 -280t-291 280zM462 864l34 -32l-79 -82h-79l-79 82l34 32l85 -89z" />
    <glyph glyph-name="uni01D4" unicode="&#x1d4;" horiz-adv-x="629" 
d="M61 216v314h60v-304q0 -90 48 -138.5t136 -48.5q85 0 139 54.5t54 137.5v299h61v-530h-60v86h-2q-63 -101 -204 -101q-109 0 -170.5 61.5t-61.5 169.5zM395 694l34 -32l-79 -82h-79l-79 82l34 32l85 -89z" />
    <glyph glyph-name="uni01D5" unicode="&#x1d5;" horiz-adv-x="754" 
d="M86 265v435h64v-433q0 -117 55 -170.5t172 -53.5t172 54t55 170v433h64v-435q0 -280 -291 -280t-291 280zM245 750v82h84v-82h-84zM426 750v82h84v-82h-84zM234 872v47h286v-47h-286z" />
    <glyph glyph-name="uni01D6" unicode="&#x1d6;" horiz-adv-x="629" 
d="M61 216v314h60v-304q0 -90 48 -138.5t136 -48.5q85 0 139 54.5t54 137.5v299h61v-530h-60v86h-2q-63 -101 -204 -101q-109 0 -170.5 61.5t-61.5 169.5zM178 580v82h84v-82h-84zM359 580v82h84v-82h-84zM167 702v47h286v-47h-286z" />
    <glyph glyph-name="uni01D7" unicode="&#x1d7;" horiz-adv-x="754" 
d="M86 265v435h64v-433q0 -117 55 -170.5t172 -53.5t172 54t55 170v433h64v-435q0 -280 -291 -280t-291 280zM245 750v82h84v-82h-84zM426 750v82h84v-82h-84zM337 872l80 110h87l-112 -110h-55z" />
    <glyph glyph-name="uni01D8" unicode="&#x1d8;" horiz-adv-x="629" 
d="M61 216v314h60v-304q0 -90 48 -138.5t136 -48.5q85 0 139 54.5t54 137.5v299h61v-530h-60v86h-2q-63 -101 -204 -101q-109 0 -170.5 61.5t-61.5 169.5zM178 580v82h84v-82h-84zM359 580v82h84v-82h-84zM270 702l80 110h87l-112 -110h-55z" />
    <glyph glyph-name="uni01D9" unicode="&#x1d9;" horiz-adv-x="754" 
d="M86 265v435h64v-433q0 -117 55 -170.5t172 -53.5t172 54t55 170v433h64v-435q0 -280 -291 -280t-291 280zM245 750v82h84v-82h-84zM426 750v82h84v-82h-84zM462 976l34 -32l-79 -82h-79l-79 82l34 32l85 -89z" />
    <glyph glyph-name="uni01DA" unicode="&#x1da;" horiz-adv-x="629" 
d="M61 216v314h60v-304q0 -90 48 -138.5t136 -48.5q85 0 139 54.5t54 137.5v299h61v-530h-60v86h-2q-63 -101 -204 -101q-109 0 -170.5 61.5t-61.5 169.5zM178 580v82h84v-82h-84zM359 580v82h84v-82h-84zM395 806l34 -32l-79 -82h-79l-79 82l34 32l85 -89z" />
    <glyph glyph-name="uni01DB" unicode="&#x1db;" horiz-adv-x="754" 
d="M86 265v435h64v-433q0 -117 55 -170.5t172 -53.5t172 54t55 170v433h64v-435q0 -280 -291 -280t-291 280zM245 750v82h84v-82h-84zM426 750v82h84v-82h-84zM361 872l-111 110h87l80 -110h-56z" />
    <glyph glyph-name="uni01DC" unicode="&#x1dc;" horiz-adv-x="629" 
d="M61 216v314h60v-304q0 -90 48 -138.5t136 -48.5q85 0 139 54.5t54 137.5v299h61v-530h-60v86h-2q-63 -101 -204 -101q-109 0 -170.5 61.5t-61.5 169.5zM178 580v82h84v-82h-84zM359 580v82h84v-82h-84zM294 702l-111 110h87l80 -110h-56z" />
    <glyph glyph-name="uni01DE" unicode="&#x1de;" horiz-adv-x="711" 
d="M638 0l-70 157h-424l-70 -157h-69l317 700h67l317 -700h-68zM168 212h376l-187 420h-2zM224 750v82h84v-82h-84zM405 750v82h84v-82h-84zM213 872v47h286v-47h-286z" />
    <glyph glyph-name="uni01DF" unicode="&#x1df;" horiz-adv-x="576" 
d="M51 138q0 70 53 107.5t181 58.5q90 14 125.5 33.5t35.5 54.5q0 45 -40.5 72t-107.5 27q-76 0 -124 -36.5t-59 -102.5l-59 13q14 83 79.5 131.5t162.5 48.5q96 0 154 -45t58 -119v-381h-59v77h-1q-26 -42 -81.5 -67t-123.5 -25q-91 0 -142.5 40.5t-51.5 112.5zM450 181
v134h-2q-13 -22 -47 -35.5t-104 -24.5q-101 -17 -143 -44t-42 -73q0 -99 144 -99q80 0 137 41.5t57 100.5zM166 595v82h84v-82h-84zM347 595v82h84v-82h-84zM155 717v47h286v-47h-286z" />
    <glyph glyph-name="Aringacute" unicode="&#x1fa;" horiz-adv-x="711" 
d="M638 0l-70 157h-424l-70 -157h-69l317 700h67l317 -700h-68zM168 212h376l-187 420h-2zM243 770q0 46 32 76.5t81 30.5q50 0 82 -30.5t32 -76.5t-32 -76.5t-82 -30.5q-49 0 -81 30.5t-32 76.5zM426 770q0 31 -19.5 50.5t-50.5 19.5q-30 0 -50 -19.5t-20 -50.5t20 -50.5
t50 -19.5q31 0 50.5 19.5t19.5 50.5zM315 867l80 110h87l-112 -110h-55z" />
    <glyph glyph-name="aringacute" unicode="&#x1fb;" horiz-adv-x="580" 
d="M184 677q0 35 20.5 61t53.5 34l72 99h87l-100 -98q34 -8 55 -34t21 -62q0 -42 -29.5 -70t-75.5 -28q-45 0 -74.5 28t-29.5 70zM224 677q0 -28 18 -46t46 -18t46 18t18 46q0 29 -18 47t-46 18t-46 -18.5t-18 -46.5zM510 381v-381h-59v77h-1q-26 -42 -81.5 -67t-123.5 -25
q-91 0 -142.5 40.5t-51.5 112.5q0 70 53 107.5t181 58.5q90 14 125.5 33.5t35.5 54.5q0 45 -40.5 72t-107.5 27q-76 0 -124 -36.5t-59 -102.5l-59 13q14 83 79.5 131.5t162.5 48.5q96 0 154 -45t58 -119zM450 181v134h-2q-13 -22 -47 -35.5t-104 -24.5q-101 -17 -143 -44
t-42 -73q0 -99 144 -99q80 0 137 41.5t57 100.5z" />
    <glyph glyph-name="AEacute" unicode="&#x1fc;" horiz-adv-x="970" 
d="M913 642h-350v-253h319v-55h-319v-276h350v-58h-414v161h-343l-79 -161h-72l347 700h561v-58zM183 216h316v426h-108zM452 760l80 110h87l-112 -110h-55z" />
    <glyph glyph-name="aeacute" unicode="&#x1fd;" horiz-adv-x="1027" 
d="M976 262v-22h-476q1 -90 61.5 -147.5t150.5 -57.5q132 0 198 128l49 -30q-38 -71 -102 -109.5t-145 -38.5q-78 0 -140 34.5t-95 96.5q-22 -60 -86.5 -95.5t-149.5 -35.5q-88 0 -138 40.5t-50 112.5q0 100 110 137q53 16 119 28q109 22 138 45q21 16 21 44q0 47 -40 75
t-109 28q-77 0 -125.5 -37.5t-55.5 -103.5l-57 7q8 85 73 134q65 50 165 50q76 0 128.5 -29.5t69.5 -83.5q34 54 91 83.5t127 29.5q117 0 192.5 -79t75.5 -204zM500 289h416q-3 91 -62 148.5t-147 57.5t-146 -57.5t-61 -148.5zM444 181v137h-2q-13 -23 -45.5 -35.5
t-102.5 -25.5q-66 -12 -99.5 -23.5t-57.5 -33.5q-26 -23 -26 -62q0 -102 143 -102q79 0 134.5 42.5t55.5 102.5zM474 590l80 110h87l-112 -110h-55z" />
    <glyph glyph-name="Oslashacute" unicode="&#x1fe;" horiz-adv-x="808" 
d="M761 350q1 -158 -101.5 -262.5t-255.5 -102.5q-126 0 -221 71l-47 -55l-34 28l48 56q-103 103 -103 265q-1 158 101 262.5t256 102.5q126 0 221 -71l46 55l34 -29l-47 -55q103 -103 103 -265zM188 131l399 469q-77 59 -183 59q-129 0 -211.5 -85.5t-82.5 -223.5
q0 -131 78 -219zM698 350q0 132 -78 220l-399 -469q75 -60 183 -60q129 0 211.5 85.5t82.5 223.5zM364 775l80 110h87l-112 -110h-55z" />
    <glyph glyph-name="oslashacute" unicode="&#x1ff;" horiz-adv-x="671" 
d="M620 265q0 -121 -80.5 -200.5t-203.5 -79.5q-112 0 -191 66l-47 -46l-26 26l47 46q-68 76 -68 188q0 121 80.5 200.5t204.5 79.5q114 0 190 -67l48 47l26 -26l-47 -47q67 -76 67 -187zM158 116l330 325q-59 53 -152 53q-100 0 -163.5 -63.5t-63.5 -165.5q0 -90 49 -149z
M562 265q0 87 -48 149l-331 -325q62 -53 153 -53q99 0 162.5 63.5t63.5 165.5zM296 605l80 110h87l-112 -110h-55z" />
    <glyph glyph-name="uni0218" unicode="&#x218;" horiz-adv-x="666" 
d="M37 245l63 9q20 -212 260 -212q94 0 149.5 37t55.5 100q0 64 -53 98.5t-190 61.5q-148 30 -206.5 70.5t-58.5 115.5q0 84 70 137t182 53q113 0 192.5 -60.5t92.5 -157.5l-63 -12q-12 80 -71.5 126.5t-150.5 46.5q-85 0 -137 -36t-52 -95q0 -50 46 -77.5t172 -53.5
q160 -33 225.5 -81t65.5 -134q0 -89 -74 -142.5t-196 -53.5q-143 0 -228 68.5t-94 191.5zM318 -223v33q35 6 35 44h-38v82h89v-72q0 -81 -86 -87z" />
    <glyph glyph-name="uni0219" unicode="&#x219;" horiz-adv-x="594" 
d="M41 183l57 11q10 -76 66.5 -116.5t151.5 -40.5q82 0 130 27t48 73q0 45 -42.5 69t-148.5 39q-135 19 -189 52.5t-54 96.5q0 67 61 109t158 42t167 -48.5t82 -122.5l-57 -11q-12 59 -64 94.5t-128 35.5q-71 0 -115.5 -27t-44.5 -70q0 -41 39.5 -62t146.5 -37
q137 -21 192.5 -56.5t55.5 -103.5q0 -69 -64.5 -110.5t-172.5 -41.5q-117 0 -190 54q-74 52 -85 144zM275 -223v33q35 6 35 44h-38v82h89v-72q0 -81 -86 -87z" />
    <glyph glyph-name="uni021A" unicode="&#x21a;" horiz-adv-x="670" 
d="M303 0v642h-268v58h600v-58h-268v-642h-64zM294 -208v33q35 6 35 44h-38v82h89v-72q0 -81 -86 -87z" />
    <glyph glyph-name="uni021B" unicode="&#x21b;" horiz-adv-x="392" 
d="M364 479h-169v-374q0 -28 13 -39.5t44 -11.5h83v-54h-83q-62 0 -90 25t-28 80v374h-112v51h112v115h61v-115h169v-51zM178 -208v33q35 6 35 44h-38v82h89v-72q0 -81 -86 -87z" />
    <glyph glyph-name="uni0228" unicode="&#x228;" horiz-adv-x="642" 
d="M91 0v700h494v-58h-430v-253h399v-55h-399v-276h430v-58h-494zM467 -124q0 -39 -29.5 -63.5t-75.5 -24.5q-60 0 -106 40l28 34q34 -33 78 -33q26 0 43 13t17 35q0 21 -16 33t-42 12q-37 0 -67 -27l-35 16l68 112l34 -15l-37 -59q18 9 44 9q43 0 69.5 -23t26.5 -59z" />
    <glyph glyph-name="uni0229" unicode="&#x229;" horiz-adv-x="652" 
d="M51 260q0 126 77.5 205.5t199.5 79.5q120 0 196.5 -79t76.5 -204v-22h-489q0 -89 63 -146t154 -57q143 0 211 126l48 -31q-78 -147 -259 -147q-124 0 -201 76t-77 199zM113 290h426q-3 88 -63 145.5t-148 57.5q-91 0 -150.5 -58t-64.5 -145zM458 -138q0 -39 -29.5 -63.5
t-75.5 -24.5q-60 0 -106 40l28 34q35 -33 78 -33q26 0 43 13t17 35q0 21 -16 33t-42 12q-37 0 -67 -27l-35 16l68 112l34 -15l-37 -59q18 9 44 9q43 0 69.5 -23t26.5 -59z" />
    <glyph glyph-name="uni0237" unicode="&#x237;" horiz-adv-x="211" 
d="M-53 -162v54h69q63 0 63 61v577h61v-580q0 -54 -31.5 -83t-88.5 -29h-73z" />
    <glyph glyph-name="uni0258" unicode="&#x258;" horiz-adv-x="652" 
d="M64 132l48 31q68 -126 211 -126q91 0 154 57t63 146h-489v22q0 125 76.5 204t196.5 79q122 0 199.5 -79.5t77.5 -205.5q0 -123 -77 -199t-201 -76q-181 0 -259 147zM324 493q-88 0 -148 -57.5t-63 -145.5h426q-5 87 -64.5 145t-150.5 58z" />
    <glyph glyph-name="uni0259" unicode="&#x259;" horiz-adv-x="652" 
d="M51 268v22h489q0 89 -63 146t-155 57q-139 0 -210 -129l-48 30q83 151 258 151q124 0 201.5 -76t77.5 -199q0 -125 -77.5 -205t-199.5 -80q-120 0 -196.5 79t-76.5 204zM539 240h-427q4 -88 64 -145.5t148 -57.5q90 0 151 58.5t64 144.5z" />
    <glyph glyph-name="circumflex" unicode="&#x2c6;" horiz-adv-x="372" 
d="M305 602l-34 -32l-84 90l-85 -90l-34 32l79 82h79z" />
    <glyph glyph-name="caron" unicode="&#x2c7;" horiz-adv-x="372" 
d="M271 694l34 -32l-79 -82h-79l-79 82l34 32l85 -89z" />
    <glyph glyph-name="breve" unicode="&#x2d8;" horiz-adv-x="376" 
d="M68 691h38q14 -60 92 -60q79 0 91 60h39q-4 -52 -38.5 -81.5t-91.5 -29.5q-56 0 -91 29.5t-39 81.5z" />
    <glyph glyph-name="dotaccent" unicode="&#x2d9;" horiz-adv-x="218" 
d="M68 590v81h83v-81h-83z" />
    <glyph glyph-name="ring" unicode="&#x2da;" horiz-adv-x="362" 
d="M68 600q0 46 32 76.5t81 30.5q50 0 82 -30.5t32 -76.5t-32 -76.5t-82 -30.5q-49 0 -81 30.5t-32 76.5zM251 600q0 31 -19.5 50.5t-50.5 19.5q-30 0 -50 -19.5t-20 -50.5t20 -50.5t50 -19.5q31 0 50.5 19.5t19.5 50.5z" />
    <glyph glyph-name="ogonek" unicode="&#x2db;" horiz-adv-x="303" 
d="M68 -115q0 69 101 127l31 -12q-82 -46 -82 -103q0 -37 39 -37q25 0 59 20l20 -46q-41 -23 -86 -23q-39 0 -60.5 19t-21.5 55z" />
    <glyph glyph-name="tilde" unicode="&#x2dc;" horiz-adv-x="422" 
d="M212 608q-44 18 -62 18q-39 0 -45 -36h-37q3 38 25 60t59 22q32 0 82 -23q43 -19 63 -19q37 0 45 37h35q-2 -38 -24 -60t-59 -22q-31 0 -82 23z" />
    <glyph glyph-name="hungarumlaut" unicode="&#x2dd;" horiz-adv-x="438" 
d="M68 590l75 110h84l-105 -110h-54zM211 590l76 110h84l-105 -110h-55z" />
    <glyph glyph-name="gravecomb" unicode="&#x300;" horiz-adv-x="0" 
d="M-56 590l-111 110h87l80 -110h-56z" />
    <glyph glyph-name="acutecomb" unicode="&#x301;" horiz-adv-x="0" 
d="M-167 590l80 110h87l-112 -110h-55z" />
    <glyph glyph-name="uni0302" unicode="&#x302;" horiz-adv-x="0" 
d="M-237 602l-34 -32l-84 90l-85 -90l-34 32l79 82h79z" />
    <glyph glyph-name="tildecomb" unicode="&#x303;" horiz-adv-x="0" 
d="M-165 608q-44 18 -62 18q-39 0 -45 -36h-37q3 38 25 60t59 22q32 0 82 -23q43 -19 63 -19q37 0 45 37h35q-2 -38 -24 -60t-59 -22q-31 0 -82 23z" />
    <glyph glyph-name="uni0304" unicode="&#x304;" horiz-adv-x="0" 
d="M-286 590v47h286v-47h-286z" />
    <glyph glyph-name="uni0306" unicode="&#x306;" horiz-adv-x="0" 
d="M-260 691h38q14 -60 92 -60q79 0 91 60h39q-4 -52 -38.5 -81.5t-91.5 -29.5q-56 0 -91 29.5t-39 81.5z" />
    <glyph glyph-name="uni0307" unicode="&#x307;" horiz-adv-x="0" 
d="M-83 590v81h83v-81h-83z" />
    <glyph glyph-name="uni0308" unicode="&#x308;" horiz-adv-x="0" 
d="M-265 580v82h84v-82h-84zM-84 580v82h84v-82h-84z" />
    <glyph glyph-name="uni030A" unicode="&#x30a;" horiz-adv-x="0" 
d="M-227 600q0 46 32 76.5t81 30.5q50 0 82 -30.5t32 -76.5t-32 -76.5t-82 -30.5q-49 0 -81 30.5t-32 76.5zM-44 600q0 31 -19.5 50.5t-50.5 19.5q-30 0 -50 -19.5t-20 -50.5t20 -50.5t50 -19.5q31 0 50.5 19.5t19.5 50.5z" />
    <glyph glyph-name="uni030B" unicode="&#x30b;" horiz-adv-x="0" 
d="M-303 590l75 110h84l-105 -110h-54zM-160 590l76 110h84l-105 -110h-55z" />
    <glyph glyph-name="uni030C" unicode="&#x30c;" horiz-adv-x="0" 
d="M-34 694l34 -32l-79 -82h-79l-79 82l34 32l85 -89z" />
    <glyph glyph-name="uni0312" unicode="&#x312;" horiz-adv-x="0" 
d="M-3 745v-32q-36 -6 -36 -43h39v-80h-92v70q0 80 89 85z" />
    <glyph glyph-name="dotbelowcomb" unicode="&#x323;" horiz-adv-x="0" 
d="M-83 -130v81h83v-81h-83z" />
    <glyph glyph-name="uni0326" unicode="&#x326;" horiz-adv-x="0" 
d="M-86 -209v33q35 6 35 44h-38v82h89v-72q0 -81 -86 -87z" />
    <glyph glyph-name="uni0327" unicode="&#x327;" horiz-adv-x="0" 
d="M-211 -124q0 -39 -29.5 -63.5t-75.5 -24.5q-60 0 -106 40l28 34q34 -33 78 -33q26 0 43 13t17 35q0 21 -16 33t-42 12q-37 0 -67 -27l-35 16l68 112l34 -15l-37 -59q18 9 44 9q43 0 69.5 -23t26.5 -59z" />
    <glyph glyph-name="uni0328" unicode="&#x328;" horiz-adv-x="0" 
d="M-168 -115q0 69 101 127l31 -12q-82 -46 -82 -103q0 -37 39 -37q25 0 59 20l20 -46q-41 -23 -86 -23q-39 0 -60.5 19t-21.5 55z" />
    <glyph glyph-name="uni0335" unicode="&#x335;" horiz-adv-x="0" 
d="M-396 333v52h396v-52h-396z" />
    <glyph glyph-name="uni0336" unicode="&#x336;" horiz-adv-x="0" 
d="M-749 333v52h749v-52h-749z" />
    <glyph glyph-name="uni0337" unicode="&#x337;" horiz-adv-x="0" 
d="M-490 3l-26 26l489 496l27 -26z" />
    <glyph glyph-name="uni0338" unicode="&#x338;" horiz-adv-x="0" 
d="M-570 2l-34 28l569 669l35 -29z" />
    <glyph glyph-name="uni0394" unicode="&#x394;" horiz-adv-x="712" 
d="M390 700l317 -700h-702l318 700h67zM99 57h514l-256 575h-2z" />
    <glyph glyph-name="uni03A9" unicode="&#x3a9;" horiz-adv-x="800" 
d="M555 52v-2h187v-50h-298v50q118 31 180.5 111t62.5 199q0 130 -81 213.5t-206 83.5t-206.5 -83.5t-81.5 -213.5q0 -118 62.5 -198t179.5 -112v-50h-297v50h187v2q-96 41 -146.5 120t-50.5 188q-2 151 100 254t253 101q151 2 253 -100.5t100 -254.5q0 -110 -51 -188.5
t-147 -119.5z" />
    <glyph glyph-name="uni03BC" unicode="&#x3bc;" horiz-adv-x="639" 
d="M509 530h60v-530h-59v87h-2q-30 -48 -83.5 -75t-119.5 -27q-119 0 -172 80h-2v-290h-60v755h60v-304q0 -89 47.5 -138t133.5 -49q85 0 141 54t56 138v299z" />
    <glyph glyph-name="pi" unicode="&#x3c0;" horiz-adv-x="747" 
d="M699 476h-133v-366q0 -32 12.5 -44t45.5 -12h72v-54h-85q-55 0 -80 25t-25 79v372h-287v-476h-57v476h-140v54h677v-54z" />
    <glyph glyph-name="uni0E3F" unicode="&#xe3f;" horiz-adv-x="727" 
d="M670 203q0 -100 -61.5 -151.5t-180.5 -51.5h-45v-110h-40v110h-242v700h242v101h40v-101h55q96 0 151 -47t55 -129q0 -54 -26.5 -93.5t-72.5 -55.5v-2q58 -14 91.5 -59t33.5 -111zM165 642v-247h178v247h-178zM426 642h-43v-247h39q158 0 158 127q0 120 -154 120zM165 58
h178v283h-178v-283zM606 202q0 72 -44 105.5t-139 33.5h-40v-283h35q96 0 142 35t46 109z" />
    <glyph glyph-name="uni1E04" unicode="&#x1e04;" horiz-adv-x="714" 
d="M91 0v700h337q96 0 151 -47t55 -129q0 -54 -26.5 -94t-70.5 -55v-2q57 -15 90 -60t33 -110q0 -100 -61.5 -151.5t-180.5 -51.5h-327zM154 396h258q158 0 158 126q0 120 -154 120h-262v-246zM154 58h254q96 0 142 35t46 109q0 72 -44 105.5t-139 33.5h-259v-283zM316 -130
v81h83v-81h-83z" />
    <glyph glyph-name="uni1E05" unicode="&#x1e05;" horiz-adv-x="673" 
d="M131 79h-2v-79h-58v730h60v-279h2q34 44 89.5 69t122.5 25q117 0 197 -80t80 -200q0 -124 -80 -202t-202 -78q-65 0 -120 25.5t-89 68.5zM562 265q0 100 -62.5 163t-157.5 63q-88 0 -149.5 -50t-61.5 -118v-116q0 -67 61 -117.5t145 -50.5q100 0 162.5 61.5t62.5 164.5z
M304 -145v81h83v-81h-83z" />
    <glyph glyph-name="uni1E0C" unicode="&#x1e0c;" horiz-adv-x="751" 
d="M91 0v700h271q163 0 252.5 -91.5t89.5 -258.5q0 -170 -88.5 -260t-254.5 -90h-270zM155 58h206q136 0 206.5 74t70.5 218q0 143 -70.5 217.5t-205.5 74.5h-207v-584zM334 -130v81h83v-81h-83z" />
    <glyph glyph-name="uni1E0D" unicode="&#x1e0d;" horiz-adv-x="673" 
d="M51 265q0 120 80 200t197 80q67 0 122.5 -25t89.5 -69h2v279h60v-730h-58v79h-2q-34 -43 -89 -68.5t-120 -25.5q-122 0 -202 78t-80 202zM542 207v116q0 68 -61.5 118t-149.5 50q-95 0 -157.5 -63t-62.5 -163q0 -103 62.5 -164.5t162.5 -61.5q84 0 145 50.5t61 117.5z
M292 -130v81h83v-81h-83z" />
    <glyph glyph-name="uni1E24" unicode="&#x1e24;" horiz-adv-x="755" 
d="M91 0v700h64v-312h445v312h64v-700h-64v332h-445v-332h-64zM336 -130v81h83v-81h-83z" />
    <glyph glyph-name="uni1E25" unicode="&#x1e25;" horiz-adv-x="648" 
d="M71 0v730h60v-287h2q32 48 85.5 75t117.5 27q111 0 178.5 -61.5t67.5 -163.5v-320h-61v310q0 85 -49.5 133t-138.5 48q-88 0 -145 -54.5t-57 -137.5v-299h-60zM286 -130v81h83v-81h-83z" />
    <glyph glyph-name="uni1E36" unicode="&#x1e36;" horiz-adv-x="587" 
d="M91 0v700h64v-642h397v-58h-461zM281 -130v81h83v-81h-83z" />
    <glyph glyph-name="uni1E37" unicode="&#x1e37;" horiz-adv-x="202" 
d="M71 0v730h60v-730h-60zM60 -130v81h83v-81h-83z" />
    <glyph glyph-name="uni1E44" unicode="&#x1e44;" horiz-adv-x="764" 
d="M91 0v700h69l448 -609h2v609h64v-700h-70l-447 609h-2v-609h-64zM341 760v81h83v-81h-83z" />
    <glyph glyph-name="uni1E45" unicode="&#x1e45;" horiz-adv-x="648" 
d="M71 0v530h59v-87h2q30 47 85 74.5t119 27.5q110 0 178 -62t68 -162v-321h-61v310q0 84 -50 132.5t-135 48.5q-90 0 -147.5 -54.5t-57.5 -137.5v-299h-60zM291 605v81h83v-81h-83z" />
    <glyph glyph-name="uni1E46" unicode="&#x1e46;" horiz-adv-x="764" 
d="M91 0v700h69l448 -609h2v609h64v-700h-70l-447 609h-2v-609h-64zM352 -130v81h83v-81h-83z" />
    <glyph glyph-name="uni1E47" unicode="&#x1e47;" horiz-adv-x="648" 
d="M71 0v530h59v-87h2q30 47 85 74.5t119 27.5q110 0 178 -62t68 -162v-321h-61v310q0 84 -50 132.5t-135 48.5q-90 0 -147.5 -54.5t-57.5 -137.5v-299h-60zM286 -130v81h83v-81h-83z" />
    <glyph glyph-name="uni1E4C" unicode="&#x1e4c;" horiz-adv-x="808" 
d="M47 350q-1 158 101 262.5t256 102.5q153 2 255.5 -102.5t101.5 -262.5q1 -158 -101.5 -262.5t-255.5 -102.5q-154 -2 -256 102.5t-101 262.5zM696 350q0 136 -82 221.5t-210 85.5t-210 -85.5t-82 -221.5t82 -221.5t210 -85.5t210 85.5t82 221.5zM394 793q-44 18 -62 18
q-39 0 -45 -36h-37q3 38 25 60t59 22q32 0 82 -23q43 -19 63 -19q37 0 45 37h35q-2 -38 -24 -60t-59 -22q-31 0 -82 23zM364 887l80 110h87l-112 -110h-55z" />
    <glyph glyph-name="uni1E4D" unicode="&#x1e4d;" horiz-adv-x="671" 
d="M51 265q0 121 80.5 200.5t204.5 79.5q123 0 203.5 -79.5t80.5 -200.5t-80.5 -200.5t-203.5 -79.5q-124 0 -204.5 79.5t-80.5 200.5zM560 265q0 101 -62.5 163.5t-161.5 62.5q-98 0 -161.5 -63t-63.5 -163t63.5 -163t161.5 -63q99 0 161.5 62.5t62.5 163.5zM326 623
q-44 18 -62 18q-39 0 -45 -36h-37q3 38 25 60t59 22q32 0 82 -23q43 -19 63 -19q37 0 45 37h35q-2 -38 -24 -60t-59 -22q-31 0 -82 23zM296 717l80 110h87l-112 -110h-55z" />
    <glyph glyph-name="uni1E62" unicode="&#x1e62;" horiz-adv-x="666" 
d="M37 245l63 9q20 -212 260 -212q94 0 149.5 37t55.5 100q0 64 -53 98.5t-190 61.5q-148 30 -206.5 70.5t-58.5 115.5q0 84 70 137t182 53q113 0 192.5 -60.5t92.5 -157.5l-63 -12q-12 80 -71.5 126.5t-150.5 46.5q-85 0 -137 -36t-52 -95q0 -50 46 -77.5t172 -53.5
q160 -33 225.5 -81t65.5 -134q0 -89 -74 -142.5t-196 -53.5q-143 0 -228 68.5t-94 191.5zM318 -145v81h83v-81h-83z" />
    <glyph glyph-name="uni1E63" unicode="&#x1e63;" horiz-adv-x="594" 
d="M41 183l57 11q10 -76 66.5 -116.5t151.5 -40.5q82 0 130 27t48 73q0 45 -42.5 69t-148.5 39q-135 19 -189 52.5t-54 96.5q0 67 61 109t158 42t167 -48.5t82 -122.5l-57 -11q-12 59 -64 94.5t-128 35.5q-71 0 -115.5 -27t-44.5 -70q0 -41 39.5 -62t146.5 -37
q137 -21 192.5 -56.5t55.5 -103.5q0 -69 -64.5 -110.5t-172.5 -41.5q-117 0 -190 54q-74 52 -85 144zM275 -145v81h83v-81h-83z" />
    <glyph glyph-name="uni1E6C" unicode="&#x1e6c;" horiz-adv-x="670" 
d="M303 0v642h-268v58h600v-58h-268v-642h-64zM294 -130v81h83v-81h-83z" />
    <glyph glyph-name="uni1E6D" unicode="&#x1e6d;" horiz-adv-x="392" 
d="M364 479h-169v-374q0 -28 13 -39.5t44 -11.5h83v-54h-83q-62 0 -90 25t-28 80v374h-112v51h112v115h61v-115h169v-51zM178 -130v81h83v-81h-83z" />
    <glyph glyph-name="Wgrave" unicode="&#x1e80;" horiz-adv-x="999" 
d="M184 0l-164 700h66l144 -610h2l237 610h61l238 -610h2l143 610h66l-164 -700h-76l-238 608h-2l-239 -608h-76zM484 760l-111 110h87l80 -110h-56z" />
    <glyph glyph-name="wgrave" unicode="&#x1e81;" horiz-adv-x="859" 
d="M183 0l-156 530h61l128 -443h2l182 443h58l182 -443h2l129 443h61l-156 -530h-55l-191 464h-2l-190 -464h-55zM413 590l-111 110h87l80 -110h-56z" />
    <glyph glyph-name="Wacute" unicode="&#x1e82;" horiz-adv-x="999" 
d="M184 0l-164 700h66l144 -610h2l237 610h61l238 -610h2l143 610h66l-164 -700h-76l-238 608h-2l-239 -608h-76zM460 760l80 110h87l-112 -110h-55z" />
    <glyph glyph-name="wacute" unicode="&#x1e83;" horiz-adv-x="859" 
d="M183 0l-156 530h61l128 -443h2l182 443h58l182 -443h2l129 443h61l-156 -530h-55l-191 464h-2l-190 -464h-55zM389 590l80 110h87l-112 -110h-55z" />
    <glyph glyph-name="Wdieresis" unicode="&#x1e84;" horiz-adv-x="999" 
d="M184 0l-164 700h66l144 -610h2l237 610h61l238 -610h2l143 610h66l-164 -700h-76l-238 608h-2l-239 -608h-76zM368 750v82h84v-82h-84zM549 750v82h84v-82h-84z" />
    <glyph glyph-name="wdieresis" unicode="&#x1e85;" horiz-adv-x="859" 
d="M183 0l-156 530h61l128 -443h2l182 443h58l182 -443h2l129 443h61l-156 -530h-55l-191 464h-2l-190 -464h-55zM297 580v82h84v-82h-84zM478 580v82h84v-82h-84z" />
    <glyph glyph-name="uni1E92" unicode="&#x1e92;" horiz-adv-x="735" 
d="M47 0v52l556 588v2h-523v58h608v-52l-556 -588v-2h534v-58h-619zM327 -130v81h83v-81h-83z" />
    <glyph glyph-name="uni1E93" unicode="&#x1e93;" horiz-adv-x="583" 
d="M28 0v48l438 428v2h-416v52h503v-48l-439 -428v-2h437v-52h-523zM248 -130v81h83v-81h-83z" />
    <glyph glyph-name="uni1EA0" unicode="&#x1ea0;" horiz-adv-x="711" 
d="M638 0l-70 157h-424l-70 -157h-69l317 700h67l317 -700h-68zM168 212h376l-187 420h-2zM315 -130v81h83v-81h-83z" />
    <glyph glyph-name="uni1EA1" unicode="&#x1ea1;" horiz-adv-x="576" 
d="M51 138q0 70 53 107.5t181 58.5q90 14 125.5 33.5t35.5 54.5q0 45 -40.5 72t-107.5 27q-76 0 -124 -36.5t-59 -102.5l-59 13q14 83 79.5 131.5t162.5 48.5q96 0 154 -45t58 -119v-381h-59v77h-1q-26 -42 -81.5 -67t-123.5 -25q-91 0 -142.5 40.5t-51.5 112.5zM450 181
v134h-2q-13 -22 -47 -35.5t-104 -24.5q-101 -17 -143 -44t-42 -73q0 -99 144 -99q80 0 137 41.5t57 100.5zM247 -145v81h83v-81h-83z" />
    <glyph glyph-name="uni1EAC" unicode="&#x1eac;" horiz-adv-x="711" 
d="M638 0l-70 157h-424l-70 -157h-69l317 700h67l317 -700h-68zM168 212h376l-187 420h-2zM475 772l-34 -32l-84 90l-85 -90l-34 32l79 82h79zM315 -130v81h83v-81h-83z" />
    <glyph glyph-name="uni1EAD" unicode="&#x1ead;" horiz-adv-x="576" 
d="M51 138q0 70 53 107.5t181 58.5q90 14 125.5 33.5t35.5 54.5q0 45 -40.5 72t-107.5 27q-76 0 -124 -36.5t-59 -102.5l-59 13q14 83 79.5 131.5t162.5 48.5q96 0 154 -45t58 -119v-381h-59v77h-1q-26 -42 -81.5 -67t-123.5 -25q-91 0 -142.5 40.5t-51.5 112.5zM450 181
v134h-2q-13 -22 -47 -35.5t-104 -24.5q-101 -17 -143 -44t-42 -73q0 -99 144 -99q80 0 137 41.5t57 100.5zM417 617l-34 -32l-84 90l-85 -90l-34 32l79 82h79zM247 -145v81h83v-81h-83z" />
    <glyph glyph-name="uni1EB8" unicode="&#x1eb8;" horiz-adv-x="642" 
d="M91 0v700h494v-58h-430v-253h399v-55h-399v-276h430v-58h-494zM297 -130v81h83v-81h-83z" />
    <glyph glyph-name="uni1EB9" unicode="&#x1eb9;" horiz-adv-x="652" 
d="M51 260q0 126 77.5 205.5t199.5 79.5q120 0 196.5 -79t76.5 -204v-22h-489q0 -89 63 -146t154 -57q143 0 211 126l48 -31q-78 -147 -259 -147q-124 0 -201 76t-77 199zM113 290h426q-3 88 -63 145.5t-148 57.5q-91 0 -150.5 -58t-64.5 -145zM288 -145v81h83v-81h-83z" />
    <glyph glyph-name="uni1EBC" unicode="&#x1ebc;" horiz-adv-x="642" 
d="M91 0v700h494v-58h-430v-253h399v-55h-399v-276h430v-58h-494zM336 778q-44 18 -62 18q-39 0 -45 -36h-37q3 38 25 60t59 22q32 0 82 -23q43 -19 63 -19q37 0 45 37h35q-2 -38 -24 -60t-59 -22q-31 0 -82 23z" />
    <glyph glyph-name="uni1EBD" unicode="&#x1ebd;" horiz-adv-x="652" 
d="M51 260q0 126 77.5 205.5t199.5 79.5q120 0 196.5 -79t76.5 -204v-22h-489q0 -89 63 -146t154 -57q143 0 211 126l48 -31q-78 -147 -259 -147q-124 0 -201 76t-77 199zM113 290h426q-3 88 -63 145.5t-148 57.5q-91 0 -150.5 -58t-64.5 -145zM318 623q-43 18 -62 18
q-39 0 -45 -36h-37q3 38 25 60t59 22q32 0 82 -23q43 -19 63 -19q37 0 45 37h35q-2 -38 -24 -60t-59 -22q-31 0 -82 23z" />
    <glyph glyph-name="uni1EC6" unicode="&#x1ec6;" horiz-adv-x="642" 
d="M91 0v700h494v-58h-430v-253h399v-55h-399v-276h430v-58h-494zM465 772l-34 -32l-84 90l-85 -90l-34 32l79 82h79zM297 -130v81h83v-81h-83z" />
    <glyph glyph-name="uni1EC7" unicode="&#x1ec7;" horiz-adv-x="652" 
d="M51 260q0 126 77.5 205.5t199.5 79.5q120 0 196.5 -79t76.5 -204v-22h-489q0 -89 63 -146t154 -57q143 0 211 126l48 -31q-78 -147 -259 -147q-124 0 -201 76t-77 199zM113 290h426q-3 88 -63 145.5t-148 57.5q-91 0 -150.5 -58t-64.5 -145zM447 617l-34 -32l-84 90
l-85 -90l-34 32l79 82h79zM288 -145v81h83v-81h-83z" />
    <glyph glyph-name="uni1ECA" unicode="&#x1eca;" horiz-adv-x="245" 
d="M91 0v700h64v-700h-64zM82 -130v81h83v-81h-83z" />
    <glyph glyph-name="uni1ECB" unicode="&#x1ecb;" horiz-adv-x="202" 
d="M71 0v530h60v-530h-60zM61 625v76h80v-76h-80zM57 -130v81h83v-81h-83z" />
    <glyph glyph-name="uni1ECC" unicode="&#x1ecc;" horiz-adv-x="808" 
d="M47 350q-1 158 101 262.5t256 102.5q153 2 255.5 -102.5t101.5 -262.5q1 -158 -101.5 -262.5t-255.5 -102.5q-154 -2 -256 102.5t-101 262.5zM696 350q0 136 -82 221.5t-210 85.5t-210 -85.5t-82 -221.5t82 -221.5t210 -85.5t210 85.5t82 221.5zM363 -145v81h83v-81h-83z
" />
    <glyph glyph-name="uni1ECD" unicode="&#x1ecd;" horiz-adv-x="671" 
d="M51 265q0 121 80.5 200.5t204.5 79.5q123 0 203.5 -79.5t80.5 -200.5t-80.5 -200.5t-203.5 -79.5q-124 0 -204.5 79.5t-80.5 200.5zM560 265q0 101 -62.5 163.5t-161.5 62.5q-98 0 -161.5 -63t-63.5 -163t63.5 -163t161.5 -63q99 0 161.5 62.5t62.5 163.5zM295 -145v81
h83v-81h-83z" />
    <glyph glyph-name="uni1ED8" unicode="&#x1ed8;" horiz-adv-x="808" 
d="M47 350q-1 158 101 262.5t256 102.5q153 2 255.5 -102.5t101.5 -262.5q1 -158 -101.5 -262.5t-255.5 -102.5q-154 -2 -256 102.5t-101 262.5zM696 350q0 136 -82 221.5t-210 85.5t-210 -85.5t-82 -221.5t82 -221.5t210 -85.5t210 85.5t82 221.5zM523 787l-34 -32l-84 90
l-85 -90l-34 32l79 82h79zM363 -145v81h83v-81h-83z" />
    <glyph glyph-name="uni1ED9" unicode="&#x1ed9;" horiz-adv-x="671" 
d="M51 265q0 121 80.5 200.5t204.5 79.5q123 0 203.5 -79.5t80.5 -200.5t-80.5 -200.5t-203.5 -79.5q-124 0 -204.5 79.5t-80.5 200.5zM560 265q0 101 -62.5 163.5t-161.5 62.5q-98 0 -161.5 -63t-63.5 -163t63.5 -163t161.5 -63q99 0 161.5 62.5t62.5 163.5zM455 617
l-34 -32l-84 90l-85 -90l-34 32l79 82h79zM295 -145v81h83v-81h-83z" />
    <glyph glyph-name="uni1EE4" unicode="&#x1ee4;" horiz-adv-x="754" 
d="M86 265v435h64v-433q0 -117 55 -170.5t172 -53.5t172 54t55 170v433h64v-435q0 -280 -291 -280t-291 280zM336 -145v81h83v-81h-83z" />
    <glyph glyph-name="uni1EE5" unicode="&#x1ee5;" horiz-adv-x="629" 
d="M61 216v314h60v-304q0 -90 48 -138.5t136 -48.5q85 0 139 54.5t54 137.5v299h61v-530h-60v86h-2q-63 -101 -204 -101q-109 0 -170.5 61.5t-61.5 169.5zM252 -145v81h83v-81h-83z" />
    <glyph glyph-name="Ygrave" unicode="&#x1ef2;" horiz-adv-x="671" 
d="M303 0v286l-303 414h76l258 -357h2l258 357h77l-304 -414v-286h-64zM320 760l-111 110h87l80 -110h-56z" />
    <glyph glyph-name="ygrave" unicode="&#x1ef3;" horiz-adv-x="574" 
d="M117 -225l136 271l-243 484h69l207 -420h2l207 420h69l-379 -755h-68zM271 590l-111 110h87l80 -110h-56z" />
    <glyph glyph-name="uni1EF4" unicode="&#x1ef4;" horiz-adv-x="671" 
d="M303 0v286l-303 414h76l258 -357h2l258 357h77l-304 -414v-286h-64zM295 -130v81h83v-81h-83z" />
    <glyph glyph-name="uni1EF5" unicode="&#x1ef5;" horiz-adv-x="574" 
d="M117 -225l136 271l-243 484h69l207 -420h2l207 420h69l-379 -755h-68zM337 -130v81h83v-81h-83z" />
    <glyph glyph-name="uni1EF8" unicode="&#x1ef8;" horiz-adv-x="671" 
d="M303 0v286l-303 414h76l258 -357h2l258 357h77l-304 -414v-286h-64zM326 778q-44 18 -62 18q-39 0 -45 -36h-37q3 38 25 60t59 22q32 0 82 -23q43 -19 63 -19q37 0 45 37h35q-2 -38 -24 -60t-59 -22q-31 0 -82 23z" />
    <glyph glyph-name="uni1EF9" unicode="&#x1ef9;" horiz-adv-x="574" 
d="M117 -225l136 271l-243 484h69l207 -420h2l207 420h69l-379 -755h-68zM277 608q-43 18 -62 18q-39 0 -45 -36h-37q3 38 25 60t59 22q32 0 82 -23q43 -19 63 -19q37 0 45 37h35q-2 -38 -24 -60t-59 -22q-31 0 -82 23z" />
    <glyph glyph-name="uni2002" unicode="&#x2002;" horiz-adv-x="750" 
 />
    <glyph glyph-name="uni2003" unicode="&#x2003;" horiz-adv-x="1000" 
 />
    <glyph glyph-name="uni2004" unicode="&#x2004;" horiz-adv-x="350" 
 />
    <glyph glyph-name="uni2005" unicode="&#x2005;" horiz-adv-x="250" 
 />
    <glyph glyph-name="uni2007" unicode="&#x2007;" 
 />
    <glyph glyph-name="uni2008" unicode="&#x2008;" horiz-adv-x="297" 
 />
    <glyph glyph-name="uni2009" unicode="&#x2009;" horiz-adv-x="150" 
 />
    <glyph glyph-name="uni200A" unicode="&#x200a;" horiz-adv-x="75" 
 />
    <glyph glyph-name="uni200B" unicode="&#x200b;" horiz-adv-x="0" 
 />
    <glyph glyph-name="endash" unicode="&#x2013;" horiz-adv-x="560" 
d="M58 268v58h444v-58h-444z" />
    <glyph glyph-name="emdash" unicode="&#x2014;" horiz-adv-x="845" 
d="M58 268v58h730v-58h-730z" />
    <glyph glyph-name="quoteleft" unicode="&#x2018;" horiz-adv-x="257" 
d="M176 700v-37q-40 -7 -40 -51h43v-94h-102v82q0 94 99 100z" />
    <glyph glyph-name="quoteright" unicode="&#x2019;" horiz-adv-x="257" 
d="M81 518v37q40 7 40 51h-43v94h102v-82q0 -94 -99 -100z" />
    <glyph glyph-name="quotesinglbase" unicode="&#x201a;" horiz-adv-x="297" 
d="M101 -88v37q40 7 40 51h-43v94h102v-82q0 -94 -99 -100z" />
    <glyph glyph-name="quotedblleft" unicode="&#x201c;" horiz-adv-x="441" 
d="M197 700v-37q-40 -7 -40 -51h43v-94h-102v82q0 94 99 100zM340 700v-37q-40 -7 -40 -51h43v-94h-102v82q0 94 99 100z" />
    <glyph glyph-name="quotedblright" unicode="&#x201d;" horiz-adv-x="441" 
d="M101 518v37q40 7 40 51h-43v94h102v-82q0 -94 -99 -100zM244 518v37q40 7 40 51h-43v94h102v-82q0 -94 -99 -100z" />
    <glyph glyph-name="quotedblbase" unicode="&#x201e;" horiz-adv-x="441" 
d="M101 -88v37q40 7 40 51h-43v94h102v-82q0 -94 -99 -100zM244 -88v37q40 7 40 51h-43v94h102v-82q0 -94 -99 -100z" />
    <glyph glyph-name="dagger" unicode="&#x2020;" horiz-adv-x="617" 
d="M279 -193v666h-221v57h221v236h60v-236h221v-57h-221v-666h-60z" />
    <glyph glyph-name="daggerdbl" unicode="&#x2021;" horiz-adv-x="617" 
d="M279 -193v226h-221v57h221v383h-221v57h221v229h60v-229h221v-57h-221v-383h221v-57h-221v-226h-60z" />
    <glyph glyph-name="bullet" unicode="&#x2022;" horiz-adv-x="339" 
d="M98 384q0 33 19.5 53t52.5 20t52.5 -20t19.5 -53t-19.5 -53.5t-52.5 -20.5t-52.5 20.5t-19.5 53.5z" />
    <glyph glyph-name="ellipsis" unicode="&#x2026;" horiz-adv-x="749" 
d="M324 0v100h102v-100h-102zM98 0v100h102v-100h-102zM550 0v100h102v-100h-102z" />
    <glyph glyph-name="perthousand" unicode="&#x2030;" horiz-adv-x="1557" 
d="M341 -67l-51 28l488 811l49 -30zM68 490q0 98 54.5 158.5t142.5 60.5q89 0 143.5 -60.5t54.5 -158.5t-54.5 -158.5t-143.5 -60.5q-88 0 -142.5 60.5t-54.5 158.5zM405 490q0 77 -38 122.5t-102 45.5t-102 -45.5t-38 -122.5t38 -122.5t102 -45.5t102 45.5t38 122.5z
M642 210q0 98 54.5 158.5t142.5 60.5q89 0 143.5 -60.5t54.5 -158.5t-54.5 -158.5t-143.5 -60.5q-88 0 -142.5 60.5t-54.5 158.5zM1094 210q0 98 54.5 158.5t142.5 60.5q89 0 143.5 -60.5t54.5 -158.5t-54.5 -158.5t-143.5 -60.5q-88 0 -142.5 60.5t-54.5 158.5zM979 210
q0 77 -38 122.5t-102 45.5t-102 -45.5t-38 -122.5t38 -122.5t102 -45.5t102 45.5t38 122.5zM1431 210q0 77 -38 122.5t-102 45.5q-63 0 -101 -45.5t-38 -122.5t38 -122.5t101 -45.5q64 0 102 45.5t38 122.5z" />
    <glyph glyph-name="guilsinglleft" unicode="&#x2039;" horiz-adv-x="314" 
d="M187 97l-109 185l109 185h60l-112 -185l112 -185h-60z" />
    <glyph glyph-name="guilsinglright" unicode="&#x203a;" horiz-adv-x="314" 
d="M127 97h-60l112 185l-112 185h60l109 -185z" />
    <glyph glyph-name="fraction" unicode="&#x2044;" horiz-adv-x="208" 
d="M-115 -65l-47 25l487 812l46 -28z" />
    <glyph glyph-name="uni207A" unicode="&#x207a;" horiz-adv-x="437" 
d="M369 233v-45h-125v-127h-51v127h-125v45h125v126h51v-126h125z" />
    <glyph glyph-name="uni207B" unicode="&#x207b;" horiz-adv-x="407" 
d="M68 188v45h271v-45h-271z" />
    <glyph glyph-name="lira" unicode="&#x20a4;" horiz-adv-x="608" 
d="M509 365h65q1 -158 -101.5 -262.5t-255.5 -102.5h-64v341l-89 -33l-20 50l109 39v92l-89 -33l-20 50l109 40v154h64v-131l211 77l19 -50l-230 -84v-91l211 76l19 -49l-230 -84v-306q128 0 210 85.5t82 221.5z" />
    <glyph glyph-name="uni20A8" unicode="&#x20a8;" horiz-adv-x="691" 
d="M647 649h-149v-2q70 -41 77 -123h72v-54h-71q-7 -81 -61.5 -126.5t-150.5 -49.5v-2l187 -292h-75l-184 294h-221v57h271q155 0 169 119h-440v54h440q-15 118 -171 118h-269v58h576v-51z" />
    <glyph glyph-name="uni20A9" unicode="&#x20a9;" horiz-adv-x="1069" 
d="M1049 441h-98l-23 -99h121v-49h-133l-69 -293h-70l-114 293h-257l-115 -293h-69l-69 293h-133v49h122l-23 99h-99v49h87l-49 210h60l50 -210h256l82 210h57l82 -210h256l50 210h61l-49 -210h86v-49zM534 617l-50 -127h102l-50 127h-2zM179 441l24 -99h164l38 99h-226z
M426 342h217l-38 99h-140zM866 342l24 99h-226l38 -99h164zM266 83l82 210h-134l50 -210h2zM805 83l50 210h-134l82 -210h2z" />
    <glyph glyph-name="Euro" unicode="&#x20ac;" horiz-adv-x="879" 
d="M772 258l61 -15q-25 -120 -120 -189t-224 -69q-131 0 -228.5 73t-129.5 192h-106v54h97q-3 22 -3 46q0 7 2 41h-96v54h105q30 121 128.5 195.5t230.5 74.5q126 0 220 -67.5t121 -180.5l-61 -15q-26 98 -101 152t-179 54q-105 0 -185 -57q-80 -59 -108 -156h359v-54h-370
q-2 -34 -2 -41q0 -24 3 -46h291v-54h-280q29 -97 108 -152q80 -56 184 -56q107 0 183 56t100 160z" />
    <glyph glyph-name="uni20BD" unicode="&#x20bd;" horiz-adv-x="788" 
d="M727 488q0 -100 -62.5 -155.5t-174.5 -55.5h-278v-95h254v-54h-254v-128h-64v128h-104v54h104v95h-104v54h104v369h342q110 0 173.5 -56.5t63.5 -155.5zM663 488q0 154 -175 154h-276v-307h276q175 0 175 153z" />
    <glyph glyph-name="uni2116" unicode="&#x2116;" horiz-adv-x="1216" 
d="M771 490q0 98 54.5 158.5t142.5 60.5t142 -60.5t54 -158.5t-54 -158.5t-142 -60.5t-142.5 60.5t-54.5 158.5zM88 0v700h69l448 -609h2v609h64v-700h-69l-448 609h-2v-609h-64zM1106 490q0 77 -37.5 122t-100.5 45t-101 -45t-38 -122t38 -122t101 -45t100.5 45t37.5 122z
M771 156v54h393v-54h-393z" />
    <glyph glyph-name="uni2117" unicode="&#x2117;" horiz-adv-x="725" 
d="M58 324q-2 130 87.5 219t217.5 87q129 0 217 -87t88 -219q2 -130 -88 -220t-217 -88q-127 -2 -217 87.5t-88 220.5zM624 324q0 116 -74.5 191.5t-186.5 75.5t-187 -75.5t-75 -191.5q0 -118 74.5 -193.5t187.5 -75.5q112 0 186.5 75.5t74.5 193.5zM269 145v353h129
q57 0 88.5 -29t31.5 -81t-31.5 -80.5t-88.5 -28.5h-78v-134h-51zM320 323h74q35 0 54 17t19 48q0 66 -73 66h-74v-131z" />
    <glyph glyph-name="trademark" unicode="&#x2122;" horiz-adv-x="765" 
d="M157 361v297h-104v42h252v-42h-104v-297h-44zM361 361v339h61l112 -273h1l113 273h59v-339h-44v271h-1l-111 -271h-33l-112 271h-1v-271h-44z" />
    <glyph glyph-name="oneeighth" unicode="&#x215b;" horiz-adv-x="934" 
d="M163 280v362l-136 -74v56l140 76h50v-420h-54zM176 -65l-47 25l487 812l46 -28zM531 117q0 38 25.5 68t70.5 44v1q-68 29 -68 87q0 49 44.5 80.5t113.5 31.5q68 0 112.5 -31.5t44.5 -80.5q0 -58 -68 -87v-1q45 -14 70.5 -44t25.5 -68q0 -57 -50.5 -91.5t-134.5 -34.5
q-85 0 -135.5 34.5t-50.5 91.5zM822 315q0 32 -29 51.5t-76 19.5q-48 0 -77 -19.5t-29 -51.5q0 -30 30 -49.5t76 -19.5t75.5 19.5t29.5 49.5zM848 120q0 38 -36 61t-95 23t-95.5 -23t-36.5 -61q0 -39 35 -60.5t97 -21.5t96.5 21.5t34.5 60.5z" />
    <glyph glyph-name="threeeighths" unicode="&#x215c;" horiz-adv-x="1047" 
d="M27 417l53 7q3 -52 35 -79t90 -27q53 0 83 22.5t30 61.5q0 79 -109 79h-49v42h48q99 0 99 69q0 32 -27.5 51t-74.5 19q-100 0 -123 -89l-51 13q13 57 59 90t115 33t112 -32t43 -83q0 -60 -61 -88v-1q34 -13 53.5 -41t19.5 -64q0 -59 -45.5 -94t-121.5 -35
q-80 0 -127 38.5t-51 107.5zM289 -65l-47 25l487 812l46 -28zM644 117q0 38 25.5 68t70.5 44v1q-68 29 -68 87q0 49 44.5 80.5t113.5 31.5q68 0 112.5 -31.5t44.5 -80.5q0 -58 -68 -87v-1q45 -14 70.5 -44t25.5 -68q0 -57 -50.5 -91.5t-134.5 -34.5q-85 0 -135.5 34.5
t-50.5 91.5zM935 315q0 32 -29 51.5t-76 19.5q-48 0 -77 -19.5t-29 -51.5q0 -30 30 -49.5t76 -19.5t75.5 19.5t29.5 49.5zM961 120q0 38 -36 61t-95 23t-95.5 -23t-36.5 -61q0 -39 35 -60.5t97 -21.5t96.5 21.5t34.5 60.5z" />
    <glyph glyph-name="fiveeighths" unicode="&#x215d;" horiz-adv-x="1073" 
d="M32 396l51 17q23 -95 135 -95q58 0 92 28.5t34 75.5t-34 74.5t-91 27.5q-73 0 -128 -54l-50 15l44 215h273v-47h-232l-26 -123l1 -1q53 38 124 38q77 0 125.5 -40.5t48.5 -105.5q0 -66 -50 -108t-131 -42q-73 0 -123 33.5t-63 91.5zM315 -65l-47 25l487 812l46 -28z
M670 117q0 38 25.5 68t70.5 44v1q-68 29 -68 87q0 49 44.5 80.5t113.5 31.5q68 0 112.5 -31.5t44.5 -80.5q0 -58 -68 -87v-1q45 -14 70.5 -44t25.5 -68q0 -57 -50.5 -91.5t-134.5 -34.5q-85 0 -135.5 34.5t-50.5 91.5zM961 315q0 32 -29 51.5t-76 19.5q-48 0 -77 -19.5
t-29 -51.5q0 -30 30 -49.5t76 -19.5t75.5 19.5t29.5 49.5zM987 120q0 38 -36 61t-95 23t-95.5 -23t-36.5 -61q0 -39 35 -60.5t97 -21.5t96.5 21.5t34.5 60.5z" />
    <glyph glyph-name="seveneighths" unicode="&#x215e;" horiz-adv-x="949" 
d="M67 280l201 372v1h-268v47h331v-44l-202 -376h-62zM191 -65l-47 25l487 812l46 -28zM546 117q0 38 25.5 68t70.5 44v1q-68 29 -68 87q0 49 44.5 80.5t113.5 31.5q68 0 112.5 -31.5t44.5 -80.5q0 -58 -68 -87v-1q45 -14 70.5 -44t25.5 -68q0 -57 -50.5 -91.5t-134.5 -34.5
q-85 0 -135.5 34.5t-50.5 91.5zM837 315q0 32 -29 51.5t-76 19.5q-48 0 -77 -19.5t-29 -51.5q0 -30 30 -49.5t76 -19.5t75.5 19.5t29.5 49.5zM863 120q0 38 -36 61t-95 23t-95.5 -23t-36.5 -61q0 -39 35 -60.5t97 -21.5t96.5 21.5t34.5 60.5z" />
    <glyph glyph-name="arrowleft" unicode="&#x2190;" horiz-adv-x="718" 
d="M660 373v-53h-499l178 -168l-40 -40l-241 234l241 234l40 -40l-177 -167h498z" />
    <glyph glyph-name="arrowup" unicode="&#x2191;" horiz-adv-x="583" 
d="M525 410l-41 -41l-164 175v-495h-57v496l-164 -176l-41 41l233 242z" />
    <glyph glyph-name="arrowright" unicode="&#x2192;" horiz-adv-x="718" 
d="M419 580l241 -234l-241 -234l-40 40l178 168h-499v53h498l-177 167z" />
    <glyph glyph-name="arrowdown" unicode="&#x2193;" horiz-adv-x="583" 
d="M484 332l41 -41l-234 -242l-233 242l41 41l164 -176v496h57v-495z" />
    <glyph glyph-name="arrowboth" unicode="&#x2194;" horiz-adv-x="825" 
d="M524 580l243 -234l-243 -234l-37 40l180 169h-509l180 -169l-37 -40l-243 234l243 234l37 -40l-179 -168h507l-179 168z" />
    <glyph glyph-name="arrowupdn" unicode="&#x2195;" horiz-adv-x="583" 
d="M317 108l168 178l40 -38l-234 -243l-233 243l40 38l167 -177v482l-167 -178l-40 38l233 243l234 -243l-40 -38l-168 178v-483z" />
    <glyph glyph-name="uni2196" unicode="&#x2196;" horiz-adv-x="561" 
d="M503 166l-38 -40l-353 353l6 -241l-54 -1l-6 335l334 -6v-55l-241 7z" />
    <glyph glyph-name="uni2197" unicode="&#x2197;" horiz-adv-x="561" 
d="M58 166l352 352l-241 -7v55l334 6l-6 -335l-54 1l6 241l-353 -353z" />
    <glyph glyph-name="uni2198" unicode="&#x2198;" horiz-adv-x="561" 
d="M58 533l38 40l353 -353l-6 241l54 1l6 -335l-334 6v55l241 -7z" />
    <glyph glyph-name="uni2199" unicode="&#x2199;" horiz-adv-x="561" 
d="M503 535l-352 -352l241 7v-55l-334 -6l6 335l54 -1l-6 -241l353 353z" />
    <glyph glyph-name="uni21B3" unicode="&#x21b3;" horiz-adv-x="723" 
d="M423 580l242 -234l-242 -234l-39 40l178 168h-454v380h56v-327h397l-177 167z" />
    <glyph glyph-name="partialdiff" unicode="&#x2202;" horiz-adv-x="582" 
d="M535 406q0 -421 -257 -421q-106 0 -166.5 66t-60.5 181q0 124 59.5 196t162.5 72q98 0 197 -51q-10 277 -157 277q-54 0 -104 -53l-42 43q64 70 146 70q109 0 165.5 -96.5t56.5 -283.5zM471 387q-101 56 -193 56q-78 0 -120.5 -55.5t-42.5 -156.5q0 -88 43 -137t121 -49
q186 0 192 342z" />
    <glyph glyph-name="emptyset" unicode="&#x2205;" horiz-adv-x="848" 
d="M790 350q3 -152 -105.5 -260t-260.5 -105q-122 0 -220 70l-88 -104l-39 32l89 104q-108 108 -108 263q-3 152 105.5 260t260.5 105q121 0 218 -68l90 106l39 -34l-90 -105q109 -106 109 -264zM202 130l404 474q-80 56 -182 56q-130 2 -219.5 -88.5t-87.5 -221.5
q0 -130 85 -220zM731 350q0 133 -86 221l-405 -474q81 -57 184 -57q130 -2 219.5 88.5t87.5 221.5z" />
    <glyph glyph-name="product" unicode="&#x220f;" horiz-adv-x="757" 
d="M160 -141v783h-125v58h687v-58h-125v-783h-64v783h-309v-783h-64z" />
    <glyph glyph-name="summation" unicode="&#x2211;" horiz-adv-x="611" 
d="M78 -100v54l268 346l-268 346v54h480v-58h-399l269 -342l-269 -342h399v-58h-480z" />
    <glyph glyph-name="minus" unicode="&#x2212;" horiz-adv-x="540" 
d="M68 342v52h404v-52h-404z" />
    <glyph glyph-name="radical" unicode="&#x221a;" horiz-adv-x="658" 
d="M573 700h72l-284 -700h-64l-142 350h-127v59h171l128 -326h2z" />
    <glyph glyph-name="infinity" unicode="&#x221e;" horiz-adv-x="735" 
d="M68 303q0 83 44 135.5t114 52.5q46 0 83 -29t59 -82q21 53 58.5 82t83.5 29q69 0 113 -52.5t44 -135.5q0 -82 -44.5 -135t-112.5 -53q-46 0 -83.5 29.5t-58.5 82.5q-22 -53 -59 -82.5t-83 -29.5q-70 0 -114 53t-44 135zM348 303q-36 138 -121 138q-48 0 -78 -38t-30 -100
q0 -61 30 -99.5t78 -38.5q84 0 121 138zM616 303q0 62 -30 100t-78 38q-85 0 -121 -138q37 -138 121 -138q48 0 78 38.5t30 99.5z" />
    <glyph glyph-name="integral" unicode="&#x222b;" horiz-adv-x="484" 
d="M68 -240v58q83 0 112.5 30t29.5 116v581q0 110 46 155t160 45v-59q-83 0 -112.5 -30t-29.5 -115v-581q0 -111 -45.5 -155.5t-160.5 -44.5z" />
    <glyph glyph-name="approxequal" unicode="&#x2248;" horiz-adv-x="607" 
d="M117 370l-49 14q11 59 44.5 91.5t82.5 32.5q51 0 124 -48q61 -38 90 -38q31 0 49.5 20.5t30.5 66.5l50 -16q-11 -58 -45 -90.5t-83 -32.5q-51 0 -124 48q-28 16 -38 21.5t-24.5 10.5t-27.5 5q-31 0 -50 -20t-30 -65zM117 206l-49 14q11 59 44.5 91.5t82.5 32.5
q51 0 124 -48q61 -38 90 -38q31 0 49.5 20.5t30.5 66.5l50 -16q-11 -58 -45 -90.5t-83 -32.5q-51 0 -124 48q-28 16 -38 21.5t-24.5 10.5t-27.5 5q-31 0 -50 -20t-30 -65z" />
    <glyph glyph-name="notequal" unicode="&#x2260;" horiz-adv-x="557" 
d="M490 420h-151l-73 -131h224v-53h-254l-61 -110l-35 20l50 90h-122v53h152l72 131h-224v54h254l61 109l36 -20l-50 -89h121v-54z" />
    <glyph glyph-name="lessequal" unicode="&#x2264;" horiz-adv-x="561" 
d="M455 131l-387 233v52l387 233l29 -45l-357 -214l356 -214zM493 0h-425v54h425v-54z" />
    <glyph glyph-name="greaterequal" unicode="&#x2265;" horiz-adv-x="561" 
d="M106 131l-28 45l356 214l-357 214l29 45l387 -233v-52zM68 0v54h425v-54h-425z" />
    <glyph glyph-name="lozenge" unicode="&#x25ca;" horiz-adv-x="647" 
d="M284 0l-216 350l216 350h79l216 -350l-216 -350h-79zM323 40l194 310l-194 310l-193 -310z" />
    <glyph glyph-name="uniF8FF" unicode="&#xf8ff;" horiz-adv-x="686" 
d="M50 0v423q-3 115 87 204.5t205 87.5q116 2 206.5 -87.5t87.5 -204.5v-423h-28l-65 65l-68 -65l-63 65l-71 -65l-69 65l-63 -65l-67 65l-66 -65h-26zM287 377q0 30 -20.5 51t-50.5 21q-29 0 -50 -21t-21 -51q0 -29 21 -49.5t50 -20.5t50 20.5t21 49.5zM542 377
q0 30 -21 51t-51 21q-29 0 -49.5 -21t-20.5 -51q0 -28 21 -49t49 -21q29 0 50.5 21t21.5 49z" />
    <glyph glyph-name="uniFEFF" unicode="&#xfeff;" horiz-adv-x="0" 
 />
    <glyph glyph-name="_001" horiz-adv-x="0" 
 />
    <glyph glyph-name="_123" horiz-adv-x="670" 
d="M303 0v642h-268v58h600v-58h-268v-642h-64z" />
    <glyph glyph-name="_125" horiz-adv-x="670" 
d="M303 0v642h-268v58h600v-58h-268v-642h-64zM143 324v52h396v-52h-396z" />
    <glyph glyph-name="_127" horiz-adv-x="670" 
d="M303 0v642h-268v58h600v-58h-268v-642h-64zM420 864l34 -32l-79 -82h-79l-79 82l34 32l85 -89z" />
    <glyph glyph-name="_129" horiz-adv-x="670" 
d="M303 0v642h-268v58h600v-58h-268v-642h-64zM464 -124q0 -39 -29.5 -63.5t-75.5 -24.5q-60 0 -106 40l28 34q35 -33 78 -33q26 0 43 13t17 35q0 21 -16 33t-42 12q-37 0 -67 -27l-35 16l68 112l34 -15l-37 -59q18 9 44 9q43 0 69.5 -23t26.5 -59z" />
    <glyph glyph-name="_131" horiz-adv-x="670" 
d="M303 0v642h-268v58h600v-58h-268v-642h-64zM294 -208v33q35 6 35 44h-38v82h89v-72q0 -81 -86 -87z" />
    <glyph glyph-name="_133" horiz-adv-x="670" 
d="M303 0v642h-268v58h600v-58h-268v-642h-64zM294 -130v81h83v-81h-83z" />
    <glyph glyph-name="_233" horiz-adv-x="202" 
d="M71 0v530h60v-530h-60zM61 625v76h80v-76h-80z" />
    <glyph glyph-name="_335" horiz-adv-x="300" 
d="M17 495q0 38 28 58.5t96 31.5q43 7 59.5 15t16.5 23q0 43 -67 43q-35 0 -58 -17t-27 -46l-47 9q8 44 43.5 69.5t88.5 25.5q54 0 86 -25t32 -68v-190h-46v36h-1q-27 -43 -101 -43q-47 0 -75 21t-28 57zM220 520v57h-1q-10 -17 -69 -27q-49 -9 -67.5 -20.5t-18.5 -32.5
q0 -39 63 -39q38 0 65.5 18.5t27.5 43.5z" />
    <glyph glyph-name="_336" horiz-adv-x="347" 
d="M330 562q0 -63 -41.5 -104t-104.5 -41q-69 0 -103 43h-1v-36h-48v380h50v-137h1q35 40 101 40q63 0 104.5 -41t41.5 -104zM280 562q0 46 -28.5 73.5t-75.5 27.5q-39 0 -66 -22t-27 -50v-58q0 -28 27 -50t66 -22q47 0 75.5 27.5t28.5 73.5z" />
    <glyph glyph-name="_337" horiz-adv-x="324" 
d="M17 562q0 65 42 105t108 40q52 0 90.5 -27t49.5 -71l-46 -13q-20 67 -94 67q-45 0 -72.5 -27t-27.5 -74t27.5 -74t72.5 -27q74 0 94 67l46 -13q-11 -44 -49.5 -71t-90.5 -27q-66 0 -108 40t-42 105z" />
    <glyph glyph-name="_338" horiz-adv-x="347" 
d="M264 667h1v137h50v-380h-48v36h-1q-34 -43 -103 -43q-63 0 -104.5 41t-41.5 104t41.5 104t104.5 41q66 0 101 -40zM264 533v58q0 28 -27 50t-66 22q-47 0 -75.5 -27.5t-28.5 -73.5t28.5 -73.5t75.5 -27.5q39 0 66 22t27 50z" />
    <glyph glyph-name="_339" horiz-adv-x="330" 
d="M313 558v-16h-245q8 -81 101 -81q59 0 95 54l36 -31q-49 -67 -131 -67q-69 0 -110.5 39t-41.5 104t41.5 106t106.5 41q66 0 107 -41.5t41 -107.5zM68 583h193q-2 36 -28 58t-68 22q-41 0 -66.5 -21.5t-30.5 -58.5z" />
    <glyph glyph-name="_340" horiz-adv-x="217" 
d="M62 424v232h-55v44h55v29q0 31 19.5 49.5t55.5 18.5h59v-43h-54q-30 0 -30 -28v-26h98v-44h-98v-232h-50z" />
    <glyph glyph-name="_341" horiz-adv-x="349" 
d="M38 371l36 28q19 -32 41.5 -45.5t58.5 -13.5q45 0 70 22t25 64v29h-1q-32 -38 -103 -38q-66 0 -107 40t-41 105q0 62 43 104q43 41 107 41q66 0 101 -40h1v33h48v-271q0 -61 -39 -97t-103 -36q-92 0 -137 75zM267 529v65q0 28 -27.5 48.5t-68.5 20.5q-46 0 -75 -28
t-29 -73q0 -47 28 -74t76 -27q42 0 69 19.5t27 48.5z" />
    <glyph glyph-name="_342" horiz-adv-x="348" 
d="M32 424v380h50v-144h1q35 47 105 47q59 0 96.5 -34t37.5 -85v-164h-51v154q0 39 -25.5 62.5t-66.5 23.5q-42 0 -69.5 -24.5t-27.5 -62.5v-153h-50z" />
    <glyph glyph-name="_343" horiz-adv-x="122" 
d="M32 747v54h58v-54h-58zM36 424v276h50v-276h-50z" />
    <glyph glyph-name="_344" horiz-adv-x="124" 
d="M34 747v54h58v-54h-58zM-36 332v46h40q34 0 34 33v289h50v-289q0 -41 -19 -60t-60 -19h-45z" />
    <glyph glyph-name="_345" horiz-adv-x="307" 
d="M32 424v380h50v-232h1l146 128h70l-127 -110l133 -166h-61l-106 135h-1l-55 -47v-88h-50z" />
    <glyph glyph-name="_346" horiz-adv-x="114" 
d="M32 424v380h50v-380h-50z" />
    <glyph glyph-name="_347" horiz-adv-x="514" 
d="M32 424v276h46v-35h1q29 42 90 42q32 0 58.5 -14.5t38.5 -37.5h1q33 52 99 52q53 0 87 -32t34 -81v-170h-47v162q0 35 -21.5 56t-56.5 21q-36 0 -58 -20.5t-22 -53.5v-165h-45v165q0 34 -21.5 54t-56.5 20q-36 0 -58 -20.5t-22 -56.5v-162h-47z" />
    <glyph glyph-name="_348" horiz-adv-x="347" 
d="M32 424v276h48v-42h1q33 49 106 49q59 0 96 -34t37 -85v-164h-50v153q0 39 -25 62.5t-67 23.5t-69 -24.5t-27 -62.5v-152h-50z" />
    <glyph glyph-name="_349" horiz-adv-x="339" 
d="M17 562q0 63 43 104t110 41q66 0 109 -41t43 -104t-43 -104t-109 -41q-67 0 -110 41t-43 104zM272 562q0 45 -28 73t-74 28t-74.5 -28t-28.5 -73t28.5 -73t74.5 -28t74 28t28 73z" />
    <glyph glyph-name="_350" horiz-adv-x="345" 
d="M328 562q0 -64 -40.5 -104.5t-103.5 -40.5q-68 0 -101 41h-1v-155h-50v397h48v-36h1q34 43 103 43q63 0 103.5 -40.5t40.5 -104.5zM278 562q0 46 -28 73.5t-74 27.5q-39 0 -66 -22t-27 -50v-58q0 -28 27 -50t66 -22q46 0 74 27.5t28 73.5z" />
    <glyph glyph-name="_351" horiz-adv-x="345" 
d="M264 664h1v36h48v-397h-50v155h-1q-33 -41 -101 -41q-63 0 -103.5 40.5t-40.5 104.5t40.5 104.5t103.5 40.5q69 0 103 -43zM262 533v58q0 28 -27 50t-66 22q-46 0 -74 -27.5t-28 -73.5t28 -73.5t74 -27.5q39 0 66 22t27 50z" />
    <glyph glyph-name="_352" horiz-adv-x="200" 
d="M199 698l-11 -46q-22 6 -36 6q-33 0 -51.5 -22t-18.5 -64v-148h-50v276h48v-28h1q25 33 72 33q22 0 46 -7z" />
    <glyph glyph-name="_353" horiz-adv-x="324" 
d="M27 516l46 12q7 -32 33.5 -50.5t66.5 -18.5q76 0 76 43q-1 18 -20.5 28t-67.5 17q-67 11 -94 28.5t-27 50.5q0 35 32 58t82 23q51 0 87.5 -24t45.5 -63l-46 -12q-13 57 -87 57q-30 0 -48 -10.5t-18 -27.5q0 -14 17 -22.5t63 -16.5q70 -11 99.5 -30.5t29.5 -54.5
q1 -40 -32.5 -63t-91.5 -23q-60 0 -99.5 27t-46.5 72z" />
    <glyph glyph-name="_354" horiz-adv-x="213" 
d="M206 656h-98v-160q0 -14 7 -19.5t24 -5.5h51v-47h-57q-40 0 -57.5 16t-17.5 51v165h-51v44h51v63h50v-63h98v-44z" />
    <glyph glyph-name="_355" horiz-adv-x="338" 
d="M256 700h51v-276h-48v40h-1q-34 -47 -105 -47q-60 0 -93 32t-33 91v160h50v-157q0 -43 21 -62.5t65 -19.5q40 0 66.5 24.5t26.5 61.5v153z" />
    <glyph glyph-name="_356" horiz-adv-x="335" 
d="M147 424l-135 276h54l101 -215h1l101 215h54l-135 -276h-41z" />
    <glyph glyph-name="_357" horiz-adv-x="470" 
d="M94 424l-82 276h52l62 -210h1l85 210h48l85 -210h1l61 210h51l-81 -276h-50l-91 220h-1l-92 -220h-49z" />
    <glyph glyph-name="_358" horiz-adv-x="335" 
d="M12 424l124 142l-117 134h63l85 -101h1l85 101h63l-118 -134l125 -142h-64l-91 109h-1l-92 -109h-63z" />
    <glyph glyph-name="_359" horiz-adv-x="330" 
d="M262 700h56l-197 -397h-57l74 147l-126 250h58l95 -199h1z" />
    <glyph glyph-name="_360" horiz-adv-x="312" 
d="M12 424v40l210 191v1h-204v44h278v-40l-210 -191v-1h214v-44h-288z" />
    <glyph glyph-name="_361" horiz-adv-x="644" 
d="M514 530h59v-530h-59v68h-2q-30 -39 -81.5 -61t-113.5 -22q-118 0 -192 78t-74 202t74 202t192 78q62 0 113.5 -22t81.5 -61h2v68zM513 185v160q0 59 -56 102.5t-132 43.5q-99 0 -156.5 -61t-57.5 -165t57.5 -165t156.5 -61q76 0 132 43.5t56 102.5z" />
    <glyph glyph-name="_362" horiz-adv-x="644" 
d="M514 530h59v-530h-59v68h-2q-30 -39 -81.5 -61t-113.5 -22q-118 0 -192 78t-74 202t74 202t192 78q62 0 113.5 -22t81.5 -61h2v68zM513 185v160q0 59 -56 102.5t-132 43.5q-99 0 -156.5 -61t-57.5 -165t57.5 -165t156.5 -61q76 0 132 43.5t56 102.5zM287 605l80 110h87
l-112 -110h-55z" />
    <glyph glyph-name="_363" horiz-adv-x="644" 
d="M514 530h59v-530h-59v68h-2q-30 -39 -81.5 -61t-113.5 -22q-118 0 -192 78t-74 202t74 202t192 78q62 0 113.5 -22t81.5 -61h2v68zM513 185v160q0 59 -56 102.5t-132 43.5q-99 0 -156.5 -61t-57.5 -165t57.5 -165t156.5 -61q76 0 132 43.5t56 102.5zM197 706h38
q14 -60 92 -60q79 0 91 60h39q-4 -52 -38.5 -81.5t-91.5 -29.5q-56 0 -91 29.5t-39 81.5z" />
    <glyph glyph-name="_364" horiz-adv-x="644" 
d="M514 530h59v-530h-59v68h-2q-30 -39 -81.5 -61t-113.5 -22q-118 0 -192 78t-74 202t74 202t192 78q62 0 113.5 -22t81.5 -61h2v68zM513 185v160q0 59 -56 102.5t-132 43.5q-99 0 -156.5 -61t-57.5 -165t57.5 -165t156.5 -61q76 0 132 43.5t56 102.5zM412 709l34 -32
l-79 -82h-79l-79 82l34 32l85 -89z" />
    <glyph glyph-name="_365" horiz-adv-x="644" 
d="M514 530h59v-530h-59v68h-2q-30 -39 -81.5 -61t-113.5 -22q-118 0 -192 78t-74 202t74 202t192 78q62 0 113.5 -22t81.5 -61h2v68zM513 185v160q0 59 -56 102.5t-132 43.5q-99 0 -156.5 -61t-57.5 -165t57.5 -165t156.5 -61q76 0 132 43.5t56 102.5zM446 617l-34 -32
l-84 90l-85 -90l-34 32l79 82h79z" />
    <glyph glyph-name="_366" horiz-adv-x="644" 
d="M514 530h59v-530h-59v68h-2q-30 -39 -81.5 -61t-113.5 -22q-118 0 -192 78t-74 202t74 202t192 78q62 0 113.5 -22t81.5 -61h2v68zM513 185v160q0 59 -56 102.5t-132 43.5q-99 0 -156.5 -61t-57.5 -165t57.5 -165t156.5 -61q76 0 132 43.5t56 102.5zM446 617l-34 -32
l-84 90l-85 -90l-34 32l79 82h79zM286 -145v81h83v-81h-83z" />
    <glyph glyph-name="_367" horiz-adv-x="644" 
d="M514 530h59v-530h-59v68h-2q-30 -39 -81.5 -61t-113.5 -22q-118 0 -192 78t-74 202t74 202t192 78q62 0 113.5 -22t81.5 -61h2v68zM513 185v160q0 59 -56 102.5t-132 43.5q-99 0 -156.5 -61t-57.5 -165t57.5 -165t156.5 -61q76 0 132 43.5t56 102.5zM195 595v82h84v-82
h-84zM376 595v82h84v-82h-84z" />
    <glyph glyph-name="_368" horiz-adv-x="644" 
d="M514 530h59v-530h-59v68h-2q-30 -39 -81.5 -61t-113.5 -22q-118 0 -192 78t-74 202t74 202t192 78q62 0 113.5 -22t81.5 -61h2v68zM513 185v160q0 59 -56 102.5t-132 43.5q-99 0 -156.5 -61t-57.5 -165t57.5 -165t156.5 -61q76 0 132 43.5t56 102.5zM195 595v82h84v-82
h-84zM376 595v82h84v-82h-84zM184 717v47h286v-47h-286z" />
    <glyph glyph-name="_369" horiz-adv-x="644" 
d="M514 530h59v-530h-59v68h-2q-30 -39 -81.5 -61t-113.5 -22q-118 0 -192 78t-74 202t74 202t192 78q62 0 113.5 -22t81.5 -61h2v68zM513 185v160q0 59 -56 102.5t-132 43.5q-99 0 -156.5 -61t-57.5 -165t57.5 -165t156.5 -61q76 0 132 43.5t56 102.5zM286 -145v81h83v-81
h-83z" />
    <glyph glyph-name="_370" horiz-adv-x="644" 
d="M514 530h59v-530h-59v68h-2q-30 -39 -81.5 -61t-113.5 -22q-118 0 -192 78t-74 202t74 202t192 78q62 0 113.5 -22t81.5 -61h2v68zM513 185v160q0 59 -56 102.5t-132 43.5q-99 0 -156.5 -61t-57.5 -165t57.5 -165t156.5 -61q76 0 132 43.5t56 102.5zM311 605l-111 110h87
l80 -110h-56z" />
    <glyph glyph-name="_371" horiz-adv-x="644" 
d="M514 530h59v-530h-59v68h-2q-30 -39 -81.5 -61t-113.5 -22q-118 0 -192 78t-74 202t74 202t192 78q62 0 113.5 -22t81.5 -61h2v68zM513 185v160q0 59 -56 102.5t-132 43.5q-99 0 -156.5 -61t-57.5 -165t57.5 -165t156.5 -61q76 0 132 43.5t56 102.5zM184 605v47h286v-47
h-286z" />
    <glyph glyph-name="_372" horiz-adv-x="644" 
d="M514 530h59v-530h-59v68h-2q-30 -39 -81.5 -61t-113.5 -22q-118 0 -192 78t-74 202t74 202t192 78q62 0 113.5 -22t81.5 -61h2v68zM513 185v160q0 59 -56 102.5t-132 43.5q-99 0 -156.5 -61t-57.5 -165t57.5 -165t156.5 -61q76 0 132 43.5t56 102.5zM435 -115
q0 69 101 127l31 -12q-82 -46 -82 -103q0 -37 39 -37q25 0 59 20l20 -46q-41 -23 -86 -23q-39 0 -60.5 19t-21.5 55z" />
    <glyph glyph-name="_373" horiz-adv-x="648" 
d="M211 677q0 43 29.5 71t74.5 28q46 0 75.5 -28t29.5 -71q0 -42 -29.5 -70t-75.5 -28q-45 0 -74.5 28t-29.5 70zM379 677q0 29 -18 47t-46 18t-46 -18.5t-18 -46.5t18 -46t46 -18t46 18t18 46zM514 530h59v-530h-59v68h-2q-30 -39 -81.5 -61t-113.5 -22q-118 0 -192 78
t-74 202t74 202t192 78q62 0 113.5 -22t81.5 -61h2v68zM513 185v160q0 59 -56 102.5t-132 43.5q-99 0 -156.5 -61t-57.5 -165t57.5 -165t156.5 -61q76 0 132 43.5t56 102.5z" />
    <glyph glyph-name="_374" horiz-adv-x="644" 
d="M211 677q0 37 22 63t57 33l71 98h87l-101 -99q33 -9 53 -35t20 -60q0 -42 -29.5 -70t-75.5 -28q-45 0 -74.5 28t-29.5 70zM251 677q0 -28 18 -46t46 -18t46 18t18 46q0 29 -18 47t-46 18t-46 -18.5t-18 -46.5zM514 530h59v-530h-59v68h-2q-30 -39 -81.5 -61t-113.5 -22
q-118 0 -192 78t-74 202t74 202t192 78q62 0 113.5 -22t81.5 -61h2v68zM513 185v160q0 59 -56 102.5t-132 43.5q-99 0 -156.5 -61t-57.5 -165t57.5 -165t156.5 -61q76 0 132 43.5t56 102.5z" />
    <glyph glyph-name="_375" horiz-adv-x="644" 
d="M514 530h59v-530h-59v68h-2q-30 -39 -81.5 -61t-113.5 -22q-118 0 -192 78t-74 202t74 202t192 78q62 0 113.5 -22t81.5 -61h2v68zM513 185v160q0 59 -56 102.5t-132 43.5q-99 0 -156.5 -61t-57.5 -165t57.5 -165t156.5 -61q76 0 132 43.5t56 102.5zM317 623
q-43 18 -62 18q-39 0 -45 -36h-37q3 38 25 60t59 22q32 0 82 -23q43 -19 63 -19q37 0 45 37h35q-2 -38 -24 -60t-59 -22q-31 0 -82 23z" />
    <glyph glyph-name="_376" horiz-adv-x="576" 
d="M51 138q0 70 53 107.5t181 58.5q90 14 125.5 33.5t35.5 54.5q0 45 -40.5 72t-107.5 27q-76 0 -124 -36.5t-59 -102.5l-59 13q14 83 79.5 131.5t162.5 48.5q96 0 154 -45t58 -119v-381h-59v77h-1q-26 -42 -81.5 -67t-123.5 -25q-91 0 -142.5 40.5t-51.5 112.5zM450 181
v134h-2q-13 -22 -47 -35.5t-104 -24.5q-101 -17 -143 -44t-42 -73q0 -99 144 -99q80 0 137 41.5t57 100.5zM185 615q0 46 32 76.5t81 30.5q50 0 82 -30.5t32 -76.5t-32 -76.5t-82 -30.5q-49 0 -81 30.5t-32 76.5zM368 615q0 31 -19.5 50.5t-50.5 19.5q-30 0 -50 -19.5
t-20 -50.5t20 -50.5t50 -19.5q31 0 50.5 19.5t19.5 50.5z" />
    <glyph glyph-name="_377" horiz-adv-x="576" 
d="M51 138q0 70 53 107.5t181 58.5q90 14 125.5 33.5t35.5 54.5q0 45 -40.5 72t-107.5 27q-76 0 -124 -36.5t-59 -102.5l-59 13q14 83 79.5 131.5t162.5 48.5q96 0 154 -45t58 -119v-381h-59v77h-1q-26 -42 -81.5 -67t-123.5 -25q-91 0 -142.5 40.5t-51.5 112.5zM450 181
v134h-2q-13 -22 -47 -35.5t-104 -24.5q-101 -17 -143 -44t-42 -73q0 -99 144 -99q80 0 137 41.5t57 100.5zM185 615q0 46 32 76.5t81 30.5q50 0 82 -30.5t32 -76.5t-32 -76.5t-82 -30.5q-49 0 -81 30.5t-32 76.5zM368 615q0 31 -19.5 50.5t-50.5 19.5q-30 0 -50 -19.5
t-20 -50.5t20 -50.5t50 -19.5q31 0 50.5 19.5t19.5 50.5zM257 712l80 110h87l-112 -110h-55z" />
    <glyph glyph-name="_378" horiz-adv-x="332" 
d="M116 0v478h-94v52h94v58q0 52 30 80t86 28h104v-54h-100q-59 0 -59 -59v-53h140v-52h-140v-478h-61z" />
    <glyph glyph-name="_379" horiz-adv-x="202" 
d="M61 625v76h80v-76h-80zM71 -225v755h60v-755h-60z" />
    <glyph glyph-name="_380" horiz-adv-x="350" 
d="M322 479h-147v-374q0 -28 13 -39.5t44 -11.5h73v-54h-73q-62 0 -90 25t-28 80v374h-92v51h92v115h61v-115h147v-51z" />
    <glyph glyph-name="_401" horiz-adv-x="717" 
d="M47 350q0 163 86 264t226 101q139 0 225 -101t86 -264t-86 -264t-225 -101q-140 0 -226 101t-86 264zM605 350q0 140 -67.5 223.5t-178.5 83.5q-113 0 -180 -83.5t-67 -223.5t67 -223.5t180 -83.5q111 0 178.5 83.5t67.5 223.5z" />
    <glyph glyph-name="_402" horiz-adv-x="418" 
d="M248 0v628l-213 -129v68l221 133h56v-700h-64z" />
    <glyph glyph-name="_403" horiz-adv-x="672" 
d="M131 58h470v-58h-538v55q0 101 42 159q28 38 78 67q51 28 158 63q119 39 161 74.5t42 96.5q0 62 -51 102t-134 40q-100 0 -160 -52.5t-69 -147.5l-64 7q11 117 89 184t204 67q109 0 179.5 -57t70.5 -143q0 -82 -51.5 -130.5t-185.5 -92.5q-103 -33 -145 -55
q-48 -26 -68 -55q-16 -24 -22 -49t-6 -75z" />
    <glyph glyph-name="_404" horiz-adv-x="653" 
d="M53 227l64 9q7 -94 62 -143.5t153 -49.5q91 0 142.5 42t51.5 116q0 148 -180 148h-90v56h90q75 0 117 33t42 92q0 57 -48 92t-126 35q-85 0 -137.5 -41t-65.5 -117l-63 11q14 94 86 149.5t180 55.5q105 0 171 -51t66 -133q0 -103 -103 -148v-2q126 -45 126 -183
q0 -96 -71 -154.5t-188 -58.5q-123 0 -196.5 63.5t-82.5 178.5z" />
    <glyph glyph-name="_405" horiz-adv-x="657" 
d="M446 0v143h-434v54l396 503h102v-501h109v-56h-109v-143h-64zM84 199h362v454h-2z" />
    <glyph glyph-name="_406" horiz-adv-x="666" 
d="M44 198l62 17q41 -172 233 -172q102 0 162.5 51t60.5 138q0 86 -62 139t-161 53q-130 0 -222 -95l-56 15l73 356h431v-58h-381l-48 -232l2 -1q86 70 206 70q126 0 204.5 -68.5t78.5 -178.5q0 -111 -79.5 -179t-208.5 -68q-119 0 -197 56.5t-98 156.5z" />
    <glyph glyph-name="_407" horiz-adv-x="677" 
d="M640 226q0 -106 -78.5 -173.5t-199.5 -67.5q-149 0 -232 93t-83 260q-1 164 88 271.5t225 105.5q97 0 166.5 -50t92.5 -137l-61 -18q-21 72 -72 110t-125 38q-110 0 -180 -89.5t-70 -230.5v-16h1q28 65 98 104.5t159 39.5q119 0 195 -67t76 -173zM576 226q0 85 -57.5 136
t-155.5 51q-93 0 -157.5 -55.5t-64.5 -134.5q0 -78 62.5 -129.5t158.5 -51.5q95 0 154.5 50.5t59.5 133.5z" />
    <glyph glyph-name="_408" horiz-adv-x="583" 
d="M123 0l346 640v2h-450v58h526v-55l-348 -645h-74z" />
    <glyph glyph-name="_409" horiz-adv-x="648" 
d="M29 193q0 66 43.5 115.5t119.5 70.5v2q-55 19 -86 58t-31 91q0 83 70 134t179 51t179 -51t70 -134q0 -52 -31 -91t-86 -58v-2q76 -21 119.5 -70.5t43.5 -115.5q0 -93 -79 -150.5t-216 -57.5t-216 57.5t-79 150.5zM507 529q0 57 -51 92.5t-132 35.5t-132 -35.5t-51 -92.5
q0 -56 50 -90t133 -34t133 34t50 90zM552 195q0 68 -62.5 110.5t-165.5 42.5t-165.5 -42.5t-62.5 -110.5q0 -69 60.5 -109.5t167.5 -40.5t167.5 40.5t60.5 109.5z" />
    <glyph glyph-name="_410" horiz-adv-x="652" 
d="M605 382q0 -194 -70.5 -295.5t-206.5 -101.5q-98 0 -164 49t-88 138l58 20q40 -150 194 -150q206 0 211 314h-1q-29 -55 -89.5 -85t-142.5 -30q-122 0 -195.5 64.5t-73.5 172.5q0 103 77.5 170t199.5 67q136 0 213.5 -86.5t77.5 -246.5zM523 477q0 77 -59.5 129
t-149.5 52q-96 0 -155 -50.5t-59 -130.5q0 -83 57 -132t155 -49q95 0 153 49.5t58 131.5z" />
    <glyph glyph-name="_411" 
d="M48 350q0 163 86 264t226 101t226 -101t86 -264t-86 -264t-226 -101t-226 101t-86 264zM606 350q0 140 -67.5 223.5t-178.5 83.5q-112 0 -179 -83.5t-67 -223.5t67 -223.5t179 -83.5q111 0 178.5 83.5t67.5 223.5z" />
    <glyph glyph-name="_412" 
d="M396 58h209v-58h-487v58h214v570l-213 -129v68l221 133h56v-642z" />
    <glyph glyph-name="_413" 
d="M155 58h470v-58h-538v55q0 101 42 159q28 38 78 67q51 28 158 63q119 39 161 74.5t42 96.5q0 62 -51 102t-134 40q-100 0 -160 -52.5t-69 -147.5l-64 7q11 117 89 184t204 67q109 0 179.5 -57t70.5 -143q0 -82 -51.5 -130.5t-185.5 -92.5q-103 -33 -145 -55
q-48 -26 -68 -55q-16 -24 -22 -49t-6 -75z" />
    <glyph glyph-name="_414" 
d="M91 227l64 9q7 -94 62 -143.5t153 -49.5q91 0 142.5 42t51.5 116q0 148 -180 148h-90v56h90q75 0 117 33t42 92q0 57 -48 92t-126 35q-85 0 -137.5 -41t-65.5 -117l-63 11q14 94 86 149.5t180 55.5q105 0 171 -51t66 -133q0 -103 -103 -148v-2q126 -45 126 -183
q0 -96 -71 -154.5t-188 -58.5q-123 0 -196.5 63.5t-82.5 178.5z" />
    <glyph glyph-name="_415" 
d="M490 0v143h-434v54l396 503h102v-501h109v-56h-109v-143h-64zM128 199h362v454h-2z" />
    <glyph glyph-name="_416" 
d="M68 198l62 17q41 -172 233 -172q102 0 162.5 51t60.5 138q0 86 -62 139t-161 53q-130 0 -222 -95l-56 15l73 356h431v-58h-381l-48 -232l2 -1q86 70 206 70q126 0 204.5 -68.5t78.5 -178.5q0 -111 -79.5 -179t-208.5 -68q-119 0 -197 56.5t-98 156.5z" />
    <glyph glyph-name="_417" 
d="M659 226q0 -106 -78.5 -173.5t-199.5 -67.5q-149 0 -232 93t-83 260q-1 164 88 271.5t225 105.5q97 0 166.5 -50t92.5 -137l-61 -18q-21 72 -72 110t-125 38q-110 0 -180 -89.5t-70 -230.5v-16h1q28 65 98 104.5t159 39.5q119 0 195 -67t76 -173zM595 226q0 85 -57.5 136
t-155.5 51q-93 0 -157.5 -55.5t-64.5 -134.5q0 -78 62.5 -129.5t158.5 -51.5q95 0 154.5 50.5t59.5 133.5z" />
    <glyph glyph-name="_418" 
d="M201 0l346 640v2h-450v58h526v-55l-348 -645h-74z" />
    <glyph glyph-name="_419" 
d="M66 193q0 66 43.5 115.5t119.5 70.5v2q-55 19 -86 58t-31 91q0 83 70 134t179 51t179 -51t70 -134q0 -52 -31 -91t-86 -58v-2q76 -21 119.5 -70.5t43.5 -115.5q0 -93 -79 -150.5t-216 -57.5t-216 57.5t-79 150.5zM544 529q0 57 -51 92.5t-132 35.5t-132 -35.5t-51 -92.5
q0 -56 50 -90t133 -34t133 34t50 90zM589 195q0 68 -62.5 110.5t-165.5 42.5t-165.5 -42.5t-62.5 -110.5q0 -69 60.5 -109.5t167.5 -40.5t167.5 40.5t60.5 109.5z" />
    <glyph glyph-name="_420" 
d="M646 382q0 -194 -70.5 -295.5t-206.5 -101.5q-98 0 -164 49t-88 138l58 20q41 -150 194 -150q206 0 211 314h-1q-29 -55 -89.5 -85t-142.5 -30q-122 0 -195.5 64.5t-73.5 172.5q0 103 77.5 170t199.5 67q136 0 213.5 -86.5t77.5 -246.5zM564 477q0 77 -59.5 129
t-149.5 52q-96 0 -155 -50.5t-59 -130.5q0 -83 57 -132t155 -49q95 0 153 49.5t58 131.5z" />
    <glyph glyph-name="_421" horiz-adv-x="717" 
d="M670 336q0 -157 -86 -253.5t-225 -96.5q-140 0 -226 96.5t-86 253.5t86 253.5t226 96.5q139 0 225 -96.5t86 -253.5zM189 104l293 499q-55 31 -123 31q-114 0 -183.5 -81.5t-69.5 -216.5q0 -151 83 -232zM611 336q0 157 -91 240l-293 -502q59 -36 132 -36q114 0 183 81
t69 217z" />
    <glyph glyph-name="_422" horiz-adv-x="717" 
d="M670 350q0 -163 -86 -264t-225 -101q-140 0 -226 101t-86 264t86 264t226 101q139 0 225 -101t86 -264zM188 111l299 513q-56 36 -128 36q-113 0 -181.5 -84.5t-68.5 -225.5q0 -154 79 -239zM608 350q0 157 -84 244l-299 -514q56 -40 134 -40q113 0 181 84t68 226z" />
    <glyph glyph-name="_423" 
d="M671 350q0 -163 -86 -264t-225 -101q-140 0 -226 101t-86 264t86 264t226 101q139 0 225 -101t86 -264zM189 111l299 513q-55 36 -128 36q-113 0 -181.5 -84.5t-68.5 -225.5q0 -154 79 -239zM609 350q0 157 -84 244l-299 -514q56 -40 134 -40q113 0 181 84t68 226z" />
    <glyph glyph-name="_424" horiz-adv-x="457" 
d="M32 61q0 98 54.5 158.5t142.5 60.5t142 -60.5t54 -158.5t-54 -158.5t-142 -60.5t-142.5 60.5t-54.5 158.5zM371 61q0 79 -38.5 125.5t-103.5 46.5t-104 -47t-39 -125t39 -125t104 -47t103.5 46.5t38.5 125.5z" />
    <glyph glyph-name="_425" horiz-adv-x="291" 
d="M163 -149v362l-136 -74v56l140 76h50v-420h-54z" />
    <glyph glyph-name="_426" horiz-adv-x="411" 
d="M89 -101h286v-48h-342v40q0 65 29 97q33 39 143 74q72 22 96 40.5t24 51.5q0 35 -29.5 57t-78.5 22q-57 0 -91.5 -29.5t-38.5 -79.5l-53 2q4 70 54.5 112t128.5 42q71 0 117 -35t46 -90q0 -50 -31 -78t-117 -55q-105 -33 -126 -61q-16 -20 -17 -62z" />
    <glyph glyph-name="_427" horiz-adv-x="404" 
d="M27 -12l53 7q3 -52 35 -79t90 -27q53 0 83 22.5t30 61.5q0 79 -109 79h-49v42h48q99 0 99 69q0 32 -27.5 51t-74.5 19q-100 0 -123 -89l-51 13q13 57 59 90t115 33t112 -32t43 -83q0 -60 -61 -88v-1q34 -13 53.5 -41t19.5 -64q0 -59 -45.5 -94t-121.5 -35
q-80 0 -127 38.5t-51 107.5z" />
    <glyph glyph-name="_428" horiz-adv-x="413" 
d="M276 -149v81h-266v48l233 291h87v-290h66v-49h-66v-81h-54zM70 -19h206v254h-1z" />
    <glyph glyph-name="_429" horiz-adv-x="430" 
d="M32 -33l51 17q23 -95 135 -95q58 0 92 28.5t34 75.5t-34 74.5t-91 27.5q-73 0 -128 -54l-50 15l44 215h273v-47h-232l-26 -123l1 -1q53 38 124 38q77 0 125.5 -40.5t48.5 -105.5q0 -66 -50 -108t-131 -42q-73 0 -123 33.5t-63 91.5z" />
    <glyph glyph-name="_430" horiz-adv-x="441" 
d="M409 -10q0 -65 -49.5 -106.5t-125.5 -41.5q-95 0 -148.5 56t-53.5 157q0 102 55 163.5t145 61.5q62 0 105.5 -29.5t57.5 -80.5l-50 -15q-12 37 -41.5 57.5t-71.5 20.5q-67 0 -105.5 -46t-38.5 -126h1q21 32 60.5 51t86.5 19q77 0 125 -40t48 -101zM355 -10q0 45 -33 71.5
t-89 26.5q-54 0 -91 -29.5t-37 -72.5t36 -69.5t93 -26.5q54 0 87.5 27.5t33.5 72.5z" />
    <glyph glyph-name="_431" horiz-adv-x="336" 
d="M67 -149l201 372v1h-268v47h331v-44l-202 -376h-62z" />
    <glyph glyph-name="_432" horiz-adv-x="435" 
d="M32 -32q0 38 25.5 68t70.5 44v1q-68 29 -68 87q0 49 44.5 80.5t113.5 31.5q68 0 112.5 -31.5t44.5 -80.5q0 -58 -68 -87v-1q45 -14 70.5 -44t25.5 -68q0 -57 -50.5 -91.5t-134.5 -34.5q-85 0 -135.5 34.5t-50.5 91.5zM323 166q0 32 -29 51.5t-76 19.5q-48 0 -77 -19.5
t-29 -51.5q0 -30 30 -49.5t76 -19.5t75.5 19.5t29.5 49.5zM349 -29q0 38 -36 61t-95 23t-95.5 -23t-36.5 -61q0 -39 35 -60.5t97 -21.5t96.5 21.5t34.5 60.5z" />
    <glyph glyph-name="_433" horiz-adv-x="426" 
d="M394 83q0 -117 -46.5 -179t-131.5 -62q-62 0 -104.5 30t-57.5 83l51 17q23 -83 111 -83q54 0 86 41.5t36 119.5h-1q-39 -54 -132 -54q-79 0 -126 38t-47 101q0 62 49 103.5t126 41.5q87 0 137 -53t50 -144zM327 136q0 42 -34 69.5t-86 27.5q-54 0 -87.5 -27.5
t-33.5 -70.5t33.5 -69t87.5 -26t87 26.5t33 69.5z" />
    <glyph glyph-name="_434" horiz-adv-x="457" 
d="M32 210q0 98 54.5 158.5t142.5 60.5t142 -60.5t54 -158.5t-54 -158.5t-142 -60.5t-142.5 60.5t-54.5 158.5zM371 210q0 79 -38.5 125.5t-103.5 46.5t-104 -47t-39 -125t39 -125t104 -47t103.5 46.5t38.5 125.5z" />
    <glyph glyph-name="_435" horiz-adv-x="291" 
d="M163 0v362l-136 -74v56l140 76h50v-420h-54z" />
    <glyph glyph-name="_436" horiz-adv-x="411" 
d="M89 48h286v-48h-342v40q0 65 29 97q33 39 143 74q72 22 96 40.5t24 51.5q0 35 -29.5 57t-78.5 22q-57 0 -91.5 -29.5t-38.5 -79.5l-53 2q4 70 54.5 112t128.5 42q71 0 117 -35t46 -90q0 -50 -31 -78t-117 -55q-105 -33 -126 -61q-16 -20 -17 -62z" />
    <glyph glyph-name="_437" horiz-adv-x="404" 
d="M27 137l53 7q3 -52 35 -79t90 -27q53 0 83 22.5t30 61.5q0 79 -109 79h-49v42h48q99 0 99 69q0 32 -27.5 51t-74.5 19q-100 0 -123 -89l-51 13q13 57 59 90t115 33t112 -32t43 -83q0 -60 -61 -88v-1q34 -13 53.5 -41t19.5 -64q0 -59 -45.5 -94t-121.5 -35
q-80 0 -127 38.5t-51 107.5z" />
    <glyph glyph-name="_438" horiz-adv-x="413" 
d="M276 0v81h-266v48l233 291h87v-290h66v-49h-66v-81h-54zM70 130h206v254h-1z" />
    <glyph glyph-name="_439" horiz-adv-x="430" 
d="M32 116l51 17q23 -95 135 -95q58 0 92 28.5t34 75.5t-34 74.5t-91 27.5q-73 0 -128 -54l-50 15l44 215h273v-47h-232l-26 -123l1 -1q53 38 124 38q77 0 125.5 -40.5t48.5 -105.5q0 -66 -50 -108t-131 -42q-73 0 -123 33.5t-63 91.5z" />
    <glyph glyph-name="_440" horiz-adv-x="441" 
d="M409 139q0 -65 -49.5 -106.5t-125.5 -41.5q-95 0 -148.5 56t-53.5 157q0 102 55 163.5t145 61.5q62 0 105.5 -29.5t57.5 -80.5l-50 -15q-12 37 -41.5 57.5t-71.5 20.5q-67 0 -105.5 -46t-38.5 -126h1q21 32 60.5 51t86.5 19q77 0 125 -40t48 -101zM355 139q0 45 -33 71.5
t-89 26.5q-54 0 -91 -29.5t-37 -72.5t36 -69.5t93 -26.5q54 0 87.5 27.5t33.5 72.5z" />
    <glyph glyph-name="_441" horiz-adv-x="336" 
d="M67 0l201 372v1h-268v47h331v-44l-202 -376h-62z" />
    <glyph glyph-name="_442" horiz-adv-x="435" 
d="M32 117q0 38 25.5 68t70.5 44v1q-68 29 -68 87q0 49 44.5 80.5t113.5 31.5q68 0 112.5 -31.5t44.5 -80.5q0 -58 -68 -87v-1q45 -14 70.5 -44t25.5 -68q0 -57 -50.5 -91.5t-134.5 -34.5q-85 0 -135.5 34.5t-50.5 91.5zM323 315q0 32 -29 51.5t-76 19.5q-48 0 -77 -19.5
t-29 -51.5q0 -30 30 -49.5t76 -19.5t75.5 19.5t29.5 49.5zM349 120q0 38 -36 61t-95 23t-95.5 -23t-36.5 -61q0 -39 35 -60.5t97 -21.5t96.5 21.5t34.5 60.5z" />
    <glyph glyph-name="_443" horiz-adv-x="426" 
d="M394 232q0 -117 -46.5 -179t-131.5 -62q-62 0 -104.5 30t-57.5 83l51 17q23 -83 111 -83q54 0 86 41.5t36 119.5h-1q-39 -54 -132 -54q-79 0 -126 38t-47 101q0 62 49 103.5t126 41.5q87 0 137 -53t50 -144zM327 285q0 42 -34 69.5t-86 27.5q-54 0 -87.5 -27.5
t-33.5 -70.5t33.5 -69t87.5 -26t87 26.5t33 69.5z" />
    <glyph glyph-name="_444" horiz-adv-x="457" 
d="M32 490q0 98 54.5 158.5t142.5 60.5t142 -60.5t54 -158.5t-54 -158.5t-142 -60.5t-142.5 60.5t-54.5 158.5zM371 490q0 79 -38.5 125.5t-103.5 46.5t-104 -47t-39 -125t39 -125t104 -47t103.5 46.5t38.5 125.5z" />
    <glyph glyph-name="_445" horiz-adv-x="291" 
d="M163 280v362l-136 -74v56l140 76h50v-420h-54z" />
    <glyph glyph-name="_446" horiz-adv-x="411" 
d="M89 328h286v-48h-342v40q0 65 29 97q33 39 143 74q72 22 96 40.5t24 51.5q0 35 -29.5 57t-78.5 22q-57 0 -91.5 -29.5t-38.5 -79.5l-53 2q4 70 54.5 112t128.5 42q71 0 117 -35t46 -90q0 -50 -31 -78t-117 -55q-105 -33 -126 -61q-16 -20 -17 -62z" />
    <glyph glyph-name="_447" horiz-adv-x="404" 
d="M27 417l53 7q3 -52 35 -79t90 -27q53 0 83 22.5t30 61.5q0 79 -109 79h-49v42h48q99 0 99 69q0 32 -27.5 51t-74.5 19q-100 0 -123 -89l-51 13q13 57 59 90t115 33t112 -32t43 -83q0 -60 -61 -88v-1q34 -13 53.5 -41t19.5 -64q0 -59 -45.5 -94t-121.5 -35
q-80 0 -127 38.5t-51 107.5z" />
    <glyph glyph-name="_448" horiz-adv-x="413" 
d="M276 280v81h-266v48l233 291h87v-290h66v-49h-66v-81h-54zM70 410h206v254h-1z" />
    <glyph glyph-name="_449" horiz-adv-x="430" 
d="M32 396l51 17q23 -95 135 -95q58 0 92 28.5t34 75.5t-34 74.5t-91 27.5q-73 0 -128 -54l-50 15l44 215h273v-47h-232l-26 -123l1 -1q53 38 124 38q77 0 125.5 -40.5t48.5 -105.5q0 -66 -50 -108t-131 -42q-73 0 -123 33.5t-63 91.5z" />
    <glyph glyph-name="_450" horiz-adv-x="441" 
d="M409 419q0 -65 -49.5 -106.5t-125.5 -41.5q-95 0 -148.5 56t-53.5 157q0 102 55 163.5t145 61.5q62 0 105.5 -29.5t57.5 -80.5l-50 -15q-12 37 -41.5 57.5t-71.5 20.5q-67 0 -105.5 -46t-38.5 -126h1q21 32 60.5 51t86.5 19q77 0 125 -40t48 -101zM355 419q0 45 -33 71.5
t-89 26.5q-54 0 -91 -29.5t-37 -72.5t36 -69.5t93 -26.5q54 0 87.5 27.5t33.5 72.5z" />
    <glyph glyph-name="_451" horiz-adv-x="336" 
d="M67 280l201 372v1h-268v47h331v-44l-202 -376h-62z" />
    <glyph glyph-name="_452" horiz-adv-x="435" 
d="M32 397q0 38 25.5 68t70.5 44v1q-68 29 -68 87q0 49 44.5 80.5t113.5 31.5q68 0 112.5 -31.5t44.5 -80.5q0 -58 -68 -87v-1q45 -14 70.5 -44t25.5 -68q0 -57 -50.5 -91.5t-134.5 -34.5q-85 0 -135.5 34.5t-50.5 91.5zM323 595q0 32 -29 51.5t-76 19.5q-48 0 -77 -19.5
t-29 -51.5q0 -30 30 -49.5t76 -19.5t75.5 19.5t29.5 49.5zM349 400q0 38 -36 61t-95 23t-95.5 -23t-36.5 -61q0 -39 35 -60.5t97 -21.5t96.5 21.5t34.5 60.5z" />
    <glyph glyph-name="_453" horiz-adv-x="426" 
d="M394 512q0 -117 -46.5 -179t-131.5 -62q-62 0 -104.5 30t-57.5 83l51 17q23 -83 111 -83q54 0 86 41.5t36 119.5h-1q-39 -54 -132 -54q-79 0 -126 38t-47 101q0 62 49 103.5t126 41.5q87 0 137 -53t50 -144zM327 565q0 42 -34 69.5t-86 27.5q-54 0 -87.5 -27.5
t-33.5 -70.5t33.5 -69t87.5 -26t87 26.5t33 69.5z" />
    <glyph glyph-name="_454" horiz-adv-x="457" 
d="M32 590q0 98 54.5 158.5t142.5 60.5t142 -60.5t54 -158.5t-54 -158.5t-142 -60.5t-142.5 60.5t-54.5 158.5zM371 590q0 79 -38.5 125.5t-103.5 46.5t-104 -47t-39 -125t39 -125t104 -47t103.5 46.5t38.5 125.5z" />
    <glyph glyph-name="_455" horiz-adv-x="291" 
d="M163 380v362l-136 -74v56l140 76h50v-420h-54z" />
    <glyph glyph-name="_456" horiz-adv-x="411" 
d="M89 428h286v-48h-342v40q0 65 29 97q33 39 143 74q72 22 96 40.5t24 51.5q0 35 -29.5 57t-78.5 22q-57 0 -91.5 -29.5t-38.5 -79.5l-53 2q4 70 54.5 112t128.5 42q71 0 117 -35t46 -90q0 -50 -31 -78t-117 -55q-105 -33 -126 -61q-16 -20 -17 -62z" />
    <glyph glyph-name="_457" horiz-adv-x="404" 
d="M27 517l53 7q3 -52 35 -79t90 -27q53 0 83 22.5t30 61.5q0 79 -109 79h-49v42h48q99 0 99 69q0 32 -27.5 51t-74.5 19q-100 0 -123 -89l-51 13q13 57 59 90t115 33t112 -32t43 -83q0 -60 -61 -88v-1q34 -13 53.5 -41t19.5 -64q0 -59 -45.5 -94t-121.5 -35
q-80 0 -127 38.5t-51 107.5z" />
    <glyph glyph-name="_458" horiz-adv-x="413" 
d="M276 380v81h-266v48l233 291h87v-290h66v-49h-66v-81h-54zM70 510h206v254h-1z" />
    <glyph glyph-name="_459" horiz-adv-x="430" 
d="M32 496l51 17q23 -95 135 -95q58 0 92 28.5t34 75.5t-34 74.5t-91 27.5q-73 0 -128 -54l-50 15l44 215h273v-47h-232l-26 -123l1 -1q53 38 124 38q77 0 125.5 -40.5t48.5 -105.5q0 -66 -50 -108t-131 -42q-73 0 -123 33.5t-63 91.5z" />
    <glyph glyph-name="_460" horiz-adv-x="441" 
d="M409 519q0 -65 -49.5 -106.5t-125.5 -41.5q-95 0 -148.5 56t-53.5 157q0 102 55 163.5t145 61.5q62 0 105.5 -29.5t57.5 -80.5l-50 -15q-12 37 -41.5 57.5t-71.5 20.5q-67 0 -105.5 -46t-38.5 -126h1q21 32 60.5 51t86.5 19q77 0 125 -40t48 -101zM355 519q0 45 -33 71.5
t-89 26.5q-54 0 -91 -29.5t-37 -72.5t36 -69.5t93 -26.5q54 0 87.5 27.5t33.5 72.5z" />
    <glyph glyph-name="_461" horiz-adv-x="336" 
d="M67 380l201 372v1h-268v47h331v-44l-202 -376h-62z" />
    <glyph glyph-name="_462" horiz-adv-x="435" 
d="M32 497q0 38 25.5 68t70.5 44v1q-68 29 -68 87q0 49 44.5 80.5t113.5 31.5q68 0 112.5 -31.5t44.5 -80.5q0 -58 -68 -87v-1q45 -14 70.5 -44t25.5 -68q0 -57 -50.5 -91.5t-134.5 -34.5q-85 0 -135.5 34.5t-50.5 91.5zM323 695q0 32 -29 51.5t-76 19.5q-48 0 -77 -19.5
t-29 -51.5q0 -30 30 -49.5t76 -19.5t75.5 19.5t29.5 49.5zM349 500q0 38 -36 61t-95 23t-95.5 -23t-36.5 -61q0 -39 35 -60.5t97 -21.5t96.5 21.5t34.5 60.5z" />
    <glyph glyph-name="_463" horiz-adv-x="426" 
d="M394 612q0 -117 -46.5 -179t-131.5 -62q-62 0 -104.5 30t-57.5 83l51 17q23 -83 111 -83q54 0 86 41.5t36 119.5h-1q-39 -54 -132 -54q-79 0 -126 38t-47 101q0 62 49 103.5t126 41.5q87 0 137 -53t50 -144zM327 665q0 42 -34 69.5t-86 27.5q-54 0 -87.5 -27.5
t-33.5 -70.5t33.5 -69t87.5 -26t87 26.5t33 69.5z" />
    <glyph glyph-name="braceleft001" horiz-adv-x="391" 
d="M159 0v240q0 35 -11.5 48.5t-41.5 13.5h-28v66h28q30 0 41.5 13.5t11.5 49.5v219q0 68 27.5 99.5t88.5 31.5h86v-59h-78q-35 0 -50 -19.5t-15 -64.5v-219q0 -38 -17.5 -59.5t-45.5 -23.5v-2q28 -2 45.5 -24t17.5 -60v-238q0 -45 15.5 -65t49.5 -20h78v-58h-86
q-61 0 -88.5 31.5t-27.5 99.5z" />
    <glyph glyph-name="braceright002" horiz-adv-x="391" 
d="M116 -131h-86v58h78q34 0 49.5 20t15.5 65v238q0 38 17.5 60t45.5 24v2q-28 2 -45.5 23.5t-17.5 59.5v219q0 45 -15 64.5t-50 19.5h-78v59h86q61 0 88.5 -31.5t27.5 -99.5v-219q0 -36 11.5 -49.5t41.5 -13.5h28v-66h-28q-30 0 -41.5 -13.5t-11.5 -48.5v-240
q0 -68 -27.5 -99.5t-88.5 -31.5z" />
    <glyph glyph-name="bracketleft003" horiz-adv-x="323" 
d="M91 -131v912h202v-56h-143v-800h143v-56h-202z" />
    <glyph glyph-name="bracketright004" horiz-adv-x="323" 
d="M232 -131h-202v56h143v800h-143v56h202v-912z" />
    <glyph glyph-name="parenleft005" horiz-adv-x="364" 
d="M98 345q0 270 198 489l41 -33q-91 -106 -134 -216.5t-43 -239.5q0 -131 43 -240.5t134 -215.5l-41 -33q-198 216 -198 489z" />
    <glyph glyph-name="parenright006" horiz-adv-x="364" 
d="M68 -144l-41 33q91 106 134 215.5t43 240.5q0 129 -43 239.5t-134 216.5l41 33q198 -219 198 -489q0 -273 -198 -489z" />
    <glyph glyph-name="emdash007" horiz-adv-x="845" 
d="M58 333v58h730v-58h-730z" />
    <glyph glyph-name="endash008" horiz-adv-x="560" 
d="M58 333v58h444v-58h-444z" />
    <glyph glyph-name="hyphen009" horiz-adv-x="362" 
d="M58 333v58h247v-58h-247z" />
    <glyph glyph-name="hyphen010" horiz-adv-x="362" 
d="M58 333v58h247v-58h-247z" />
    <glyph glyph-name="guilsinglleft_guilsinglleft" horiz-adv-x="461" 
d="M334 147l-109 185l109 185h60l-112 -185l112 -185h-60zM187 147l-109 185l109 185h60l-112 -185l112 -185h-60z" />
    <glyph glyph-name="guillemotright011" horiz-adv-x="461" 
d="M127 147h-60l112 185l-112 185h60l109 -185zM274 147h-60l112 185l-112 185h60l109 -185z" />
    <glyph glyph-name="guilsinglleft012" horiz-adv-x="314" 
d="M187 147l-109 185l109 185h60l-112 -185l112 -185h-60z" />
    <glyph glyph-name="guilsinglright013" horiz-adv-x="314" 
d="M127 147h-60l112 185l-112 185h60l109 -185z" />
    <glyph glyph-name="_547" 
d="M656 203q0 -100 -61.5 -151.5t-180.5 -51.5h-42v-110h-40v110h-238v700h238v101h40v-101h52q96 0 151 -47t55 -129q0 -55 -26 -94t-72 -55v-2q57 -14 90.5 -59.5t33.5 -110.5zM158 642v-247h174v247h-174zM412 642h-40v-247h36q158 0 158 127q0 120 -154 120zM158 58h174
v283h-174v-283zM592 202q0 72 -44 105.5t-139 33.5h-37v-283h32q97 0 142.5 35t45.5 109z" />
    <glyph glyph-name="_548" 
d="M574 188l57 -14q-22 -81 -91.5 -132.5t-165.5 -56.5v-95h-40v96q-116 6 -193.5 85t-77.5 194t77.5 194t193.5 85v87h40v-86q96 -5 165.5 -56.5t91.5 -132.5l-57 -14q-20 68 -72.5 107t-127.5 43v-454q75 4 127.5 43t72.5 107zM334 38v454q-93 -8 -152 -69.5t-59 -157.5
t59 -157.5t152 -69.5z" />
    <glyph glyph-name="_549" 
d="M543 175l66 -66l-30 -30l-65 65q-64 -58 -155 -58t-154 57l-65 -64l-30 30l65 66q-50 65 -50 155q0 91 49 155l-64 65l30 30l63 -63q64 58 156 58q91 0 156 -59l64 64l30 -30l-65 -65q49 -65 49 -155q0 -88 -50 -155zM531 329q0 86 -47.5 139t-123.5 53q-77 0 -125 -53
t-48 -139q0 -84 47.5 -136t125.5 -52q76 0 124 53q47 53 47 135z" />
    <glyph glyph-name="_550" 
d="M662 181q0 -87 -75.5 -141.5t-200.5 -54.5h-10v-95h-40v97q-124 12 -196.5 78.5t-81.5 179.5l63 9q18 -190 215 -210v296q-94 19 -143 37t-82 52q-36 36 -36 96q0 84 71.5 137t184.5 53h5v86h40v-88q106 -11 174.5 -69.5t80.5 -146.5l-62 -12q-13 72 -63 116.5t-130 54.5
v-264q100 -20 155 -40.5t92 -59.5q39 -42 39 -111zM336 400v259h-5q-87 0 -140.5 -36t-53.5 -96q3 -54 48.5 -79.5t150.5 -47.5zM600 179q-3 67 -55 97.5t-169 55.5v-291h11q98 0 155.5 37.5t57.5 100.5z" />
    <glyph glyph-name="_551" 
d="M622 250l61 -11q-16 -118 -91.5 -186t-190.5 -68q-113 0 -193 72q-79 70 -105 193h-84v54h77q-2 40 -2 46q0 7 2 41h-77v54h84q22 122 103 197q79 73 195 73q110 0 186 -64.5t94 -173.5l-60 -13q-18 93 -75 143t-145 50q-90 0 -152.5 -56.5t-83.5 -155.5h307v-54h-314
q-2 -34 -2 -41q0 -6 2 -46h236v-54h-228q22 -97 83.5 -152t151.5 -55q91 0 148 53t73 154z" />
    <glyph glyph-name="_552" 
d="M436 590l-11 -60h175v-54h-184l-82 -462l-13 -73q-17 -103 -132 -103h-81v53h83q33 0 49.5 14t22.5 47l92 524h-153v54h162l13 72q19 103 132 103h103v-53h-104q-33 0 -49.5 -14.5t-22.5 -47.5z" />
    <glyph glyph-name="_553" 
d="M560 365h65q1 -158 -101.5 -262.5t-255.5 -102.5h-64v341l-89 -33l-20 50l109 39v92l-89 -33l-20 50l109 40v154h64v-131l211 77l19 -50l-230 -84v-91l211 76l19 -49l-230 -84v-306q128 0 210 85.5t82 221.5z" />
    <glyph glyph-name="_554" 
d="M666 488q0 -100 -62.5 -155.5t-174.5 -55.5h-217v-95h193v-54h-193v-128h-64v128h-104v54h104v95h-104v54h104v369h281q110 0 173.5 -56.5t63.5 -155.5zM602 488q0 154 -175 154h-215v-307h215q175 0 175 153z" />
    <glyph glyph-name="_555" 
d="M648 649h-150v-2q69 -41 78 -123h72v-54h-72q-7 -81 -61 -126.5t-150 -49.5v-2l186 -292h-74l-184 294h-222v57h271q156 0 170 119h-440v54h439q-14 118 -171 118h-269v58h577v-51z" />
    <glyph glyph-name="_556" 
d="M270 60v-2h351v-58h-536v58h50q65 0 104.5 36.5t39.5 95.5q0 56 -61 125h-133v55h84q-66 76 -66 151q0 90 68 142t183 52q116 0 193.5 -58t87.5 -156l-64 -10q-12 80 -68 123t-149 43q-86 0 -135 -36t-49 -100q0 -39 18 -72t59 -79h264v-55h-222q51 -65 51 -125
q0 -87 -70 -130z" />
    <glyph glyph-name="_557" 
d="M713 461h-60l-14 -76h74v-49h-84l-63 -336h-66l-107 336h-67l-106 -336h-67l-63 336h-83v49h73l-14 76h-59v48h50l-36 191h58l35 -191h212l7 21h53l7 -21h212l35 191h58l-36 -191h51v-48zM123 461l14 -76h150l24 76h-188zM582 385l14 76h-188l24 -76h150zM341 385h36
l-17 54h-2zM194 88l78 248h-126l46 -248h2zM528 88l45 248h-126l79 -248h2z" />
    <glyph glyph-name="_558" 
d="M693 700l-270 -371h215v-54h-246v-86h246v-55h-246v-134h-64v134h-245v55h245v86h-245v54h214l-270 371h75l257 -357h2l257 357h75z" />
    <glyph glyph-name="plus014" 
d="M587 394v-52h-200v-211h-54v211h-200v52h200v206h54v-206h200z" />
    <glyph glyph-name="minus015" 
d="M158 342v52h404v-52h-404z" />
    <glyph glyph-name="multiply016" 
d="M198 153l-37 38l162 162l-162 161l37 38l162 -163l162 163l37 -38l-162 -161l162 -162l-37 -38l-162 163z" />
    <glyph glyph-name="divide017" 
d="M301 559q0 26 17 43.5t42 17.5q26 0 43 -17.5t17 -43.5q0 -25 -17.5 -42t-42.5 -17t-42 17t-17 42zM158 342v52h405v-52h-405zM301 172q0 25 17 42.5t42 17.5q26 0 43 -17t17 -43t-17 -43t-43 -17q-25 0 -42 17t-17 43z" />
    <glyph glyph-name="equal018" 
d="M149 420v54h422v-54h-422zM149 236v53h422v-53h-422z" />
    <glyph glyph-name="notequal019" 
d="M571 420h-151l-73 -131h224v-53h-254l-61 -110l-35 20l50 90h-122v53h152l72 131h-224v54h254l61 109l36 -20l-50 -89h121v-54z" />
    <glyph glyph-name="greater020" 
d="M182 92l-30 47l355 212l-355 213l30 47l386 -233v-53z" />
    <glyph glyph-name="less021" 
d="M538 92l-386 233v53l386 233l30 -47l-355 -213l355 -212z" />
    <glyph glyph-name="greaterequal022" 
d="M185 131l-28 45l356 214l-357 214l29 45l387 -233v-52zM147 0v54h425v-54h-425z" />
    <glyph glyph-name="lessequal023" 
d="M534 131l-387 233v52l387 233l29 -45l-357 -214l356 -214zM572 0h-425v54h425v-54z" />
    <glyph glyph-name="plusminus024" 
d="M388 442h200v-51h-200v-199h-54v199h-200v51h200v194h54v-194zM132 80v51h455v-51h-455z" />
    <glyph glyph-name="approxequal025" 
d="M174 370l-49 14q11 59 44.5 91.5t82.5 32.5q51 0 124 -48q61 -38 90 -38q31 0 49.5 20.5t30.5 66.5l50 -16q-11 -58 -45 -90.5t-83 -32.5q-51 0 -124 48q-28 16 -38 21.5t-24.5 10.5t-27.5 5q-31 0 -50 -20t-30 -65zM174 206l-49 14q11 59 44.5 91.5t82.5 32.5
q51 0 124 -48q61 -38 90 -38q31 0 49.5 20.5t30.5 66.5l50 -16q-11 -58 -45 -90.5t-83 -32.5q-51 0 -124 48q-28 16 -38 21.5t-24.5 10.5t-27.5 5q-31 0 -50 -20t-30 -65z" />
    <glyph glyph-name="_596" 
d="M34 660q0 98 54.5 158.5t142.5 60.5q89 0 143.5 -60.5t54.5 -158.5t-54.5 -158.5t-143.5 -60.5q-88 0 -142.5 60.5t-54.5 158.5zM371 660q0 77 -38 122.5t-102 45.5q-63 0 -101 -45.5t-38 -122.5t38 -122.5t101 -45.5q64 0 102 45.5t38 122.5zM168 207l-29 50l387 224
l29 -51zM291 40q0 98 54.5 158.5t143.5 60.5q88 0 142.5 -60.5t54.5 -158.5t-54.5 -158.5t-142.5 -60.5q-89 0 -143.5 60.5t-54.5 158.5zM628 40q0 77 -37.5 122.5t-101.5 45.5t-102 -45.5t-38 -122.5t38 -122.5t102 -45.5t101.5 45.5t37.5 122.5z" />
    <glyph glyph-name="_597" 
d="M31 687q0 98 54.5 158.5t143.5 60.5q88 0 142.5 -60.5t54.5 -158.5t-54.5 -158.5t-142.5 -60.5q-89 0 -143.5 60.5t-54.5 158.5zM368 687q0 77 -37.5 122.5t-101.5 45.5t-102 -45.5t-38 -122.5t38 -122.5t102 -45.5t101.5 45.5t37.5 122.5zM108 275l-19 52l470 171
l19 -52zM15 3q0 97 53 158t136 61q84 0 132 -65q13 76 61.5 120.5t118.5 44.5q83 0 136 -61t53 -158q0 -96 -53 -157.5t-136 -61.5q-84 0 -132 66q-13 -77 -61.5 -121.5t-118.5 -44.5q-83 0 -136 61.5t-53 157.5zM647 103q0 75 -37 122t-95 47t-95 -47t-37 -122t37 -121.5
t95 -46.5t95 46.5t37 121.5zM337 3q0 75 -37 122t-95 47q-60 0 -96 -46t-36 -123t36 -122.5t96 -45.5q58 0 95 46.5t37 121.5z" />
    <glyph glyph-name="_626" horiz-adv-x="850" 
d="M68 350q-2 154 101 261t256 104q163 0 260.5 -97t97.5 -255q0 -104 -36 -159t-102 -55q-34 0 -58.5 15.5t-32.5 42.5h-2q-17 -29 -57 -45.5t-91 -16.5q-69 0 -108.5 29.5t-39.5 81.5q0 45 29.5 72.5t92.5 42.5q103 25 128 37t28 38q0 27 -27 43.5t-72 16.5
q-105 0 -122 -85l-52 8q8 57 56 91t118 34q71 0 112 -33.5t41 -90.5v-149q0 -51 12 -68.5t46 -17.5q41 0 63.5 43.5t22.5 124.5q0 138 -82.5 222t-224.5 84q-132 2 -220 -91.5t-86 -227.5q0 -153 82.5 -235.5t230.5 -82.5q118 0 225 52l20 -43q-116 -56 -245 -56
q-168 0 -266 96.5t-98 268.5zM535 279v106h-1q-10 -14 -37.5 -25t-99.5 -29q-48 -12 -67.5 -28t-19.5 -44q0 -66 98 -66q58 0 92.5 23.5t34.5 62.5z" />
    <glyph glyph-name="_646" horiz-adv-x="0" 
d="M-306 379l-160 -149v11l-119 -111l-27 27l147 138v-11l132 124z" />
    <glyph glyph-name="_648" horiz-adv-x="0" 
d="M-442 463l-263 -239v3l-153 -144l-26 27l198 186v-2l218 198z" />
    <glyph glyph-name="_649" horiz-adv-x="0" 
d="M-80 625v76h80v-76h-80z" />
    <glyph glyph-name="_650" horiz-adv-x="0" 
d="M-312 338v48h312v-48h-312z" />
    </font>
</defs>
</svg>
