<?xml version="1.0" standalone="no"?>
<!DOCTYPE svg PUBLIC "-//W3C//DTD SVG 20010904//EN"
 "http://www.w3.org/TR/2001/REC-SVG-20010904/DTD/svg10.dtd">
<svg version="1.0" xmlns="http://www.w3.org/2000/svg"
 width="260.000000pt" height="260.000000pt" viewBox="0 0 260.000000 260.000000"
 preserveAspectRatio="xMidYMid meet">
<metadata>
Created by potrace 1.11, written by Peter Selinger 2001-2013
</metadata>
<g transform="translate(0.000000,260.000000) scale(0.100000,-0.100000)"
fill="#000000" stroke="none">
<path d="M0 1300 l0 -1300 1300 0 1300 0 0 1300 0 1300 -1300 0 -1300 0 0
-1300z m1967 694 c111 -23 206 -75 189 -103 -4 -6 -32 0 -71 15 -81 30 -216
54 -304 54 -108 0 -322 -42 -433 -85 -31 -12 -20 14 15 35 130 80 427 121 604
84z m-930 -23 c88 -23 211 -69 219 -82 6 -10 -20 -6 -81 11 -221 64 -521 50
-662 -31 -46 -27 -54 -28 -59 -14 -9 23 41 73 96 97 115 51 335 60 487 19z
m271 -624 c4 -294 9 -538 12 -541 3 -2 32 8 65 24 90 43 167 60 296 67 238 12
520 -54 596 -140 15 -16 10 -15 -35 7 -128 65 -386 99 -590 78 -142 -14 -232
-40 -302 -87 -29 -19 -54 -35 -57 -35 -2 0 -19 11 -37 25 -46 35 -113 62 -193
79 -223 47 -565 19 -718 -60 -46 -24 -48 -24 -30 -4 75 83 361 149 589 137
132 -7 219 -27 300 -67 33 -17 61 -28 64 -25 2 2 8 239 13 527 4 288 8 532 8
542 1 11 3 17 6 14 3 -3 9 -247 13 -541z m906 414 c22 -98 87 -781 85 -896 -1
-96 -17 -6 -34 197 -18 218 -40 374 -86 611 -26 131 -29 160 -18 173 12 14 14
14 25 -1 7 -10 20 -47 28 -84z m-1778 55 c3 -8 -10 -111 -30 -228 -38 -229
-50 -343 -66 -592 -6 -88 -13 -162 -15 -165 -17 -17 21 687 46 859 17 112 47
172 65 126z m661 -1075 c46 -13 109 -39 140 -58 56 -33 59 -34 83 -18 46 30
125 64 190 82 52 14 101 18 245 17 160 -1 191 -4 277 -27 118 -31 208 -70 240
-104 l23 -25 -50 26 c-112 58 -339 93 -540 83 -171 -9 -299 -45 -386 -109
l-27 -20 -42 31 c-59 42 -137 70 -249 86 -222 34 -514 2 -656 -71 -46 -24 -48
-24 -30 -4 39 43 178 98 300 119 33 6 71 13 85 15 14 2 90 3 170 2 114 -2 163
-8 227 -25z"/>
</g>
</svg>
